<?xml version="1.0" encoding="UTF-8"?>
<svg id="Layer_1" data-name="Layer 1" xmlns="http://www.w3.org/2000/svg" viewBox="0 0 72 72">
  <defs>
    <style>
      .fill {
        fill: var(--color);
      }
    </style>
  </defs>
  <path id="background" class="bg" d="m0,72C0,48,0,24,0,0c24,0,48,0,72,0,0,24,0,48,0,72-24,0-48,0-72,0Zm30.68-34.3c-.41.38-.83.73-1.21,1.13-2.47,2.64-4.93,5.29-7.4,7.93-1.3,1.38-2.62,2.73-3.94,4.09-.62.64-.78,1.37-.44,2.18.16.37.34.74.57,1.07,1.52,2.13,3.57,3.73,5.52,5.43.81.71,1.73,1.29,2.47,2.06.42.44.72.92,1.39.96.81.05,1.62.17,2.43.15,3.9-.08,7.81-.19,11.71-.31.81-.03,1.62-.26,2.42-.21.94.05,1.88-.66,2.81.04.09.07.35,0,.47-.1.34-.25.68-.52.98-.82.87-.86,1.37-2.07,2.6-2.61.44-.19.89-.56,1.14-.96,1.32-2.14,2.62-4.29,3.84-6.48.54-.97.22-1.77-.7-2.41-.41-.29-.84-.57-1.19-.92-.85-.84-1.66-1.73-2.51-2.57-2.89-2.87-5.8-5.73-8.69-8.59-.32-.31-.41-.64-.25-1.09.35-1.02.62-2.06.95-3.09.65-2.07.36-3.99-.93-5.72-.88-1.19-1.8-2.36-2.78-3.46-.8-.9-1.32-1.84-1.29-3.07.01-.6.06-.94.8-1.05.76-.11,1.62-.42,1.77-1.34.11-.65.05-1.35-.06-2-.22-1.32-.84-1.92-2.14-2.01-1.58-.11-3.17-.22-4.74-.13-1.42.08-2.85.35-4.23.7-1.15.29-1.69,1.14-1.57,2.26.08.75.28,1.5.51,2.23.23.75.82,1.09,1.6,1.08.24,0,.48.02.72,0,.44-.03.71.22.56.59-.32.8-.66,1.62-1.17,2.3-.99,1.34-2.14,2.57-3.13,3.91-.86,1.16-.93,2.52-.48,3.85.36,1.06.82,2.1,1.34,3.09.69,1.31,1.48,2.56,2.25,3.87Z"/>
  <path id="fill" class="fill" d="m47.16,60.82c-.72.05-1.31.07-1.89.13-1.3.13-2.59.34-3.89.41-1.98.1-3.97.11-5.96.16-2.2.05-4.4.09-6.6.15-.41.01-.66-.12-.97-.42-1.14-1.11-2.36-2.12-3.52-3.21-1.66-1.55-3.34-3.08-4.9-4.72-.76-.8-.96-1.23.12-2.29,1.97-1.93,3.89-3.91,5.78-5.92,2.1-2.23,4.14-4.51,6.21-6.76.16-.17.34-.32.65-.62-.5-.95-1-1.97-1.56-2.94-.96-1.67-2.07-3.27-2.43-5.2-.11-.57-.04-1.26.19-1.78.77-1.7,1.88-3.34,3.4-4.25,1.6-.96,1.09-2.07,1.05-3.27,0-.07.01-.14.02-.2q.86-.2.88-.75c-.64,0-1.29-.05-1.93,0-1.5.13-2.1-.36-2.3-2.3-.15-1.54.08-1.88,1.65-2.08,1.76-.23,3.55-.25,5.32-.31.81-.02,1.63.02,2.42.17.92.18,1.28.73,1.3,1.69,0,.14,0,.29,0,.43,0,1.23-.63,1.79-1.87,1.68-.88-.08-1.18.36-.89,1.22.14.4.2.84.2,1.26,0,1.59,1.25,2.44,2.07,3.54.8,1.07,1.61,2.13,2.37,3.22.82,1.18.99,2.46.51,3.85-.38,1.07-.47,2.29-1.01,3.25-.77,1.35-.02,2.12.75,2.93,2.04,2.13,4.08,4.26,6.19,6.33,1.72,1.69,3.53,3.3,5.29,4.95.33.31.64.64.9,1.01.11.15.13.46.04.62-.68,1.28-1.31,2.6-2.14,3.78-.67.96-1.62,1.73-2.4,2.62-1.08,1.24-2.12,2.52-3.05,3.63Z"/>
  <path id="outline" d="m30.68,37.7c-.77-1.31-1.56-2.56-2.25-3.87-.52-.99-.98-2.03-1.34-3.09-.45-1.33-.38-2.69.48-3.85.99-1.34,2.14-2.56,3.13-3.91.5-.69.84-1.51,1.17-2.3.15-.37-.12-.62-.56-.59-.24.02-.48,0-.72,0-.78,0-1.37-.33-1.6-1.08-.23-.73-.43-1.48-.51-2.23-.11-1.12.42-1.97,1.57-2.26,1.38-.35,2.81-.62,4.23-.7,1.57-.09,3.16.03,4.74.13,1.3.09,1.92.69,2.14,2.01.11.65.16,1.35.06,2-.15.92-1.01,1.23-1.77,1.34-.74.11-.79.45-.8,1.05-.02,1.23.49,2.17,1.29,3.07.98,1.1,1.9,2.27,2.78,3.46,1.29,1.73,1.59,3.65.93,5.72-.32,1.03-.59,2.07-.95,3.09-.16.46-.07.78.25,1.09,2.9,2.86,5.8,5.72,8.69,8.59.85.84,1.65,1.74,2.51,2.57.35.35.78.63,1.19.92.92.65,1.24,1.44.7,2.41-1.22,2.19-2.52,4.35-3.84,6.48-.25.41-.7.77-1.14.96-1.23.54-1.73,1.75-2.6,2.61-.3.3-.64.57-.98.82-.12.09-.38.16-.47.1-.93-.7-1.87.02-2.81-.04-.8-.04-1.61.19-2.42.21-3.9.12-7.8.23-11.71.31-.81.02-1.62-.1-2.43-.15-.67-.04-.97-.53-1.39-.96-.74-.77-1.66-1.35-2.47-2.06-1.95-1.7-4-3.3-5.52-5.43-.23-.33-.42-.7-.57-1.07-.34-.81-.18-1.54.44-2.18,1.32-1.36,2.64-2.71,3.94-4.09,2.48-2.63,4.93-5.29,7.4-7.93.37-.4.8-.75,1.21-1.13Zm16.48,23.12c.93-1.11,1.97-2.39,3.05-3.63.78-.89,1.73-1.66,2.4-2.62.83-1.18,1.45-2.51,2.14-3.78.09-.16.06-.47-.04-.62-.26-.37-.57-.7-.9-1.01-1.76-1.65-3.57-3.26-5.29-4.95-2.1-2.07-4.15-4.19-6.19-6.33-.77-.81-1.52-1.58-.75-2.93.55-.96.64-2.18,1.01-3.25.49-1.39.32-2.67-.51-3.85-.76-1.09-1.57-2.15-2.37-3.22-.82-1.1-2.07-1.95-2.07-3.54,0-.42-.06-.86-.2-1.26-.29-.85.01-1.3.89-1.22,1.25.11,1.87-.44,1.87-1.68,0-.14,0-.29,0-.43-.02-.96-.38-1.51-1.3-1.69-.79-.15-1.61-.19-2.42-.17-1.78.05-3.57.08-5.32.31-1.57.2-1.8.54-1.65,2.08.19,1.94.8,2.43,2.3,2.3.64-.06,1.28,0,1.93,0q-.03.55-.88.75c0,.06-.02.13-.02.2.04,1.2.55,2.31-1.05,3.27-1.52.91-2.64,2.55-3.4,4.25-.23.52-.3,1.21-.19,1.78.36,1.93,1.47,3.54,2.43,5.2.56.98,1.06,1.99,1.56,2.94-.31.29-.49.44-.65.62-2.07,2.26-4.11,4.54-6.21,6.76-1.89,2.01-3.82,3.98-5.78,5.92-1.08,1.07-.88,1.5-.12,2.29,1.56,1.64,3.24,3.17,4.9,4.72,1.16,1.09,2.39,2.1,3.52,3.21.31.3.56.43.97.42,2.2-.06,4.4-.1,6.6-.15,1.99-.05,3.98-.05,5.96-.16,1.3-.07,2.59-.28,3.89-.41.59-.06,1.18-.08,1.89-.13Z"/>
</svg>