<?xml version="1.0" encoding="UTF-8"?>
<svg id="Layer_1" data-name="Layer 1" xmlns="http://www.w3.org/2000/svg" viewBox="0 0 72 72">
  <defs>
    <style>
      .fill {
        fill: var(--color);
      }
    </style>
  </defs>
  <path id="background" class="bg" d="m0,72C0,48,0,24,0,0c24,0,48,0,72,0,0,24,0,48,0,72-24,0-48,0-72,0ZM31.74,13.97c.09,1.35.19,2.63.25,3.91.01.27-.06.56-.16.81-.7,1.71-2.23,2.34-3.84,2.72-.58.14-.94.34-1.22.82-1.13,1.97-1.89,4.1-1.91,6.35-.07,6.8-.12,13.61.36,20.41.27,3.72.23,7.46.32,11.2.04,1.8,1.25,3.62,2.79,3.95,1.69.35,3.35.86,5.13.69,1.1-.11,2.24.12,3.35.06,1.99-.12,3.97-.45,5.96-.49,1.84-.04,3.28-.76,4.57-1.95.62-.57.88-1.3.91-2.16.07-2.1.22-4.2.29-6.3.07-2.27.17-4.55.09-6.82-.09-2.88-.37-5.76-.53-8.64-.06-1,0-2.01-.02-3.02-.02-1.55,0-3.11-.08-4.66-.06-1.21-.3-2.41-.33-3.62-.04-1.87-.89-3.33-2.05-4.7-.9-1.07-2.19-1.46-3.36-2.08-.86-.46-1.66-1.07-2.4-1.73-.63-.56-.31-1.36-.28-2.07.03-.78.07-1.55.1-2.34.21-.02.3-.03.39-.04,2.08-.08,2.67-.73,2.52-2.77-.08-1.05-1.03-2.2-1.92-2.27-.95-.07-1.91-.14-2.86-.13-2.01.02-4.01.05-6.02.14-1.8.07-2.77,1.1-2.57,2.84.2,1.64.4,2.06,1.9,1.9.14-.01.28,0,.58,0Z"/>
  <path id="fill" class="fill" d="m26.69,58.39c-.19-4.72-.39-9.43-.58-14.15-.06-1.46-.13-2.92-.17-4.38-.09-3.21-.11-6.43-.28-9.63-.13-2.46.43-4.74,1.35-6.98.27-.66.87-.76,1.38-1.03.46-.24.96-.42,1.46-.57,1.26-.4,2.13-1.34,2.78-2.36.36-.56.23-1.48.18-2.23-.06-.95-.24-1.89-.41-2.84-.16-.89-.36-1.02-1.24-.88-.45.07-.81-.07-.87-.51-.1-.73-.22-1.49-.1-2.2.13-.81.97-.87,1.6-.93,2.72-.26,5.44-.18,8.16,0,1.6.11,2.61,1.71,2.05,3.23-.04.11-.18.27-.28.28-.75.05-1.51.15-2.24.05-.58-.08-1.17.16-.98.67.37,1.01.19,2.01.19,3.02,0,1.82.93,2.96,2.55,3.69.99.45,2.01.94,2.86,1.61,1.88,1.46,2.77,3.48,2.84,5.86.15,5.08.28,10.15.44,15.23.08,2.58.28,5.17.26,7.75-.02,2.22-.3,4.44-.44,6.66-.06.98-.04,1.97-.12,2.94-.04.4-.22.81-.42,1.17-.72,1.26-1.88,1.71-3.28,1.78-3.34.17-6.68.52-10.02.51-1.62,0-3.27-.56-4.84-1.09-1.36-.46-1.73-1.75-1.83-3.07-.04-.53,0-1.06,0-1.58,0,0,.02,0,.03,0Z"/>
  <path id="outline" d="m31.74,13.97c-.29,0-.44-.01-.58,0-1.5.16-1.71-.27-1.9-1.9-.21-1.74.77-2.76,2.57-2.84,2-.08,4.01-.12,6.02-.14.95,0,1.91.07,2.86.13.88.06,1.84,1.21,1.92,2.27.15,2.03-.44,2.68-2.52,2.77-.09,0-.18.02-.39.04-.04.78-.07,1.56-.1,2.34-.03.71-.35,1.52.28,2.07.73.65,1.53,1.27,2.4,1.73,1.17.62,2.46,1.01,3.36,2.08,1.15,1.37,2,2.83,2.05,4.7.03,1.21.27,2.41.33,3.62.07,1.55.06,3.11.08,4.66.01,1.01-.04,2.02.02,3.02.16,2.88.43,5.76.53,8.64.07,2.27-.02,4.55-.09,6.82-.07,2.1-.22,4.2-.29,6.3-.03.86-.28,1.59-.91,2.16-1.29,1.19-2.74,1.91-4.57,1.95-1.99.04-3.97.37-5.96.49-1.11.06-2.25-.17-3.35-.06-1.78.18-3.44-.33-5.13-.69-1.54-.32-2.75-2.15-2.79-3.95-.08-3.73-.05-7.48-.32-11.2-.49-6.8-.43-13.6-.36-20.41.02-2.25.78-4.38,1.91-6.35.28-.48.64-.68,1.22-.82,1.61-.39,3.14-1.02,3.84-2.72.1-.25.17-.54.16-.81-.06-1.28-.16-2.56-.25-3.91Zm-5.05,44.42s-.02,0-.03,0c0,.53-.03,1.06,0,1.58.09,1.33.47,2.62,1.83,3.07,1.57.53,3.22,1.08,4.84,1.09,3.34.02,6.68-.34,10.02-.51,1.4-.07,2.56-.52,3.28-1.78.2-.36.39-.77.42-1.17.09-.98.06-1.96.12-2.94.14-2.22.42-4.44.44-6.66.03-2.58-.18-5.17-.26-7.75-.16-5.08-.29-10.15-.44-15.23-.07-2.38-.96-4.4-2.84-5.86-.85-.66-1.87-1.15-2.86-1.61-1.62-.73-2.54-1.88-2.55-3.69,0-1.01.18-2.01-.19-3.02-.19-.51.4-.75.98-.67.73.1,1.5,0,2.24-.05.1,0,.24-.16.28-.28.56-1.52-.45-3.12-2.05-3.23-2.72-.18-5.44-.26-8.16,0-.63.06-1.47.12-1.6.93-.11.71,0,1.47.1,2.2.06.44.42.58.87.51.89-.14,1.08,0,1.24.88.17.94.35,1.89.41,2.84.05.75.18,1.67-.18,2.23-.65,1.02-1.52,1.96-2.78,2.36-.5.16-1,.33-1.46.57-.51.27-1.11.37-1.38,1.03-.92,2.24-1.48,4.52-1.35,6.98.16,3.21.18,6.42.28,9.63.04,1.46.11,2.92.17,4.38.19,4.72.39,9.43.58,14.15Z"/>
</svg>