<?xml version="1.0" encoding="UTF-8"?>
<svg id="Layer_1" data-name="Layer 1" xmlns="http://www.w3.org/2000/svg" viewBox="0 0 72 72">
  <defs>
    <style>
      .fill {
        fill: var(--color);
      }
    </style>
  </defs>
  <path id="background" class="bg" d="m0,72C0,48,0,24,0,0c24,0,48,0,72,0,0,24,0,48,0,72-24,0-48,0-72,0ZM34.21,7.73s0,.03,0,.05c-.58,0-1.15,0-1.73,0-2.13.01-3.55,1.88-2.98,3.93.1.35.23.76.47,1,.49.48,1.13.81,1.6,1.3.32.33.55.82.66,1.28.21.94.35,1.91.46,2.87.29,2.52.38,5.06-.63,7.45-.65,1.54-1.5,2.99-2.26,4.48-1.62,3.17-2.77,6.53-3.73,9.94-.51,1.81-.83,3.69-1.11,5.55-.33,2.23-.64,4.47-.75,6.71-.1,2.03.03,4.07.12,6.1.1,2.04.21,4.09.46,6.12.08.7.08,1.5.88,2.04,2.12,1.43,4.55,1.7,6.96,1.94,2.74.28,5.45-.24,8.11-.85,1.58-.36,3.22-.61,4.58-1.58.64-.46,1.32-.92,1.32-1.9,0-1.56.15-3.11.12-4.67-.05-2.92-.12-5.84-.29-8.75-.16-2.61-.42-5.21-.71-7.81-.38-3.39-1.13-6.71-2.42-9.87-1.47-3.58-3.13-7.08-4.69-10.62-.22-.51-.49-1.06-.49-1.6-.01-2.4.07-4.79.11-7.19,0-.36.11-.5.49-.63,1.94-.65,2.22-1.1,1.97-2.9-.13-.9-1.16-2.01-2-2.09-1.51-.13-3.02-.23-4.53-.35Z"/>
  <path id="fill" class="fill" d="m34.24,21.06c-.31-1.96-.58-3.92-.94-5.87-.18-.96-.68-1.73-1.62-2.24-1.34-.73-1.35-3.05-.07-3.88.19-.12.45-.18.68-.19,1.84-.07,3.69-.11,5.53-.19.9-.04,1.44.48,1.83,1.16.59,1.02.29,1.79-.84,2.19-.81.29-1.28.8-1.33,1.68-.08,1.29-.21,2.58-.24,3.87-.04,1.65-.03,3.3,0,4.95,0,.38.13.86.38,1.1.76.75,1.22,1.65,1.61,2.6,1.62,3.97,3.34,7.91,4.26,12.13.8,3.64,1.34,7.3,1.47,11.03.09,2.44.3,4.88.3,7.32,0,2.63-.18,5.27-.34,7.9-.02.3-.33.74-.6.84-1.45.49-2.91.97-4.4,1.3-3.71.84-7.45,1.1-11.16-.05-2.19-.68-2.17-.52-2.48-2.94-.31-2.41-.33-4.87-.47-7.31-.05-.86-.12-1.72-.14-2.58-.08-3.4.67-6.71,1.11-10.06.6-4.57,2.16-8.83,4.03-13,.6-1.35,1.4-2.62,2.03-3.96.87-1.82,1.34-3.75,1.16-5.79l.22-.03Z"/>
  <path id="outline" d="m34.21,7.73c1.51.11,3.02.21,4.53.35.84.07,1.87,1.18,2,2.09.25,1.79-.03,2.24-1.97,2.9-.38.13-.48.26-.49.63-.03,2.4-.12,4.79-.11,7.19,0,.54.27,1.09.49,1.6,1.56,3.54,3.22,7.04,4.69,10.62,1.29,3.15,2.04,6.48,2.42,9.87.29,2.6.56,5.2.71,7.81.17,2.91.24,5.83.29,8.75.03,1.55-.12,3.11-.12,4.67,0,.98-.68,1.44-1.32,1.9-1.36.97-3.01,1.22-4.58,1.58-2.67.61-5.38,1.13-8.11.85-2.4-.25-4.84-.51-6.96-1.94-.79-.54-.79-1.34-.88-2.04-.25-2.03-.36-4.08-.46-6.12-.1-2.03-.23-4.08-.12-6.1.12-2.25.42-4.49.75-6.71.28-1.87.6-3.74,1.11-5.55.96-3.41,2.11-6.77,3.73-9.94.76-1.49,1.61-2.94,2.26-4.48,1-2.39.92-4.93.63-7.45-.11-.96-.24-1.93-.46-2.87-.1-.46-.34-.94-.66-1.28-.47-.49-1.11-.83-1.6-1.3-.25-.24-.38-.65-.47-1-.58-2.05.85-3.92,2.98-3.93.58,0,1.15,0,1.73,0,0-.02,0-.03,0-.05Zm.03,13.34l-.22.03c.18,2.05-.29,3.97-1.16,5.79-.64,1.34-1.43,2.61-2.03,3.96-1.86,4.17-3.42,8.43-4.03,13-.44,3.35-1.19,6.66-1.11,10.06.02.86.09,1.72.14,2.58.14,2.44.16,4.89.47,7.31.31,2.42.29,2.26,2.48,2.94,3.71,1.14,7.44.88,11.16.05,1.49-.34,2.95-.81,4.4-1.3.27-.09.58-.54.6-.84.16-2.63.33-5.26.34-7.9,0-2.44-.21-4.88-.3-7.32-.13-3.73-.68-7.4-1.47-11.03-.92-4.22-2.64-8.16-4.26-12.13-.39-.96-.85-1.86-1.61-2.6-.25-.25-.37-.73-.38-1.1-.04-1.65-.05-3.3,0-4.95.03-1.29.16-2.58.24-3.87.05-.88.52-1.39,1.33-1.68,1.13-.41,1.43-1.17.84-2.19-.39-.68-.93-1.2-1.83-1.16-1.84.08-3.69.12-5.53.19-.23,0-.49.07-.68.19-1.28.83-1.27,3.15.07,3.88.94.51,1.44,1.28,1.62,2.24.36,1.95.63,3.91.94,5.87Z"/>
</svg>