<?xml version="1.0" encoding="UTF-8"?>
<svg id="Layer_1" data-name="Layer 1" xmlns="http://www.w3.org/2000/svg" viewBox="0 0 72 72">
  <defs>
    <style>
      .fill {
        fill: var(--color);
      }
    </style>
  </defs>
  <path id="background" class="bg" d="m0,72V0h72v72H0Zm21.57-18.95c0,2.55.59,4.99,1.66,7.3.77,1.66,1.88,3.05,3.73,3.67,2.08.7,4.23,1.08,6.41,1.11,2.84.04,5.58-.51,8.01-2.09,1.39-.9,2.79-1.83,3.57-3.35,1.6-3.11,1.97-6.41,1.39-9.85-.38-2.25-1.37-4.27-2.27-6.33-.62-1.42-1.18-2.87-1.59-4.36-.3-1.08-.32-2.16.47-3.22.6-.81.91-1.89,1.13-2.9.24-1.11.3-2.28.31-3.42.02-2.23-.64-4.26-1.82-6.18-1.25-2.03-2.57-3.96-4.76-5.11-.22-.12-.4-.5-.43-.77-.07-.62-.06-1.25-.02-1.87.05-.78.39-1.07,1.18-1.12.94-.07,1.68-.6,1.84-1.33.4-1.79-.34-2.76-2.21-2.9-.31-.02-.62.01-.94,0-1.26-.08-2.53-.16-3.79-.28-1.31-.12-2.62-.33-3.92.11-1.01.34-1.36.87-1.33,2.09.02,1.18.29,1.52,1.37,1.81.16.04.32.09.48.16,1.2.52,1.94,2.58,1.19,3.45-1.16,1.33-2.4,2.59-3.56,3.92-.79.92-1.62,1.84-2.2,2.89-1.44,2.59-1.9,5.4-1.44,8.34.26,1.66.47,3.34,1.82,4.58.17.16.27.47.27.72.02.74.03,1.49-.04,2.22-.13,1.29-.96,2.28-1.63,3.31-1.86,2.86-2.99,5.93-2.89,9.39Z"/>
  <path id="fill" class="fill" d="m34.04,64.31c-1.75-.31-3.51-.59-5.25-.93-2.2-.42-3.62-1.79-4.49-3.81-1.7-3.93-1.96-7.95-.5-11.98.51-1.4,1.25-2.75,2.06-4,1.07-1.63,1.17-3.4,1.08-5.21-.03-.72-.26-1.44-.43-2.16-.05-.2-.13-.48-.29-.56-.86-.46-.84-1.33-.99-2.09-.55-2.84-.37-5.63.94-8.25.56-1.12,1.25-2.21,2.07-3.16,1.23-1.43,2.66-2.67,3.67-4.3.77-1.24-.06-3.73-1.48-4.06-.14-.03-.28-.08-.42-.11-.94-.17-1.11-.39-1.21-1.33-.18-1.71.7-2.07,2.65-1.94,1.71.11,3.41.35,5.11.54.73.08,1.46.21,2.2.26.49.03.62.34.67.69.05.4.05.82,0,1.22-.02.18-.16.41-.31.51-.49.3-1.03.53-1.53.83-.67.4-.78,1.09-.89,1.78-.26,1.6.4,2.68,1.74,3.54,1.4.9,2.39,2.17,2.91,3.79.08.25.47.37.64.61.82,1.17,1.21,2.51,1.5,3.9.28,1.36,0,2.65-.26,3.96-.17.88-.27,1.77-.53,2.62-.16.53-.49,1.04-.87,1.46-.54.59-.38,1.29-.41,1.94-.08,1.7.27,3.32.99,4.89.93,2.03,1.88,4.08,2.5,6.21.99,3.37.6,6.73-.9,9.9-.82,1.73-2.37,2.78-3.98,3.7-1.71.98-3.98,1.46-5.98,1.37-.01.06-.02.12-.03.18Z"/>
  <path id="outline" d="m21.57,53.05c-.1-3.46,1.03-6.53,2.89-9.39.67-1.03,1.5-2.02,1.63-3.31.07-.74.07-1.48.04-2.22,0-.25-.1-.56-.27-.72-1.35-1.24-1.56-2.92-1.82-4.58-.46-2.94,0-5.75,1.44-8.34.58-1.05,1.41-1.97,2.2-2.89,1.15-1.34,2.4-2.59,3.56-3.92.75-.87.01-2.93-1.19-3.45-.15-.07-.31-.12-.48-.16-1.09-.29-1.35-.63-1.37-1.81-.02-1.22.32-1.75,1.33-2.09,1.3-.44,2.6-.23,3.92-.11,1.26.11,2.52.19,3.79.28.31.02.63-.01.94,0,1.88.14,2.62,1.11,2.21,2.9-.16.73-.9,1.26-1.84,1.33-.79.06-1.13.35-1.18,1.12-.04.62-.04,1.25.02,1.87.03.28.2.66.43.77,2.19,1.15,3.51,3.07,4.76,5.11,1.18,1.91,1.84,3.95,1.82,6.18,0,1.14-.07,2.31-.31,3.42-.22,1.01-.53,2.1-1.13,2.9-.8,1.07-.77,2.15-.47,3.22.41,1.49.97,2.94,1.59,4.36.9,2.06,1.89,4.08,2.27,6.33.58,3.43.2,6.74-1.39,9.85-.78,1.52-2.18,2.44-3.57,3.35-2.44,1.58-5.18,2.12-8.01,2.09-2.18-.03-4.33-.41-6.41-1.11-1.85-.62-2.95-2.01-3.73-3.67-1.07-2.3-1.65-4.74-1.66-7.3Zm12.47,11.26c.01-.06.02-.12.03-.18,2,.09,4.27-.38,5.98-1.37,1.61-.92,3.16-1.98,3.98-3.7,1.5-3.17,1.89-6.53.9-9.9-.63-2.13-1.58-4.18-2.5-6.21-.72-1.57-1.07-3.19-.99-4.89.03-.65-.13-1.35.41-1.94.37-.41.71-.93.87-1.46.26-.85.36-1.74.53-2.62.25-1.31.54-2.6.26-3.96-.29-1.39-.68-2.73-1.5-3.9-.17-.24-.56-.36-.64-.61-.53-1.62-1.51-2.89-2.91-3.79-1.33-.85-2-1.94-1.74-3.54.11-.69.22-1.39.89-1.78.5-.29,1.04-.52,1.53-.83.15-.09.29-.33.31-.51.04-.4.05-.82,0-1.22-.05-.36-.18-.67-.67-.69-.74-.04-1.47-.18-2.2-.26-1.7-.19-3.4-.43-5.11-.54-1.95-.12-2.83.23-2.65,1.94.1.94.27,1.16,1.21,1.33.14.03.28.07.42.11,1.42.33,2.26,2.82,1.48,4.06-1.02,1.63-2.44,2.87-3.67,4.3-.82.95-1.5,2.04-2.07,3.16-1.31,2.61-1.49,5.41-.94,8.25.15.76.14,1.63.99,2.09.15.08.24.36.29.56.17.71.39,1.43.43,2.16.08,1.82-.02,3.59-1.08,5.21-.82,1.25-1.56,2.6-2.06,4-1.46,4.04-1.19,8.05.5,11.98.87,2.02,2.29,3.39,4.49,3.81,1.75.34,3.5.62,5.25.93Z"/>
</svg>