<?xml version="1.0" encoding="UTF-8"?>
<svg id="Layer_1" data-name="Layer 1" xmlns="http://www.w3.org/2000/svg" viewBox="0 0 72 72">
  <defs>
    <style>
      .fill {
        fill: var(--color);
      }
    </style>
  </defs>
  <path id="background" class="bg" d="m0,72C0,48,0,24,0,0c24,0,48,0,72,0,0,24,0,48,0,72-24,0-48,0-72,0ZM38.02,16.31c.32-.06.48-.14.59-.09,1.07.48,1.86-.17,2.61-.71.39-.28.78-.88.78-1.34.01-.74-.19-1.52-.51-2.19-.18-.39-.73-.75-1.17-.83-.88-.18-1.8-.2-2.71-.21-.86-.01-1.72.06-2.58.1-.86.04-1.73.04-2.58.18-.46.08-1.02.32-1.29.67-1.19,1.5-.32,3.82,1.52,4.13.48.08.7.3.89.69.53,1.1,1.1,2.18,1.64,3.27.75,1.51.64,2.99-.37,4.31-.62.81-1.41,1.49-2.13,2.23-1.66,1.69-3.39,3.31-4.95,5.09-.83.95-1.34,2.19-2.05,3.26-.78,1.18-.87,2.45-.34,3.69.44,1.03.9,2.09,1.85,2.84.44.35.75.87,1.08,1.34,1.47,2.1,1.63,4.29.36,6.54-1.31,2.31-2.63,4.62-3.98,6.91-1.18,2.01-2.32,4.03-2.94,6.29-.44,1.61.3,2.9,1.92,3.26,1.21.27,2.44.49,3.68.57,2.76.18,5.54.33,8.31.34,4.11.03,8.22-.04,12.32-.13,2.26-.05,4.54-.14,6.72-.86.49-.16.95-.44,1.36-.74.18-.13.3-.47.28-.7-.11-1.31-.55-2.51-1.35-3.58-2.68-3.6-5.77-6.84-8.9-10.05-.27-.27-.51-.57-.77-.86-.76-.88-1.52-1.77-2.29-2.65-1.24-1.42-2.55-2.79-3.72-4.27-1.02-1.3-.91-1.74.23-2.9.45-.46.88-.94,1.29-1.45,1.44-1.8,2.76-3.68,3.67-5.81.79-1.84.86-3.65-.19-5.44-1.24-2.11-2.42-4.24-3.64-6.35-.86-1.49-1.74-2.96-2.68-4.54Z"/>
  <path id="fill" class="fill" d="m44.81,65.88c-.86,0-1.73.04-2.59-.02-.43-.03-.84-.32-1.27-.37-.64-.07-1.29-.02-1.94-.03-2.51-.04-5.02-.03-7.52-.15-2.19-.11-4.38-.35-6.57-.6-.79-.09-1.71-.26-1.85-1.28-.07-.47.09-.99.25-1.46.9-2.65,2.45-4.98,3.85-7.37,1.02-1.73,1.97-3.51,2.85-5.32,1.1-2.27.68-4.51-.58-6.57-.62-1.01-1.43-1.92-2.28-2.76-.93-.92-1.19-2.05-1.05-3.22.2-1.63,1.04-2.96,2.33-4.03.67-.56,1.14-1.35,1.76-1.98.93-.96,1.91-1.88,2.88-2.8,1.25-1.19,2.63-2.27,3.36-3.89.59-1.3.61-2.67.01-3.96-.68-1.45-1.46-2.86-2.21-4.28-.25-.48-.55-.81-1.2-.58-.25.09-.63-.02-.88-.16-.85-.46-.72-1.29-.65-2.04.06-.65.28-1.24,1.08-1.3,2.09-.15,4.19-.44,6.29-.05.14.03.28.06.42.07.95.09,1.55.55,1.66,1.28.16,1.07-.21,1.88-1.14,2.23-.53.2-1.11.29-1.67.39-1,.18-1.23.51-.74,1.42.97,1.79,2.04,3.53,3.03,5.31,1.12,2.01,2.2,4.04,3.29,6.06.58,1.08.5,2.16-.03,3.24-1.41,2.9-3.25,5.52-5.34,7.97-.94,1.1-1.11,2.08-.38,3.35,1.13,1.98,2.7,3.6,4.37,5.12,2.25,2.05,4.29,4.29,6.31,6.55,1.76,1.96,3.49,3.95,5.17,5.97.61.73,1.11,1.56,1.58,2.39.46.8.22,1.44-.68,1.76-.73.26-1.5.5-2.27.57-2.55.24-5.1.4-7.66.58,0-.02,0-.03,0-.05Z"/>
  <path id="outline" d="m38.02,16.31c.93,1.58,1.82,3.05,2.68,4.54,1.22,2.11,2.41,4.25,3.64,6.35,1.05,1.79.98,3.6.19,5.44-.91,2.13-2.24,4.01-3.67,5.81-.4.5-.84.99-1.29,1.45-1.13,1.16-1.25,1.61-.23,2.9,1.16,1.48,2.47,2.85,3.72,4.27.77.88,1.52,1.77,2.29,2.65.25.29.5.58.77.86,3.13,3.21,6.22,6.45,8.9,10.05.79,1.07,1.24,2.26,1.35,3.58.02.23-.11.57-.28.7-.41.3-.88.58-1.36.74-2.18.72-4.46.81-6.72.86-4.11.09-8.21.16-12.32.13-2.77-.02-5.54-.17-8.31-.34-1.23-.08-2.47-.3-3.68-.57-1.62-.36-2.36-1.64-1.92-3.26.61-2.26,1.76-4.29,2.94-6.29,1.35-2.29,2.67-4.59,3.98-6.91,1.27-2.25,1.1-4.44-.36-6.54-.33-.47-.64-.99-1.08-1.34-.95-.75-1.4-1.81-1.85-2.84-.53-1.23-.45-2.5.34-3.69.71-1.07,1.21-2.31,2.05-3.26,1.56-1.78,3.29-3.4,4.95-5.09.72-.73,1.51-1.42,2.13-2.23,1.01-1.32,1.12-2.8.37-4.31-.54-1.09-1.1-2.18-1.64-3.27-.19-.39-.42-.61-.89-.69-1.85-.32-2.71-2.63-1.52-4.13.28-.35.83-.59,1.29-.67.84-.14,1.72-.14,2.58-.18.86-.04,1.72-.12,2.58-.1.91.01,1.83.03,2.71.21.44.09.98.45,1.17.83.31.67.52,1.46.51,2.19,0,.46-.39,1.06-.78,1.34-.75.54-1.55,1.19-2.61.71-.11-.05-.27.04-.59.09Zm6.78,49.57s0,.03,0,.05c2.55-.19,5.11-.35,7.66-.58.77-.07,1.54-.31,2.27-.57.89-.32,1.14-.95.68-1.76-.47-.83-.97-1.66-1.58-2.39-1.69-2.02-3.42-4.01-5.17-5.97-2.02-2.26-4.06-4.51-6.31-6.55-1.67-1.52-3.24-3.14-4.37-5.12-.72-1.27-.56-2.25.38-3.35,2.09-2.45,3.93-5.07,5.34-7.97.53-1.08.61-2.16.03-3.24-1.09-2.03-2.17-4.05-3.29-6.06-.99-1.78-2.06-3.51-3.03-5.31-.49-.91-.26-1.24.74-1.42.56-.1,1.14-.19,1.67-.39.92-.35,1.3-1.15,1.14-2.23-.11-.74-.71-1.2-1.66-1.28-.14-.01-.28-.04-.42-.07-2.1-.39-4.19-.1-6.29.05-.8.06-1.02.66-1.08,1.3-.07.75-.19,1.59.65,2.04.26.14.64.25.88.16.65-.23.95.1,1.2.58.75,1.42,1.53,2.83,2.21,4.28.6,1.29.58,2.66-.01,3.96-.74,1.62-2.12,2.7-3.36,3.89-.97.93-1.95,1.84-2.88,2.8-.62.63-1.08,1.43-1.76,1.98-1.29,1.07-2.13,2.4-2.33,4.03-.14,1.17.12,2.29,1.05,3.22.84.84,1.66,1.75,2.28,2.76,1.26,2.06,1.68,4.3.58,6.57-.87,1.81-1.83,3.58-2.85,5.32-1.41,2.4-2.95,4.72-3.85,7.37-.16.46-.31.99-.25,1.46.14,1.02,1.06,1.19,1.85,1.28,2.18.25,4.37.49,6.57.6,2.5.13,5.02.11,7.52.15.65.01,1.3-.04,1.94.03.43.05.84.34,1.27.37.86.06,1.73.02,2.59.02Z"/>
</svg>