<?xml version="1.0" encoding="UTF-8"?>
<svg id="Layer_1" data-name="Layer 1" xmlns="http://www.w3.org/2000/svg" viewBox="0 0 72 72">
  <defs>
    <style>
      .fill {
        fill: var(--color);
      }
    </style>
  </defs>
  <path id="background" class="bg" d="m0,0h72v72H0V0Zm33.51,15.13c-.09.21-.14.34-.2.47-1.62,3.99-3.24,7.98-4.87,11.96-2.07,5.06-4.11,10.12-6.23,15.15-.41.98-.5,1.82-.06,2.8,2.02,4.52,4.62,8.71,7.21,12.91.39.63.99.94,1.72,1.01,1.33.14,2.65.39,3.98.43,1.79.06,3.6.12,5.37-.07,1.91-.21,3.8-.69,5.67-1.13.44-.1.96-.43,1.18-.81.87-1.51,1.73-3.04,2.41-4.64,1.24-2.92,2.33-5.92,3.53-8.86.51-1.26.15-2.3-.46-3.39-1.46-2.6-2.88-5.23-4.31-7.84-.53-.97-1.06-1.93-1.56-2.91-1.53-3-3.09-6-4.57-9.03-1.11-2.27-2.12-4.59-3.18-6.92.4-.14.89-.31,1.38-.48.58-.2.9-.63.84-1.2-.14-1.36-.57-2.11-1.89-2.2-.38-.03-.77-.09-1.15-.09-1.89.04-3.78.09-5.67.17-1.21.05-1.82.48-2.07,1.33-.52,1.72.45,3.14,2.25,3.27.19.01.38.03.66.06Z"/>
  <path id="fill" class="fill" d="m37.55,13.98c.28.37.63.71.82,1.12,1.58,3.53,3.01,7.14,4.71,10.61,1.57,3.19,3.44,6.24,5.17,9.36.32.58.6,1.18.94,1.75,1.09,1.82,2.2,3.63,3.29,5.45.09.15.2.35.16.48-.54,1.61-1.03,3.25-1.67,4.82-1.37,3.35-2.68,6.72-4.54,9.85-.24.4-.47.6-.96.68-1.3.22-2.57.62-3.88.79-1.51.19-3.04.34-4.56.28-2.01-.07-4.02-.35-6.02-.57-.22-.02-.5-.21-.61-.4-1.62-2.78-3.24-5.55-4.8-8.36-.96-1.73-1.83-3.52-2.73-5.3-.09-.17-.14-.44-.08-.6.28-.72.62-1.41.93-2.11.54-1.21,1.12-2.39,1.6-3.62,1.44-3.68,2.81-7.38,4.25-11.06,1.34-3.41,2.73-6.81,4.1-10.21.13-.33.25-.67.36-1.01.31-.92.02-1.39-.92-1.54-.3-.05-.63-.06-.9-.19-.38-.17-.81-.38-.55-.95.03-.06.02-.14.02-.21-.11-1.65-.09-1.64,1.54-1.68.68-.01,1.36-.19,2.04-.23,1.43-.08,2.85-.17,4.28-.17.63,0,1.16.94,1.07,1.69-.05.41-.94.85-1.54.85-.48,0-.96.11-1.43.18-.03.1-.06.19-.1.29Z"/>
  <path id="outline" d="m33.51,15.13c-.29-.03-.48-.05-.66-.06-1.8-.14-2.77-1.55-2.25-3.27.26-.85.87-1.28,2.07-1.33,1.89-.08,3.78-.13,5.67-.17.38,0,.76.06,1.15.09,1.31.09,1.75.84,1.89,2.2.06.57-.26,1-.84,1.2-.49.17-.98.34-1.38.48,1.06,2.33,2.07,4.65,3.18,6.92,1.48,3.03,3.03,6.03,4.57,9.03.5.98,1.04,1.94,1.56,2.91,1.43,2.62,2.85,5.24,4.31,7.84.61,1.09.98,2.13.46,3.39-1.2,2.94-2.29,5.93-3.53,8.86-.68,1.6-1.54,3.13-2.41,4.64-.22.38-.74.71-1.18.81-1.88.44-3.76.92-5.67,1.13-1.77.2-3.58.14-5.37.07-1.33-.05-2.66-.29-3.98-.43-.73-.08-1.33-.39-1.72-1.01-2.59-4.2-5.19-8.39-7.21-12.91-.44-.98-.36-1.82.06-2.8,2.12-5.03,4.17-10.1,6.23-15.15,1.63-3.99,3.25-7.97,4.87-11.96.05-.13.11-.26.2-.47Zm4.03-1.14c.03-.1.06-.19.1-.29.48-.06.96-.18,1.43-.18.6,0,1.49-.44,1.54-.85.09-.75-.44-1.69-1.07-1.69-1.43,0-2.85.09-4.28.17-.68.04-1.36.21-2.04.23-1.63.03-1.65.02-1.54,1.68,0,.07,0,.15-.02.21-.26.58.18.78.55.95.27.13.59.14.9.19.95.15,1.23.62.92,1.54-.11.34-.23.68-.36,1.01-1.37,3.4-2.76,6.8-4.1,10.21-1.44,3.68-2.81,7.38-4.25,11.06-.48,1.23-1.06,2.42-1.6,3.62-.31.7-.65,1.4-.93,2.11-.07.17-.01.43.08.6.9,1.77,1.76,3.56,2.73,5.3,1.56,2.81,3.19,5.59,4.8,8.36.11.19.39.38.61.4,2.01.22,4.01.5,6.02.57,1.51.06,3.05-.09,4.56-.28,1.3-.17,2.58-.57,3.88-.79.49-.08.72-.28.96-.68,1.85-3.13,3.17-6.5,4.54-9.85.64-1.57,1.13-3.2,1.67-4.82.04-.13-.07-.34-.16-.48-1.09-1.82-2.2-3.63-3.29-5.45-.34-.57-.62-1.17-.94-1.75-1.73-3.11-3.6-6.16-5.17-9.36-1.71-3.47-3.14-7.08-4.71-10.61-.18-.41-.54-.75-.82-1.12Z"/>
</svg>