<?xml version="1.0" encoding="UTF-8"?>
<svg id="Layer_1" data-name="Layer 1" xmlns="http://www.w3.org/2000/svg" viewBox="0 0 72 72">
  <defs>
    <style>
      .fill {
        fill: var(--color);
      }
    </style>
  </defs>
  <path id="background" class="bg" d="m0,72C0,48,0,24,0,0c24,0,48,0,72,0,0,24,0,48,0,72-24,0-48,0-72,0ZM39.38,11.29c.92.27,2.34-.25,2.62-.89.37-.81-.02-2.81-.64-3.46-.61-.63-1.42-.59-2.2-.71-2.99-.46-5.99-.66-9-.24-1.03.14-1.45.48-1.58,1.52-.07.58-.06,1.19,0,1.78.13,1.08.43,1.42,1.51,1.58,1.19.18,1.91.81,2.15,1.98.51,2.49.26,4.92-.75,7.23-.94,2.16-2.73,3.54-4.71,4.67-1.64.94-3.06,2.14-4.23,3.61-1.54,1.94-1.83,4.3-1.99,6.64-.19,2.67-.26,5.36-.27,8.04-.02,3.48,0,6.96.13,10.43.06,1.47.34,2.95.69,4.38.37,1.5,1.3,2.61,2.86,3.05,2.07.59,4.18,1.04,6.34,1.06,2.85.03,5.71,0,8.56,0,.29,0,.57-.02.86-.05,1.52-.17,3.03-.45,4.55-.49,2.29-.07,4.52-.43,6.7-1.06.57-.17,1.32-.45,1.57-.91.68-1.25,1.39-2.55,1.36-4.04-.04-2.08-.17-4.16-.29-6.24-.16-2.65-.35-5.29-.56-7.94-.11-1.43-.26-2.85-.44-4.27-.32-2.61-.73-5.2-1.72-7.67-1.12-2.8-3.17-4.73-5.76-6.14-1.09-.6-2.21-1.14-3.24-1.83-.6-.4-1.19-.95-1.53-1.58-1.2-2.25-1.67-4.67-1.39-7.22.05-.41.25-.81.39-1.26Z"/>
  <path id="fill" class="fill" d="m21.48,53.41c0-4.34-.03-8.66.01-12.98.02-2.32.1-4.65.28-6.97.2-2.71,1.27-5.02,3.5-6.69.3-.22.45-.66.76-.85,1.16-.72,2.42-1.29,3.52-2.1,1.97-1.45,3.05-3.47,3.44-5.89.26-1.64.33-3.27,0-4.91-.31-1.55-.87-2.22-2.42-2.49-1.59-.28-1.36-.61-1.61-1.83,0-.05,0-.1,0-.14,0-1.82.19-2.25,2.13-2.24,1.05,0,2.1-.17,3.15-.11,1.49.08,2.98.3,4.46.46.4.04.8.09,1.19.19.98.26,1.37.77,1.44,1.77.01.21.03.43.07.64.18,1.02-.38,1.61-1.39,1.33-.71-.2-1.12.07-1.37.65-.56,1.32-.73,2.72-.51,4.12.18,1.16.57,2.29.88,3.43.42,1.53,1.39,2.65,2.74,3.44,1.32.77,2.72,1.4,3.98,2.25,2.86,1.94,4.55,4.67,5.1,8.09.18,1.12.42,2.24.55,3.36.15,1.43.2,2.86.32,4.3.18,2.28.38,4.56.57,6.85.15,1.73.29,3.47.44,5.2.08.9.23,1.79.28,2.69.08,1.46-.47,2.79-1.24,3.96-.3.46-1.16.69-1.8.78-2.33.31-4.68.5-7.01.75-1.37.15-2.73.33-4.1.49-.24.03-.47.07-.71.07-1.87,0-3.73.03-5.6,0-2.5-.04-4.99-.28-7.43-.88-1.48-.36-2.5-1.3-2.86-2.78-.32-1.31-.51-2.65-.75-3.97Z"/>
  <path id="outline" d="m39.38,11.29c-.15.46-.35.85-.39,1.26-.28,2.54.19,4.97,1.39,7.22.33.62.93,1.18,1.53,1.58,1.03.69,2.15,1.23,3.24,1.83,2.59,1.42,4.64,3.34,5.76,6.14.99,2.47,1.39,5.06,1.72,7.67.18,1.42.32,2.84.44,4.27.21,2.65.4,5.29.56,7.94.13,2.08.25,4.16.29,6.24.03,1.48-.67,2.79-1.36,4.04-.25.46-.99.74-1.57.91-2.19.63-4.42.99-6.7,1.06-1.52.05-3.03.33-4.55.49-.28.03-.57.05-.86.05-2.85,0-5.71.03-8.56,0-2.16-.03-4.27-.47-6.34-1.06-1.55-.44-2.49-1.56-2.86-3.05-.35-1.43-.64-2.91-.69-4.38-.13-3.47-.15-6.95-.13-10.43.01-2.68.08-5.37.27-8.04.17-2.34.46-4.7,1.99-6.64,1.17-1.47,2.59-2.67,4.23-3.61,1.98-1.13,3.77-2.52,4.71-4.67,1.01-2.31,1.26-4.74.75-7.23-.24-1.17-.96-1.8-2.15-1.98-1.08-.16-1.38-.5-1.51-1.58-.07-.59-.08-1.19,0-1.78.13-1.05.55-1.38,1.58-1.52,3.02-.43,6.01-.22,9,.24.78.12,1.58.07,2.2.71.63.65,1.01,2.65.64,3.46-.29.63-1.71,1.15-2.62.89Zm-17.9,42.12c.24,1.32.42,2.67.75,3.97.37,1.48,1.39,2.42,2.86,2.78,2.44.6,4.92.83,7.43.88,1.87.03,3.73,0,5.6,0,.24,0,.47-.05.71-.07,1.37-.17,2.73-.35,4.1-.49,2.34-.25,4.68-.45,7.01-.75.64-.08,1.5-.32,1.8-.78.76-1.16,1.31-2.5,1.24-3.96-.05-.9-.2-1.79-.28-2.69-.16-1.73-.3-3.47-.44-5.2-.19-2.28-.39-4.56-.57-6.85-.11-1.43-.16-2.87-.32-4.3-.12-1.13-.37-2.24-.55-3.36-.55-3.43-2.24-6.16-5.1-8.09-1.26-.85-2.66-1.48-3.98-2.25-1.35-.79-2.32-1.91-2.74-3.44-.31-1.14-.7-2.27-.88-3.43-.21-1.4-.05-2.8.51-4.12.25-.58.66-.85,1.37-.65,1.01.28,1.57-.31,1.39-1.33-.04-.21-.06-.43-.07-.64-.07-1.01-.46-1.52-1.44-1.77-.39-.1-.79-.15-1.19-.19-1.49-.17-2.97-.38-4.46-.46-1.04-.06-2.1.12-3.15.11-1.94,0-2.13.42-2.13,2.24,0,.05,0,.1,0,.14.26,1.22.02,1.55,1.61,1.83,1.55.27,2.11.94,2.42,2.49.33,1.64.26,3.27,0,4.91-.38,2.42-1.47,4.44-3.44,5.89-1.09.8-2.36,1.37-3.52,2.1-.31.19-.46.63-.76.85-2.24,1.68-3.3,3.98-3.5,6.69-.17,2.32-.25,4.64-.28,6.97-.04,4.32-.01,8.63-.01,12.98Z"/>
</svg>