<?xml version="1.0" encoding="utf-8"?>
<!-- Generator: Adobe Illustrator 27.5.0, SVG Export Plug-In . SVG Version: 6.00 Build 0)  -->
<svg version="1.1" id="Layer_1" xmlns="http://www.w3.org/2000/svg" xmlns:xlink="http://www.w3.org/1999/xlink" x="0px" y="0px"
	 viewBox="0 0 144 144" style="enable-background:new 0 0 144 144;" xml:space="preserve">
<style type="text/css">
	.st0{fill:#44073C;}
</style>
<g>
	<path d="M23.48,37.24C33,47.28,44.59,55.07,56.08,62.78c3.98,2.67,7.97,5.35,11.95,8.02"/>
	<path class="st0" d="M17.55,40.1c13.21,13.82,29.72,23.87,45.49,34.46c2.72,1.82,6.8,1.12,9.3-0.78c2.15-1.63,3.4-4.91,0.69-6.73
		C58.05,57,41.97,47.51,29.42,34.38c-2.27-2.38-5.97-2.36-8.81-0.98C18.6,34.37,15.26,37.7,17.55,40.1L17.55,40.1z"/>
</g>
<g>
	<path d="M22.95,60.43c15.21,11.45,30.42,22.9,45.62,34.35"/>
	<path class="st0" d="M16.93,62.99c15.21,11.45,30.42,22.9,45.62,34.35c2.43,1.83,5.94,1.32,8.6,0.18c1.22-0.52,5.85-3.48,3.43-5.3
		c-15.21-11.45-30.42-22.9-45.62-34.35c-2.43-1.83-5.94-1.32-8.6-0.18C19.14,58.21,14.51,61.17,16.93,62.99L16.93,62.99z"/>
</g>
<g>
	<path d="M26.57,85.6c14.06,10.43,28.13,20.86,42.19,31.29"/>
	<path class="st0" d="M21.56,89.3c14.06,10.43,28.13,20.86,42.19,31.29c2.58,1.92,6.91,0.97,9.29-0.81
		c2.24-1.68,3.31-4.67,0.73-6.58C59.71,102.76,45.64,92.33,31.58,81.9c-2.58-1.92-6.91-0.97-9.29,0.81
		C20.05,84.4,18.99,87.39,21.56,89.3L21.56,89.3z"/>
</g>
<g>
	<path d="M121.15,25.39c-9.52,10.04-21.11,17.84-32.6,25.55c-3.98,2.67-7.97,5.35-11.95,8.02"/>
	<path class="st0" d="M127.08,28.25C113.87,42.07,97.37,52.12,81.6,62.7c-2.72,1.82-6.8,1.12-9.3-0.78
		c-2.15-1.63-3.4-4.91-0.69-6.73c14.98-10.05,31.06-19.54,43.61-32.67c2.27-2.38,5.97-2.36,8.81-0.98
		C126.03,22.52,129.37,25.85,127.08,28.25L127.08,28.25z"/>
</g>
<g>
	<path d="M124.63,49.53C109.42,60.97,94.21,72.42,79,83.87"/>
	<path class="st0" d="M130.64,52.08c-15.21,11.45-30.42,22.9-45.62,34.35c-2.43,1.83-5.94,1.32-8.6,0.18
		c-1.22-0.52-5.85-3.48-3.43-5.3c15.21-11.45,30.42-22.9,45.62-34.35c2.43-1.83,5.94-1.32,8.6-0.18
		C128.43,47.31,133.06,50.26,130.64,52.08L130.64,52.08z"/>
</g>
<g>
	<path d="M125.3,73.48c-14.06,10.43-28.13,20.86-42.19,31.29"/>
	<path class="st0" d="M130.31,77.18c-14.06,10.43-28.13,20.86-42.19,31.29c-2.58,1.92-6.91,0.97-9.29-0.81
		c-2.24-1.68-3.31-4.67-0.73-6.58c14.06-10.43,28.13-20.86,42.19-31.29c2.58-1.92,6.91-0.97,9.29,0.81
		C131.83,72.28,132.89,75.27,130.31,77.18L130.31,77.18z"/>
</g>
</svg>
