<?xml version="1.0" encoding="utf-8"?>
<!-- Generator: Adobe Illustrator 27.5.0, SVG Export Plug-In . SVG Version: 6.00 Build 0)  -->
<svg version="1.1" id="Layer_1" xmlns="http://www.w3.org/2000/svg" xmlns:xlink="http://www.w3.org/1999/xlink" x="0px" y="0px"
	 viewBox="0 0 144 144" style="enable-background:new 0 0 144 144;" xml:space="preserve">
<style type="text/css">
	.st0{fill:none;stroke:#4B479D;stroke-linecap:square;}
	.st1{fill:none;stroke:#4B479D;stroke-linecap:round;}
</style>
<line class="st0" x1="49.81" y1="52.49" x2="43.88" y2="63.86"/>
<line class="st0" x1="75.35" y1="89.88" x2="89.23" y2="93.64"/>
<line class="st0" x1="77.32" y1="84.48" x2="91.52" y2="86.77"/>
<line class="st0" x1="63.58" y1="121.58" x2="68.62" y2="111.96"/>
<line class="st0" x1="57.17" y1="120.67" x2="62.71" y2="110.06"/>
<line class="st0" x1="92.9" y1="111.96" x2="84.19" y2="118.37"/>
<line class="st0" x1="95.19" y1="116.54" x2="88.32" y2="123.87"/>
<line class="st0" x1="100.01" y1="95.11" x2="101.66" y2="107.84"/>
<line class="st0" x1="92.87" y1="96.76" x2="95.7" y2="108.76"/>
<line class="st0" x1="34.67" y1="125.1" x2="42.51" y2="135.78"/>
<line class="st0" x1="39.85" y1="119.92" x2="47.7" y2="130.6"/>
<line class="st0" x1="46.22" y1="99.39" x2="52.52" y2="110.57"/>
<line class="st0" x1="53.01" y1="96.63" x2="57.85" y2="108.5"/>
<line class="st0" x1="69.08" y1="91.81" x2="59.46" y2="97.3"/>
<line class="st0" x1="73.66" y1="97.76" x2="63.12" y2="101.43"/>
<line class="st0" x1="95.08" y1="124.84" x2="88.32" y2="134.87"/>
<line class="st0" x1="100.1" y1="130.17" x2="90.75" y2="138.96"/>
<line class="st0" x1="105.97" y1="128.4" x2="110.3" y2="138.99"/>
<line class="st0" x1="59.92" y1="127.08" x2="49.48" y2="135.11"/>
<line class="st0" x1="67.25" y1="128.91" x2="54.96" y2="139.98"/>
<line class="st0" x1="48.01" y1="117" x2="48.92" y2="119.29"/>
<line class="st0" x1="77.78" y1="120.67" x2="79.61" y2="122.5"/>
<line class="st0" x1="79.61" y1="125.25" x2="80.53" y2="137.16"/>
<line class="st0" x1="74.57" y1="123.87" x2="71.83" y2="136.24"/>
<line class="st0" x1="106.24" y1="101.88" x2="108.53" y2="100.97"/>
<line class="st0" x1="68.16" y1="102.8" x2="68.62" y2="105.55"/>
<line class="st0" x1="101.14" y1="123.87" x2="103.43" y2="123.87"/>
<line class="st0" x1="70.45" y1="120.21" x2="68.62" y2="123.41"/>
<line class="st0" x1="78.24" y1="96.85" x2="80.53" y2="95.93"/>
<line class="st0" x1="82.34" y1="111.9" x2="74.23" y2="106.92"/>
<line class="st0" x1="87.35" y1="107.51" x2="75.71" y2="102.14"/>
<line class="st0" x1="73.66" y1="112.42" x2="75.95" y2="112.88"/>
<line class="st0" x1="86.08" y1="100.05" x2="88.37" y2="100.51"/>
<line class="st0" x1="42.74" y1="109.67" x2="45.72" y2="108.76"/>
<line class="st0" x1="58.07" y1="25.76" x2="58.31" y2="38.58"/>
<line class="st0" x1="65.4" y1="25.62" x2="64.04" y2="37.75"/>
<line class="st0" x1="88.58" y1="61.09" x2="100.46" y2="65.93"/>
<line class="st0" x1="91.34" y1="54.3" x2="103.22" y2="59.14"/>
<line class="st0" x1="58.31" y1="53.48" x2="67.05" y2="46.8"/>
<line class="st0" x1="52.75" y1="49.79" x2="63.57" y2="42.92"/>
<line class="st0" x1="42.5" y1="86.09" x2="30.09" y2="89.31"/>
<line class="st0" x1="43.88" y1="92.72" x2="31.47" y2="95.94"/>
<line class="st0" x1="44.69" y1="49.1" x2="38.76" y2="60.47"/>
<line class="st0" x1="24.62" y1="28.4" x2="27.07" y2="40.99"/>
<line class="st0" x1="31.81" y1="27" x2="34.26" y2="39.59"/>
<line class="st0" x1="9.65" y1="23.04" x2="20.98" y2="29.05"/>
<line class="st0" x1="15.03" y1="40.5" x2="12.87" y2="51.49"/>
<line class="st0" x1="22.49" y1="40.28" x2="20.06" y2="52.87"/>
<line class="st0" x1="111.89" y1="91.26" x2="116.32" y2="105.09"/>
<line class="st0" x1="119.52" y1="91.35" x2="120.89" y2="103.25"/>
<line class="st0" x1="105.77" y1="77.08" x2="98.44" y2="87.59"/>
<line class="st0" x1="110.81" y1="79.52" x2="107.61" y2="89.52"/>
<line class="st0" x1="57.99" y1="61.2" x2="59.46" y2="73.94"/>
<line class="st0" x1="63.46" y1="59.72" x2="66.57" y2="72.16"/>
<line class="st0" x1="105.37" y1="19.2" x2="93.75" y2="24.63"/>
<line class="st0" x1="108.01" y1="24.47" x2="96.85" y2="31.27"/>
<line class="st0" x1="40.95" y1="33.13" x2="43.88" y2="45.08"/>
<line class="st0" x1="44.77" y1="28.96" x2="50.45" y2="40.46"/>
<line class="st0" x1="77.32" y1="36.38" x2="70.91" y2="47.83"/>
<line class="st0" x1="82.15" y1="38.53" x2="74.91" y2="49.11"/>
<line class="st0" x1="100.23" y1="39.13" x2="88.77" y2="43.71"/>
<line class="st0" x1="101.14" y1="47.37" x2="89.69" y2="47.83"/>
<line class="st0" x1="111.63" y1="42.19" x2="108.53" y2="53.79"/>
<line class="st0" x1="116.62" y1="46.74" x2="110.25" y2="57.88"/>
<line class="st0" x1="113.31" y1="107.67" x2="101.7" y2="113.11"/>
<line class="st0" x1="116.42" y1="114.3" x2="104.81" y2="119.75"/>
<line class="st0" x1="95.19" y1="78.06" x2="87.4" y2="69.36"/>
<line class="st0" x1="90.15" y1="79.44" x2="81.32" y2="71.36"/>
<line class="st0" x1="64.55" y1="82.19" x2="71.83" y2="73.03"/>
<line class="st0" x1="68.95" y1="88.05" x2="76.86" y2="77.15"/>
<line class="st0" x1="49.7" y1="68.03" x2="36.95" y2="66.66"/>
<line class="st0" x1="48.01" y1="73.94" x2="35.47" y2="71.25"/>
<line class="st0" x1="20.98" y1="77.6" x2="31.24" y2="85.3"/>
<line class="st0" x1="25.38" y1="71.74" x2="35.64" y2="79.44"/>
<line class="st0" x1="34.25" y1="100.95" x2="33.21" y2="113.73"/>
<line class="st0" x1="41.14" y1="101.88" x2="39.41" y2="115.48"/>
<line class="st0" x1="45.57" y1="84.16" x2="54.64" y2="93.23"/>
<line class="st0" x1="50.75" y1="78.98" x2="59.82" y2="88.05"/>
<line class="st0" x1="24.19" y1="95.01" x2="15.82" y2="102.72"/>
<line class="st0" x1="28.36" y1="99.51" x2="18.23" y2="107.38"/>
<line class="st0" x1="111.44" y1="37" x2="124.22" y2="35.9"/>
<line class="st0" x1="111.68" y1="30.88" x2="123.59" y2="28.59"/>
<line class="st0" x1="75.03" y1="52.87" x2="76.41" y2="65.7"/>
<line class="st0" x1="82.36" y1="52.87" x2="81.45" y2="62.95"/>
<line class="st0" x1="30.53" y1="12.3" x2="25.28" y2="21.41"/>
<line class="st0" x1="20.45" y1="69.32" x2="30.99" y2="62.01"/>
<line class="st0" x1="16.27" y1="63.29" x2="26.82" y2="55.99"/>
<line class="st0" x1="16.19" y1="116.97" x2="24.19" y2="124.79"/>
<line class="st0" x1="20.64" y1="113.91" x2="27.85" y2="120.21"/>
<line class="st0" x1="119.92" y1="51.04" x2="127.84" y2="61.13"/>
<line class="st0" x1="124.78" y1="46.97" x2="132.69" y2="57.07"/>
<line class="st0" x1="115.79" y1="62.72" x2="103.38" y2="65.94"/>
<line class="st0" x1="117.63" y1="69.82" x2="105.22" y2="73.04"/>
<line class="st0" x1="37.47" y1="46" x2="24.81" y2="45.21"/>
<line class="st0" x1="38.39" y1="51.04" x2="25.64" y2="52.49"/>
<line class="st0" x1="119.03" y1="112.33" x2="126.23" y2="122.95"/>
<line class="st0" x1="125.09" y1="108.22" x2="132.29" y2="118.83"/>
<line class="st0" x1="125.42" y1="66.61" x2="118.62" y2="74.56"/>
<line class="st0" x1="131.62" y1="67.54" x2="124.85" y2="78.43"/>
<line class="st0" x1="132.37" y1="123.13" x2="122.25" y2="131"/>
<line class="st0" x1="111.68" y1="126.16" x2="116.72" y2="138.53"/>
<line class="st0" x1="125.77" y1="29.51" x2="137.1" y2="35.52"/>
<line class="st0" x1="38.99" y1="27.62" x2="47.09" y2="22.64"/>
<line class="st0" x1="33.97" y1="23.23" x2="45.62" y2="17.86"/>
<line class="st0" x1="74.8" y1="25.16" x2="83.51" y2="33.86"/>
<line class="st0" x1="80.57" y1="20.64" x2="88.48" y2="30.73"/>
<line class="st0" x1="132.71" y1="82.62" x2="123.13" y2="87.23"/>
<line class="st0" x1="137.9" y1="87.37" x2="126.71" y2="93.62"/>
<line class="st0" x1="63.58" y1="17.14" x2="65.87" y2="17.6"/>
<line class="st0" x1="62.21" y1="22.64" x2="61.75" y2="21.26"/>
<line class="st0" x1="70.91" y1="32.72" x2="72.28" y2="31.8"/>
<line class="st0" x1="91.07" y1="28.59" x2="93.36" y2="28.59"/>
<line class="st0" x1="103.43" y1="36.84" x2="104.81" y2="38.21"/>
<line class="st0" x1="119.92" y1="43.25" x2="121.3" y2="41.88"/>
<line class="st0" x1="122.67" y1="20.81" x2="121.76" y2="22.64"/>
<line class="st0" x1="19.61" y1="35.01" x2="20.98" y2="35.92"/>
<line class="st0" x1="31.06" y1="66.61" x2="31.06" y2="67.99"/>
<line class="st0" x1="18.69" y1="73.94" x2="15.94" y2="73.94"/>
<line class="st0" x1="26.48" y1="110.13" x2="27.39" y2="107.84"/>
<line class="st0" x1="42.05" y1="79.44" x2="40.68" y2="77.61"/>
<line class="st0" x1="98.85" y1="73.03" x2="100.23" y2="71.65"/>
<line class="st0" x1="80.59" y1="78.06" x2="81.5" y2="79.9"/>
<line class="st0" x1="55.34" y1="44.63" x2="56.71" y2="43.25"/>
<line class="st0" x1="51.21" y1="61.12" x2="53.5" y2="62.49"/>
<line class="st0" x1="25.56" y1="128.45" x2="25.1" y2="131.2"/>
<line class="st0" x1="78.7" y1="72.11" x2="77.78" y2="69.82"/>
<line class="st0" x1="132.37" y1="3.57" x2="122.25" y2="11.44"/>
<line class="st0" x1="136.87" y1="9.35" x2="126.75" y2="17.23"/>
<line class="st0" x1="95.08" y1="5.28" x2="88.32" y2="15.31"/>
<line class="st0" x1="100.1" y1="10.62" x2="90.75" y2="19.4"/>
<line class="st0" x1="105.97" y1="8.84" x2="110.3" y2="19.43"/>
<line class="st0" x1="111.68" y1="6.61" x2="116.72" y2="18.97"/>
<line class="st0" x1="59.92" y1="7.52" x2="49.48" y2="15.55"/>
<line class="st0" x1="67.25" y1="9.35" x2="54.96" y2="20.42"/>
<line class="st0" x1="25.56" y1="8.9" x2="25.1" y2="11.64"/>
<line class="st0" x1="34.67" y1="5.55" x2="42.51" y2="16.22"/>
<line class="st0" x1="39.85" y1="0.37" x2="47.7" y2="11.04"/>
<line class="st0" x1="115.86" y1="119.29" x2="116.77" y2="121.58"/>
<line class="st0" x1="79.61" y1="5.69" x2="80.53" y2="17.6"/>
<line class="st0" x1="74.57" y1="4.32" x2="71.83" y2="16.68"/>
<line class="st0" x1="92.44" y1="35.46" x2="93.81" y2="36.84"/>
<line class="st0" x1="68.62" y1="56.99" x2="70.91" y2="57.45"/>
<line class="st0" x1="124.96" y1="103.72" x2="126.34" y2="102.34"/>
<line class="st0" x1="23.73" y1="13.48" x2="17.49" y2="21.41"/>
<line class="st0" x1="121.3" y1="80.35" x2="123.59" y2="80.81"/>
<line class="st0" x1="51.21" y1="28.59" x2="53.05" y2="29.97"/>
<line class="st0" x1="75.03" y1="18.52" x2="75.49" y2="20.81"/>
<line class="st0" x1="28.77" y1="25.84" x2="29.68" y2="23.1"/>
<line class="st1" x1="14.57" y1="17.14" x2="14.57" y2="17.14"/>
<line class="st1" x1="20.06" y1="23.1" x2="20.06" y2="23.1"/>
<line class="st1" x1="32.43" y1="13.02" x2="32.43" y2="13.02"/>
<line class="st1" x1="51.21" y1="25.84" x2="51.21" y2="25.84"/>
<line class="st1" x1="39.76" y1="38.21" x2="39.76" y2="38.21"/>
<line class="st1" x1="35.18" y1="56.08" x2="35.18" y2="56.08"/>
<line class="st1" x1="15.48" y1="54.24" x2="15.48" y2="54.24"/>
<line class="st1" x1="46.17" y1="76.23" x2="46.17" y2="76.23"/>
<line class="st1" x1="55.79" y1="68.45" x2="55.79" y2="68.45"/>
<line class="st1" x1="69.99" y1="52.87" x2="69.99" y2="52.87"/>
<line class="st1" x1="59.92" y1="84.02" x2="59.92" y2="84.02"/>
<line class="st1" x1="68.62" y1="89.06" x2="68.62" y2="89.06"/>
<line class="st1" x1="42.97" y1="96.85" x2="42.97" y2="96.85"/>
<line class="st1" x1="85.57" y1="55.62" x2="85.57" y2="55.62"/>
<line class="st1" x1="85.11" y1="40.04" x2="85.11" y2="40.04"/>
<line class="st1" x1="115.34" y1="24.01" x2="115.34" y2="24.01"/>
<line class="st1" x1="100.68" y1="17.6" x2="100.68" y2="17.6"/>
<line class="st1" x1="120.38" y1="60.2" x2="120.38" y2="60.2"/>
<line class="st1" x1="117.63" y1="80.35" x2="117.63" y2="80.35"/>
<line class="st1" x1="107.56" y1="92.72" x2="107.56" y2="92.72"/>
<line class="st1" x1="113.97" y1="111.05" x2="113.97" y2="111.05"/>
<line class="st1" x1="100.23" y1="119.75" x2="100.23" y2="119.75"/>
<line class="st1" x1="60.83" y1="122.04" x2="60.83" y2="122.04"/>
<line class="st1" x1="80.99" y1="126.62" x2="80.99" y2="126.62"/>
<line class="st1" x1="54.88" y1="39.13" x2="54.88" y2="39.13"/>
<line class="st1" x1="28.31" y1="125.25" x2="28.31" y2="125.25"/>
<line class="st1" x1="9.99" y1="104.63" x2="9.99" y2="104.63"/>
<line class="st1" x1="15.48" y1="91.35" x2="15.48" y2="91.35"/>
<line class="st1" x1="25.1" y1="84.48" x2="25.1" y2="84.48"/>
<line class="st1" x1="26.48" y1="91.35" x2="26.48" y2="91.35"/>
<line class="st1" x1="101.6" y1="51.5" x2="101.6" y2="51.5"/>
<line class="st1" x1="96.56" y1="69.36" x2="96.56" y2="69.36"/>
<line class="st1" x1="93.36" y1="84.48" x2="93.36" y2="84.48"/>
<line class="st1" x1="59.46" y1="55.62" x2="59.46" y2="55.62"/>
<line class="st1" x1="53.05" y1="111.96" x2="53.05" y2="111.96"/>
<line class="st1" x1="53.05" y1="126.62" x2="53.05" y2="126.62"/>
<line class="st1" x1="43.2" y1="119.29" x2="43.2" y2="119.29"/>
<line class="st1" x1="57.4" y1="78.06" x2="57.4" y2="78.06"/>
<line class="st1" x1="120.38" y1="123.87" x2="120.38" y2="123.87"/>
<line class="st1" x1="16.86" y1="112.88" x2="16.86" y2="112.88"/>
<line class="st1" x1="70.45" y1="64.78" x2="70.45" y2="64.78"/>
<line class="st1" x1="69.54" y1="37.3" x2="69.54" y2="37.3"/>
<line class="st1" x1="71.83" y1="24.93" x2="71.83" y2="24.93"/>
<line class="st1" x1="99.77" y1="112.42" x2="99.77" y2="112.42"/>
<line class="st1" x1="98.39" y1="92.26" x2="98.39" y2="92.26"/>
<line class="st1" x1="123.59" y1="96.85" x2="123.59" y2="96.85"/>
<line class="st1" x1="104.35" y1="42.33" x2="104.35" y2="42.33"/>
<line class="st1" x1="105.72" y1="45.54" x2="105.72" y2="45.54"/>
<line class="st1" x1="106.18" y1="29.51" x2="106.18" y2="29.51"/>
<line class="st1" x1="81.9" y1="46.46" x2="81.9" y2="46.46"/>
<line class="st1" x1="98.39" y1="60.2" x2="98.39" y2="60.2"/>
<line class="st1" x1="117.63" y1="54.24" x2="117.63" y2="54.24"/>
<line class="st1" x1="120.38" y1="67.53" x2="120.38" y2="67.53"/>
<line class="st1" x1="10.44" y1="40.04" x2="10.44" y2="40.04"/>
</svg>
