<?xml version="1.0" encoding="UTF-8"?>
<svg id="Layer_1" data-name="Layer 1" xmlns="http://www.w3.org/2000/svg" xmlns:xlink="http://www.w3.org/1999/xlink" viewBox="0 0 144 144">
  <defs>
    <style>
      .cls-1 {
        fill: url(#Petals_Three_Color);
      }

      .cls-2 {
        fill: #00ab6e;
      }

      .cls-3 {
        fill: #ee2754;
      }

      .cls-4 {
        fill: #5ec198;
      }

      .cls-5 {
        fill: none;
      }
    </style>
    <pattern id="Petals_Three_Color" data-name="Petals Three Color" x="0" y="0" width="48" height="72" patternUnits="userSpaceOnUse" viewBox="0 0 48 72">
      <g>
        <rect class="cls-5" width="48" height="72"/>
        <path class="cls-2" d="m24,72c1.91-2.89.41-3.91,0-3.91s-1.91,1.03,0,3.91Z"/>
        <g>
          <path class="cls-2" d="m24,72c1.91-2.89.41-3.91,0-3.91s-1.91,1.03,0,3.91Z"/>
          <path class="cls-4" d="m25.04,72.59c3.46.2,3.59-1.61,3.38-1.97-.21-.36-1.85-1.13-3.38,1.97Z"/>
          <path class="cls-4" d="m22.96,72.59c-1.53-3.11-3.17-2.33-3.38-1.97-.21.36-.08,2.17,3.38,1.97Z"/>
        </g>
        <path class="cls-2" d="m24,72c1.91-2.89.41-3.91,0-3.91s-1.91,1.03,0,3.91Z"/>
        <g>
          <g>
            <path class="cls-2" d="m48,60c1.91-2.89.41-3.91,0-3.91s-1.91,1.03,0,3.91Z"/>
            <path class="cls-2" d="m48,36c1.91-2.89.41-3.91,0-3.91s-1.91,1.03,0,3.91Z"/>
          </g>
          <path class="cls-3" d="m47.91,70.04c1.91-2.89.41-3.91,0-3.91s-1.91,1.03,0,3.91Z"/>
        </g>
        <g>
          <g>
            <path class="cls-2" d="m0,60C1.91,57.11.41,56.09,0,56.09S-1.91,57.11,0,60Z"/>
            <path class="cls-2" d="m48,60c1.91-2.89.41-3.91,0-3.91s-1.91,1.03,0,3.91Z"/>
            <path class="cls-2" d="m24,72c1.91-2.89.41-3.91,0-3.91s-1.91,1.03,0,3.91Z"/>
            <path class="cls-2" d="m0,36C1.91,33.11.41,32.09,0,32.09S-1.91,33.11,0,36Z"/>
            <path class="cls-2" d="m48,36c1.91-2.89.41-3.91,0-3.91s-1.91,1.03,0,3.91Z"/>
            <path class="cls-2" d="m24,48c1.91-2.89.41-3.91,0-3.91s-1.91,1.03,0,3.91Z"/>
          </g>
          <path class="cls-4" d="m25.04,72.59c3.46.2,3.59-1.61,3.38-1.97-.21-.36-1.85-1.13-3.38,1.97Z"/>
          <path class="cls-4" d="m25.04,48.59c3.46.2,3.59-1.61,3.38-1.97-.21-.36-1.85-1.13-3.38,1.97Z"/>
          <path class="cls-4" d="m46.96,60.59c-1.53-3.11-3.17-2.33-3.38-1.97-.21.36-.08,2.17,3.38,1.97Z"/>
          <path class="cls-4" d="m46.96,36.59c-1.53-3.11-3.17-2.33-3.38-1.97-.21.36-.08,2.17,3.38,1.97Z"/>
          <g>
            <path class="cls-3" d="m-.09,70.04c1.91-2.89.41-3.91,0-3.91s-1.91,1.03,0,3.91Z"/>
            <path class="cls-3" d="m47.91,70.04c1.91-2.89.41-3.91,0-3.91s-1.91,1.03,0,3.91Z"/>
          </g>
        </g>
        <g>
          <g>
            <path class="cls-2" d="m0,60C1.91,57.11.41,56.09,0,56.09S-1.91,57.11,0,60Z"/>
            <path class="cls-2" d="m48,60c1.91-2.89.41-3.91,0-3.91s-1.91,1.03,0,3.91Z"/>
            <path class="cls-2" d="m24,72c1.91-2.89.41-3.91,0-3.91s-1.91,1.03,0,3.91Z"/>
            <path class="cls-2" d="m0,36C1.91,33.11.41,32.09,0,32.09S-1.91,33.11,0,36Z"/>
            <path class="cls-2" d="m48,36c1.91-2.89.41-3.91,0-3.91s-1.91,1.03,0,3.91Z"/>
            <path class="cls-2" d="m24,48c1.91-2.89.41-3.91,0-3.91s-1.91,1.03,0,3.91Z"/>
          </g>
          <path class="cls-4" d="m1.04,60.59c3.46.2,3.59-1.61,3.38-1.97-.21-.36-1.85-1.13-3.38,1.97Z"/>
          <path class="cls-4" d="m1.04,36.59c3.46.2,3.59-1.61,3.38-1.97-.21-.36-1.85-1.13-3.38,1.97Z"/>
          <path class="cls-4" d="m22.96,72.59c-1.53-3.11-3.17-2.33-3.38-1.97-.21.36-.08,2.17,3.38,1.97Z"/>
          <path class="cls-4" d="m22.96,48.59c-1.53-3.11-3.17-2.33-3.38-1.97-.21.36-.08,2.17,3.38,1.97Z"/>
          <g>
            <path class="cls-3" d="m-.09,70.04c1.91-2.89.41-3.91,0-3.91s-1.91,1.03,0,3.91Z"/>
            <path class="cls-3" d="m47.91,70.04c1.91-2.89.41-3.91,0-3.91s-1.91,1.03,0,3.91Z"/>
          </g>
        </g>
        <g>
          <g>
            <path class="cls-2" d="m0,60C1.91,57.11.41,56.09,0,56.09S-1.91,57.11,0,60Z"/>
            <path class="cls-2" d="m0,36C1.91,33.11.41,32.09,0,32.09S-1.91,33.11,0,36Z"/>
          </g>
          <path class="cls-3" d="m-.09,70.04c1.91-2.89.41-3.91,0-3.91s-1.91,1.03,0,3.91Z"/>
        </g>
        <g>
          <g>
            <path class="cls-2" d="m24,48c1.91-2.89.41-3.91,0-3.91s-1.91,1.03,0,3.91Z"/>
            <path class="cls-2" d="m24,72c1.91-2.89.41-3.91,0-3.91s-1.91,1.03,0,3.91Z"/>
            <path class="cls-2" d="m48,60c1.91-2.89.41-3.91,0-3.91s-1.91,1.03,0,3.91Z"/>
            <path class="cls-2" d="m24,24c1.91-2.89.41-3.91,0-3.91s-1.91,1.03,0,3.91Z"/>
            <path class="cls-2" d="m48,36c1.91-2.89.41-3.91,0-3.91s-1.91,1.03,0,3.91Z"/>
            <path class="cls-2" d="m48,12c1.91-2.89.41-3.91,0-3.91s-1.91,1.03,0,3.91Z"/>
          </g>
          <g>
            <path class="cls-3" d="m23.91,58.04c1.91-2.89.41-3.91,0-3.91s-1.91,1.03,0,3.91Z"/>
            <path class="cls-3" d="m47.91,70.04c1.91-2.89.41-3.91,0-3.91s-1.91,1.03,0,3.91Z"/>
            <path class="cls-3" d="m23.91,34.04c1.91-2.89.41-3.91,0-3.91s-1.91,1.03,0,3.91Z"/>
            <path class="cls-3" d="m47.91,46.04c1.91-2.89.41-3.91,0-3.91s-1.91,1.03,0,3.91Z"/>
          </g>
        </g>
        <g>
          <g>
            <path class="cls-2" d="m-24,48c1.91-2.89.41-3.91,0-3.91s-1.91,1.03,0,3.91Z"/>
            <path class="cls-2" d="m24,48c1.91-2.89.41-3.91,0-3.91s-1.91,1.03,0,3.91Z"/>
            <path class="cls-2" d="m24,72c1.91-2.89.41-3.91,0-3.91s-1.91,1.03,0,3.91Z"/>
            <path class="cls-2" d="m-24,72c1.91-2.89.41-3.91,0-3.91s-1.91,1.03,0,3.91Z"/>
            <path class="cls-2" d="m0,60C1.91,57.11.41,56.09,0,56.09S-1.91,57.11,0,60Z"/>
            <path class="cls-2" d="m72,48c1.91-2.89.41-3.91,0-3.91s-1.91,1.03,0,3.91Z"/>
            <path class="cls-2" d="m72,72c1.91-2.89.41-3.91,0-3.91s-1.91,1.03,0,3.91Z"/>
            <path class="cls-2" d="m48,60c1.91-2.89.41-3.91,0-3.91s-1.91,1.03,0,3.91Z"/>
            <path class="cls-2" d="m-24,24c1.91-2.89.41-3.91,0-3.91s-1.91,1.03,0,3.91Z"/>
            <path class="cls-2" d="m24,24c1.91-2.89.41-3.91,0-3.91s-1.91,1.03,0,3.91Z"/>
            <path class="cls-2" d="m0,36C1.91,33.11.41,32.09,0,32.09S-1.91,33.11,0,36Z"/>
            <path class="cls-2" d="m72,24c1.91-2.89.41-3.91,0-3.91s-1.91,1.03,0,3.91Z"/>
            <path class="cls-2" d="m48,36c1.91-2.89.41-3.91,0-3.91s-1.91,1.03,0,3.91Z"/>
            <path class="cls-2" d="m-24,0c1.91-2.89.41-3.91,0-3.91S-25.91-2.89-24,0Z"/>
            <path class="cls-2" d="m24,0c1.91-2.89.41-3.91,0-3.91S22.09-2.89,24,0Z"/>
            <path class="cls-2" d="m0,12C1.91,9.11.41,8.09,0,8.09S-1.91,9.11,0,12Z"/>
            <path class="cls-2" d="m72,0c1.91-2.89.41-3.91,0-3.91S70.09-2.89,72,0Z"/>
            <path class="cls-2" d="m48,12c1.91-2.89.41-3.91,0-3.91s-1.91,1.03,0,3.91Z"/>
          </g>
          <path class="cls-4" d="m25.04,48.59c3.46.2,3.59-1.61,3.38-1.97-.21-.36-1.85-1.13-3.38,1.97Z"/>
          <path class="cls-4" d="m25.04,72.59c3.46.2,3.59-1.61,3.38-1.97-.21-.36-1.85-1.13-3.38,1.97Z"/>
          <path class="cls-4" d="m1.04,60.59c3.46.2,3.59-1.61,3.38-1.97-.21-.36-1.85-1.13-3.38,1.97Z"/>
          <path class="cls-4" d="m25.04,24.59c3.46.2,3.59-1.61,3.38-1.97-.21-.36-1.85-1.13-3.38,1.97Z"/>
          <path class="cls-4" d="m1.04,36.59c3.46.2,3.59-1.61,3.38-1.97-.21-.36-1.85-1.13-3.38,1.97Z"/>
          <path class="cls-4" d="m25.04.59c3.46.2,3.59-1.61,3.38-1.97-.21-.36-1.85-1.13-3.38,1.97Z"/>
          <path class="cls-4" d="m1.04,12.59c3.46.2,3.59-1.61,3.38-1.97-.21-.36-1.85-1.13-3.38,1.97Z"/>
          <path class="cls-4" d="m22.96,48.59c-1.53-3.11-3.17-2.33-3.38-1.97-.21.36-.08,2.17,3.38,1.97Z"/>
          <path class="cls-4" d="m22.96,72.59c-1.53-3.11-3.17-2.33-3.38-1.97-.21.36-.08,2.17,3.38,1.97Z"/>
          <path class="cls-4" d="m46.96,60.59c-1.53-3.11-3.17-2.33-3.38-1.97-.21.36-.08,2.17,3.38,1.97Z"/>
          <path class="cls-4" d="m22.96,24.59c-1.53-3.11-3.17-2.33-3.38-1.97-.21.36-.08,2.17,3.38,1.97Z"/>
          <path class="cls-4" d="m46.96,36.59c-1.53-3.11-3.17-2.33-3.38-1.97-.21.36-.08,2.17,3.38,1.97Z"/>
          <path class="cls-4" d="m22.96.59c-1.53-3.11-3.17-2.33-3.38-1.97-.21.36-.08,2.17,3.38,1.97Z"/>
          <path class="cls-4" d="m46.96,12.59c-1.53-3.11-3.17-2.33-3.38-1.97-.21.36-.08,2.17,3.38,1.97Z"/>
          <g>
            <path class="cls-3" d="m-24.09,82.04c1.91-2.89.41-3.91,0-3.91s-1.91,1.03,0,3.91Z"/>
            <path class="cls-3" d="m23.91,82.04c1.91-2.89.41-3.91,0-3.91s-1.91,1.03,0,3.91Z"/>
            <path class="cls-3" d="m23.91,106.04c1.91-2.89.41-3.91,0-3.91s-1.91,1.03,0,3.91Z"/>
            <path class="cls-3" d="m-24.09,106.04c1.91-2.89.41-3.91,0-3.91s-1.91,1.03,0,3.91Z"/>
            <path class="cls-3" d="m-.09,94.04c1.91-2.89.41-3.91,0-3.91s-1.91,1.03,0,3.91Z"/>
            <path class="cls-3" d="m71.91,82.04c1.91-2.89.41-3.91,0-3.91s-1.91,1.03,0,3.91Z"/>
            <path class="cls-3" d="m71.91,106.04c1.91-2.89.41-3.91,0-3.91s-1.91,1.03,0,3.91Z"/>
            <path class="cls-3" d="m47.91,94.04c1.91-2.89.41-3.91,0-3.91s-1.91,1.03,0,3.91Z"/>
            <path class="cls-3" d="m-24.09,58.04c1.91-2.89.41-3.91,0-3.91s-1.91,1.03,0,3.91Z"/>
            <path class="cls-3" d="m23.91,58.04c1.91-2.89.41-3.91,0-3.91s-1.91,1.03,0,3.91Z"/>
            <path class="cls-3" d="m-.09,70.04c1.91-2.89.41-3.91,0-3.91s-1.91,1.03,0,3.91Z"/>
            <path class="cls-3" d="m71.91,58.04c1.91-2.89.41-3.91,0-3.91s-1.91,1.03,0,3.91Z"/>
            <path class="cls-3" d="m47.91,70.04c1.91-2.89.41-3.91,0-3.91s-1.91,1.03,0,3.91Z"/>
            <path class="cls-3" d="m-24.09,34.04c1.91-2.89.41-3.91,0-3.91s-1.91,1.03,0,3.91Z"/>
            <path class="cls-3" d="m23.91,34.04c1.91-2.89.41-3.91,0-3.91s-1.91,1.03,0,3.91Z"/>
            <path class="cls-3" d="m-.09,46.04c1.91-2.89.41-3.91,0-3.91s-1.91,1.03,0,3.91Z"/>
            <path class="cls-3" d="m71.91,34.04c1.91-2.89.41-3.91,0-3.91s-1.91,1.03,0,3.91Z"/>
            <path class="cls-3" d="m47.91,46.04c1.91-2.89.41-3.91,0-3.91s-1.91,1.03,0,3.91Z"/>
          </g>
          <path class="cls-3" d="m24.95,58.64c3.46.2,3.59-1.61,3.38-1.97-.21-.36-1.85-1.13-3.38,1.97Z"/>
          <path class="cls-3" d="m22.88,58.64c-1.53-3.11-3.17-2.33-3.38-1.97-.21.36-.08,2.17,3.38,1.97Z"/>
        </g>
        <g>
          <g>
            <path class="cls-2" d="m24,48c1.91-2.89.41-3.91,0-3.91s-1.91,1.03,0,3.91Z"/>
            <path class="cls-2" d="m24,72c1.91-2.89.41-3.91,0-3.91s-1.91,1.03,0,3.91Z"/>
            <path class="cls-2" d="m0,60C1.91,57.11.41,56.09,0,56.09S-1.91,57.11,0,60Z"/>
            <path class="cls-2" d="m24,24c1.91-2.89.41-3.91,0-3.91s-1.91,1.03,0,3.91Z"/>
            <path class="cls-2" d="m0,36C1.91,33.11.41,32.09,0,32.09S-1.91,33.11,0,36Z"/>
            <path class="cls-2" d="m0,12C1.91,9.11.41,8.09,0,8.09S-1.91,9.11,0,12Z"/>
          </g>
          <g>
            <path class="cls-3" d="m23.91,58.04c1.91-2.89.41-3.91,0-3.91s-1.91,1.03,0,3.91Z"/>
            <path class="cls-3" d="m-.09,70.04c1.91-2.89.41-3.91,0-3.91s-1.91,1.03,0,3.91Z"/>
            <path class="cls-3" d="m23.91,34.04c1.91-2.89.41-3.91,0-3.91s-1.91,1.03,0,3.91Z"/>
            <path class="cls-3" d="m-.09,46.04c1.91-2.89.41-3.91,0-3.91s-1.91,1.03,0,3.91Z"/>
          </g>
        </g>
        <g>
          <g>
            <path class="cls-2" d="m48,12c1.91-2.89.41-3.91,0-3.91s-1.91,1.03,0,3.91Z"/>
            <path class="cls-2" d="m48,36c1.91-2.89.41-3.91,0-3.91s-1.91,1.03,0,3.91Z"/>
          </g>
          <g>
            <path class="cls-3" d="m47.91,46.04c1.91-2.89.41-3.91,0-3.91s-1.91,1.03,0,3.91Z"/>
            <path class="cls-3" d="m47.91,70.04c1.91-2.89.41-3.91,0-3.91s-1.91,1.03,0,3.91Z"/>
            <path class="cls-3" d="m47.91,22.04c1.91-2.89.41-3.91,0-3.91s-1.91,1.03,0,3.91Z"/>
          </g>
        </g>
        <g>
          <g>
            <path class="cls-2" d="m0,12C1.91,9.11.41,8.09,0,8.09S-1.91,9.11,0,12Z"/>
            <path class="cls-2" d="m48,12c1.91-2.89.41-3.91,0-3.91s-1.91,1.03,0,3.91Z"/>
            <path class="cls-2" d="m48,36c1.91-2.89.41-3.91,0-3.91s-1.91,1.03,0,3.91Z"/>
            <path class="cls-2" d="m0,36C1.91,33.11.41,32.09,0,32.09S-1.91,33.11,0,36Z"/>
            <path class="cls-2" d="m24,24c1.91-2.89.41-3.91,0-3.91s-1.91,1.03,0,3.91Z"/>
          </g>
          <path class="cls-4" d="m25.04,24.59c3.46.2,3.59-1.61,3.38-1.97-.21-.36-1.85-1.13-3.38,1.97Z"/>
          <path class="cls-4" d="m25.04.59c3.46.2,3.59-1.61,3.38-1.97-.21-.36-1.85-1.13-3.38,1.97Z"/>
          <path class="cls-4" d="m46.96,12.59c-1.53-3.11-3.17-2.33-3.38-1.97-.21.36-.08,2.17,3.38,1.97Z"/>
          <path class="cls-4" d="m46.96,36.59c-1.53-3.11-3.17-2.33-3.38-1.97-.21.36-.08,2.17,3.38,1.97Z"/>
          <g>
            <path class="cls-3" d="m-.09,46.04c1.91-2.89.41-3.91,0-3.91s-1.91,1.03,0,3.91Z"/>
            <path class="cls-3" d="m47.91,46.04c1.91-2.89.41-3.91,0-3.91s-1.91,1.03,0,3.91Z"/>
            <path class="cls-3" d="m47.91,70.04c1.91-2.89.41-3.91,0-3.91s-1.91,1.03,0,3.91Z"/>
            <path class="cls-3" d="m-.09,70.04c1.91-2.89.41-3.91,0-3.91s-1.91,1.03,0,3.91Z"/>
            <path class="cls-3" d="m23.91,58.04c1.91-2.89.41-3.91,0-3.91s-1.91,1.03,0,3.91Z"/>
            <path class="cls-3" d="m-.09,22.04c1.91-2.89.41-3.91,0-3.91s-1.91,1.03,0,3.91Z"/>
            <path class="cls-3" d="m47.91,22.04c1.91-2.89.41-3.91,0-3.91s-1.91,1.03,0,3.91Z"/>
            <path class="cls-3" d="m23.91,34.04c1.91-2.89.41-3.91,0-3.91s-1.91,1.03,0,3.91Z"/>
            <path class="cls-3" d="m23.91,10.04c1.91-2.89.41-3.91,0-3.91s-1.91,1.03,0,3.91Z"/>
          </g>
          <path class="cls-3" d="m46.88,22.64c-1.53-3.11-3.17-2.33-3.38-1.97-.21.36-.08,2.17,3.38,1.97Z"/>
        </g>
        <g>
          <g>
            <path class="cls-2" d="m0,12C1.91,9.11.41,8.09,0,8.09S-1.91,9.11,0,12Z"/>
            <path class="cls-2" d="m0,36C1.91,33.11.41,32.09,0,32.09S-1.91,33.11,0,36Z"/>
            <path class="cls-2" d="m48,12c1.91-2.89.41-3.91,0-3.91s-1.91,1.03,0,3.91Z"/>
            <path class="cls-2" d="m48,36c1.91-2.89.41-3.91,0-3.91s-1.91,1.03,0,3.91Z"/>
            <path class="cls-2" d="m24,24c1.91-2.89.41-3.91,0-3.91s-1.91,1.03,0,3.91Z"/>
          </g>
          <path class="cls-4" d="m1.04,12.59c3.46.2,3.59-1.61,3.38-1.97-.21-.36-1.85-1.13-3.38,1.97Z"/>
          <path class="cls-4" d="m1.04,36.59c3.46.2,3.59-1.61,3.38-1.97-.21-.36-1.85-1.13-3.38,1.97Z"/>
          <path class="cls-4" d="m22.96,24.59c-1.53-3.11-3.17-2.33-3.38-1.97-.21.36-.08,2.17,3.38,1.97Z"/>
          <path class="cls-4" d="m22.96.59c-1.53-3.11-3.17-2.33-3.38-1.97-.21.36-.08,2.17,3.38,1.97Z"/>
          <g>
            <path class="cls-3" d="m-.09,46.04c1.91-2.89.41-3.91,0-3.91s-1.91,1.03,0,3.91Z"/>
            <path class="cls-3" d="m-.09,70.04c1.91-2.89.41-3.91,0-3.91s-1.91,1.03,0,3.91Z"/>
            <path class="cls-3" d="m47.91,46.04c1.91-2.89.41-3.91,0-3.91s-1.91,1.03,0,3.91Z"/>
            <path class="cls-3" d="m47.91,70.04c1.91-2.89.41-3.91,0-3.91s-1.91,1.03,0,3.91Z"/>
            <path class="cls-3" d="m23.91,58.04c1.91-2.89.41-3.91,0-3.91s-1.91,1.03,0,3.91Z"/>
            <path class="cls-3" d="m-.09,22.04c1.91-2.89.41-3.91,0-3.91s-1.91,1.03,0,3.91Z"/>
            <path class="cls-3" d="m47.91,22.04c1.91-2.89.41-3.91,0-3.91s-1.91,1.03,0,3.91Z"/>
            <path class="cls-3" d="m23.91,34.04c1.91-2.89.41-3.91,0-3.91s-1.91,1.03,0,3.91Z"/>
            <path class="cls-3" d="m23.91,10.04c1.91-2.89.41-3.91,0-3.91s-1.91,1.03,0,3.91Z"/>
          </g>
          <path class="cls-3" d="m.95,22.64c3.46.2,3.59-1.61,3.38-1.97-.21-.36-1.85-1.13-3.38,1.97Z"/>
        </g>
        <g>
          <g>
            <path class="cls-2" d="m0,12C1.91,9.11.41,8.09,0,8.09S-1.91,9.11,0,12Z"/>
            <path class="cls-2" d="m0,36C1.91,33.11.41,32.09,0,32.09S-1.91,33.11,0,36Z"/>
          </g>
          <g>
            <path class="cls-3" d="m-.09,46.04c1.91-2.89.41-3.91,0-3.91s-1.91,1.03,0,3.91Z"/>
            <path class="cls-3" d="m-.09,70.04c1.91-2.89.41-3.91,0-3.91s-1.91,1.03,0,3.91Z"/>
            <path class="cls-3" d="m-.09,22.04c1.91-2.89.41-3.91,0-3.91s-1.91,1.03,0,3.91Z"/>
          </g>
        </g>
        <g>
          <path class="cls-3" d="m23.91,10.04c1.91-2.89.41-3.91,0-3.91s-1.91,1.03,0,3.91Z"/>
          <path class="cls-3" d="m23.91,34.04c1.91-2.89.41-3.91,0-3.91s-1.91,1.03,0,3.91Z"/>
          <path class="cls-3" d="m47.91,22.04c1.91-2.89.41-3.91,0-3.91s-1.91,1.03,0,3.91Z"/>
        </g>
        <g>
          <path class="cls-4" d="m25.04.59c3.46.2,3.59-1.61,3.38-1.97-.21-.36-1.85-1.13-3.38,1.97Z"/>
          <path class="cls-4" d="m22.96.59c-1.53-3.11-3.17-2.33-3.38-1.97-.21.36-.08,2.17,3.38,1.97Z"/>
          <g>
            <path class="cls-3" d="m23.91,10.04c1.91-2.89.41-3.91,0-3.91s-1.91,1.03,0,3.91Z"/>
            <path class="cls-3" d="m23.91,34.04c1.91-2.89.41-3.91,0-3.91s-1.91,1.03,0,3.91Z"/>
            <path class="cls-3" d="m-.09,22.04c1.91-2.89.41-3.91,0-3.91s-1.91,1.03,0,3.91Z"/>
            <path class="cls-3" d="m47.91,22.04c1.91-2.89.41-3.91,0-3.91s-1.91,1.03,0,3.91Z"/>
          </g>
        </g>
        <g>
          <path class="cls-3" d="m23.91,10.04c1.91-2.89.41-3.91,0-3.91s-1.91,1.03,0,3.91Z"/>
          <path class="cls-3" d="m23.91,34.04c1.91-2.89.41-3.91,0-3.91s-1.91,1.03,0,3.91Z"/>
          <path class="cls-3" d="m-.09,22.04c1.91-2.89.41-3.91,0-3.91s-1.91,1.03,0,3.91Z"/>
        </g>
      </g>
    </pattern>
  </defs>
  <rect class="cls-1" width="144" height="144"/>
</svg>