<?xml version="1.0" encoding="utf-8"?>
<!-- Generator: Adobe Illustrator 27.5.0, SVG Export Plug-In . SVG Version: 6.00 Build 0)  -->
<svg version="1.1" id="Layer_1" xmlns="http://www.w3.org/2000/svg" xmlns:xlink="http://www.w3.org/1999/xlink" x="0px" y="0px"
	 viewBox="0 0 144 144" style="enable-background:new 0 0 144 144;" xml:space="preserve">
<style type="text/css">
	.st0{fill:#E0E43F;stroke:#BE1E2D;stroke-width:2;stroke-linecap:round;}
	.st1{fill:#E0E43F;}
	.st2{fill:#E0E43F;stroke:#F15A29;stroke-width:2.5;stroke-linecap:round;}
	.st3{fill:#ED1C24;stroke:#ED1C24;stroke-width:2.5;stroke-linecap:round;}
	.st4{fill:#E0E43F;stroke:#EF4136;stroke-width:2.5;stroke-linecap:round;}
	.st5{fill:#E0E43F;stroke:#BE1E2D;stroke-width:2.7;stroke-linecap:round;}
	.st6{fill:#ED1C24;stroke:#ED1C24;stroke-width:2.7;stroke-linecap:round;}
</style>
<line class="st0" x1="28.38" y1="82.12" x2="62.7" y2="116.43"/>
<line class="st0" x1="114.69" y1="82.64" x2="80.37" y2="116.95"/>
<line class="st0" x1="63.04" y1="30.98" x2="28.72" y2="65.3"/>
<line class="st0" x1="79.95" y1="30.55" x2="114.26" y2="64.87"/>
<path class="st1" d="M71.73,58.66c3.63,0,3.98,1.61,6.67,4.13c5.32-4.68-0.79-15.28-6.67-17.91c-5.88,2.63-11.99,13.23-6.67,17.91
	C67.75,60.27,68.1,58.66,71.73,58.66z"/>
<path class="st1" d="M56.43,73.96c0-3.63,1.61-3.98,4.13-6.67c-4.68-5.32-15.28,0.79-17.91,6.67c2.63,5.87,13.23,11.98,17.91,6.66
	C58.04,77.94,56.43,77.59,56.43,73.96z"/>
<path class="st1" d="M71.73,89.27c-3.63,0-3.98-1.61-6.67-4.13c-5.32,4.68,0.79,15.29,6.67,17.92c5.88-2.63,11.99-13.24,6.67-17.92
	C75.71,87.66,75.36,89.27,71.73,89.27z"/>
<path class="st1" d="M87.04,73.96c0,3.63-1.61,3.98-4.13,6.67c4.68,5.32,15.28-0.79,17.91-6.66c-2.63-5.88-13.24-11.99-17.91-6.67
	C85.43,69.99,87.04,70.33,87.04,73.96z"/>
<path class="st1" d="M20.41,110.83c3.63,0,3.98,1.61,6.67,4.13c5.32-4.68-0.79-15.28-6.67-17.91c-5.88,2.63-11.99,13.23-6.67,17.91
	C16.43,112.44,16.78,110.83,20.41,110.83z"/>
<path class="st1" d="M34.87,125.55c0,3.63-1.61,3.98-4.13,6.67c4.68,5.32,15.28-0.79,17.91-6.66c-2.63-5.88-13.23-11.99-17.91-6.67
	C33.26,121.58,34.87,121.92,34.87,125.55z"/>
<path class="st1" d="M20.41,37.1c3.63,0,3.98-1.61,6.67-4.13c5.32,4.68-0.79,15.28-6.67,17.91c-5.88-2.63-11.99-13.23-6.67-17.91
	C16.42,35.49,16.77,37.1,20.41,37.1z"/>
<path class="st1" d="M34.87,22.52c0-3.63-1.61-3.98-4.13-6.67c4.68-5.32,15.28,0.79,17.91,6.66c-2.63,5.88-13.23,11.99-17.91,6.67
	C33.26,26.51,34.87,26.15,34.87,22.52z"/>
<path class="st1" d="M123.59,110.83c-3.63,0-3.98,1.61-6.66,4.13c-5.32-4.68,0.79-15.28,6.66-17.91
	c5.88,2.63,11.99,13.23,6.67,17.91C127.57,112.44,127.22,110.83,123.59,110.83z"/>
<path class="st1" d="M108.6,125.58c0,3.63,1.61,3.98,4.13,6.67c-4.68,5.32-15.28-0.79-17.91-6.66c2.63-5.88,13.24-11.99,17.91-6.67
	C110.21,121.6,108.6,121.95,108.6,125.58z"/>
<path class="st1" d="M123.59,37.1c-3.63,0-3.98-1.61-6.66-4.13c-5.32,4.68,0.79,15.28,6.66,17.91c5.88-2.63,11.99-13.23,6.67-17.91
	C127.57,35.49,127.22,37.1,123.59,37.1z"/>
<path class="st1" d="M108.6,22.55c0-3.63,1.61-3.98,4.13-6.67c-4.68-5.32-15.28,0.79-17.91,6.66c2.63,5.88,13.24,11.99,17.91,6.67
	C110.21,26.53,108.6,26.18,108.6,22.55z"/>
<line class="st2" x1="71.73" y1="73.96" x2="71.73" y2="73.96"/>
<line class="st3" x1="20.17" y1="22.4" x2="20.17" y2="22.4"/>
<line class="st3" x1="123.3" y1="22.4" x2="123.3" y2="22.4"/>
<line class="st3" x1="20.17" y1="125.53" x2="20.17" y2="125.53"/>
<line class="st4" x1="123.3" y1="125.53" x2="123.3" y2="125.53"/>
<line class="st5" x1="71.73" y1="125.37" x2="71.73" y2="125.37"/>
<line class="st6" x1="71.73" y1="22.25" x2="71.73" y2="22.25"/>
<line class="st6" x1="20.17" y1="73.81" x2="20.17" y2="73.81"/>
<line class="st5" x1="123.3" y1="73.81" x2="123.3" y2="73.81"/>
</svg>
