<?xml version="1.0" encoding="utf-8"?>
<!-- Generator: Adobe Illustrator 27.5.0, SVG Export Plug-In . SVG Version: 6.00 Build 0)  -->
<svg version="1.1" id="Layer_1" xmlns="http://www.w3.org/2000/svg" xmlns:xlink="http://www.w3.org/1999/xlink" x="0px" y="0px"
	 viewBox="0 0 144 144" style="enable-background:new 0 0 144 144;" xml:space="preserve">
<style type="text/css">
	.st0{fill:#EE2A7B;stroke:#DB317E;stroke-width:4.694;stroke-linecap:round;stroke-dasharray:0,6.5;}
	.st1{fill:#EE2A7B;stroke:#E2615A;stroke-width:4.388;stroke-linecap:round;stroke-dasharray:0,6.5;}
	.st2{fill:#EE2A7B;stroke:#E2615A;stroke-width:4.083;stroke-linecap:round;stroke-dasharray:0,6.5;}
	.st3{fill:#EE2A7B;stroke:#E69B5C;stroke-width:3.777;stroke-linecap:round;stroke-dasharray:0,6.5;}
	.st4{fill:#EE2A7B;stroke:#E69B5C;stroke-width:3.472;stroke-linecap:round;stroke-dasharray:0,6.5;}
	.st5{fill:#EE2A7B;stroke:#E69B5C;stroke-width:3.166;stroke-linecap:round;stroke-dasharray:0,6.5;}
	.st6{fill:#EE2A7B;stroke:#E69B5C;stroke-width:2.861;stroke-linecap:round;stroke-dasharray:0,6.5;}
	.st7{fill:#EE2A7B;stroke:#E69B5C;stroke-width:2.555;stroke-linecap:round;stroke-dasharray:0,6.5;}
	.st8{fill:#EE2A7B;stroke:#E69B5C;stroke-width:4.083;stroke-linecap:round;stroke-dasharray:0,6.5;}
</style>
<line class="st0" x1="8.86" y1="10.22" x2="8.86" y2="137.49"/>
<line class="st1" x1="17.4" y1="16.23" x2="17.4" y2="137.49"/>
<line class="st2" x1="25.93" y1="10.22" x2="25.93" y2="137.49"/>
<line class="st3" x1="34.47" y1="16.23" x2="34.47" y2="137.49"/>
<line class="st4" x1="43.01" y1="10.22" x2="43.01" y2="137.49"/>
<line class="st5" x1="51.54" y1="16.23" x2="51.54" y2="137.49"/>
<line class="st6" x1="60.08" y1="10.22" x2="60.08" y2="137.49"/>
<line class="st7" x1="68.62" y1="16.23" x2="68.62" y2="137.49"/>
<line class="st0" x1="135.14" y1="10.22" x2="135.14" y2="137.49"/>
<line class="st1" x1="126.6" y1="16.23" x2="126.6" y2="137.49"/>
<line class="st8" x1="118.06" y1="10.22" x2="118.06" y2="137.49"/>
<line class="st3" x1="109.53" y1="16.23" x2="109.53" y2="137.49"/>
<line class="st4" x1="100.99" y1="10.22" x2="100.99" y2="137.49"/>
<line class="st5" x1="92.45" y1="16.23" x2="92.45" y2="137.49"/>
<line class="st6" x1="83.92" y1="10.22" x2="83.92" y2="137.49"/>
<line class="st7" x1="75.38" y1="16.23" x2="75.38" y2="137.49"/>
</svg>
