<?xml version="1.0" encoding="UTF-8"?>
<svg id="Layer_1" data-name="Layer 1" xmlns="http://www.w3.org/2000/svg" xmlns:xlink="http://www.w3.org/1999/xlink" viewBox="0 0 144 144">
  <defs>
    <style>
      .cls-1 {
        fill: url(#New_Pattern);
      }

      .cls-2 {
        fill: #44073c;
      }

      .cls-3 {
        fill: none;
      }

      .cls-4 {
        fill: #231f20;
      }
    </style>
    <pattern id="New_Pattern" data-name="New Pattern" x="0" y="0" width="31.1" height="20.16" patternUnits="userSpaceOnUse" viewBox="0 0 31.1 20.16">
      <g>
        <rect class="cls-3" width="31.1" height="20.16"/>
        <g>
          <path class="cls-4" d="m4.34,2c2.13,2.24,4.72,3.99,7.28,5.71.89.6,1.78,1.19,2.67,1.79"/>
          <path class="cls-2" d="m3.01,2.64c2.95,3.09,6.64,5.34,10.17,7.7.61.41,1.52.25,2.08-.17.48-.37.76-1.1.15-1.5-3.35-2.25-6.94-4.37-9.75-7.3-.51-.53-1.33-.53-1.97-.22-.45.22-1.2.96-.68,1.5h0Z"/>
        </g>
        <g>
          <path class="cls-4" d="m3.12,6.1l10.2,7.68"/>
          <path class="cls-2" d="m1.78,6.67c3.4,2.56,6.8,5.12,10.2,7.68.54.41,1.33.29,1.92.04.27-.12,1.31-.78.77-1.18-3.4-2.56-6.8-5.12-10.2-7.68-.54-.41-1.33-.29-1.92-.04-.27.12-1.31.78-.77,1.18h0Z"/>
        </g>
        <g>
          <path class="cls-4" d="m2.9,11.17l9.43,6.99"/>
          <path class="cls-2" d="m1.78,11.99l9.43,6.99c.58.43,1.54.22,2.08-.18.5-.38.74-1.04.16-1.47l-9.43-6.99c-.58-.43-1.54-.22-2.08.18-.5.38-.74,1.04-.16,1.47h0Z"/>
        </g>
        <g>
          <path class="cls-4" d="m17.18,9.21c3.31-1.74,6.59-3.55,9.82-5.43"/>
          <path class="cls-2" d="m17.78,9.93c3.42-1.8,6.8-3.67,10.14-5.61.48-.28.78-.96.21-1.3-.62-.38-1.49-.11-2.06.23-3.13,1.82-6.29,3.57-9.5,5.26-.43.22-1.18.77-.73,1.32.41.51,1.44.38,1.94.12h0Z"/>
        </g>
        <g>
          <path class="cls-4" d="m17.64,12.61c3.46-1.23,6.71-3.05,9.57-5.35"/>
          <path class="cls-2" d="m18.22,13.23c3.68-1.32,7.11-3.27,10.16-5.71.49-.39.28-.92-.28-1.05-.7-.16-1.5.11-2.05.55-2.75,2.2-5.71,3.81-8.99,4.99-.39.14-1.19.7-.77,1.18s1.42.22,1.92.04h0Z"/>
        </g>
        <g>
          <path class="cls-4" d="m18.2,16.77l-.67.46c3.93-1.35,7.33-3.86,10.67-6.33"/>
          <path class="cls-2" d="m16.9,16.91l-.67.46c-.32.22-.02.37.23.39.51.05,1.08-.11,1.56-.27,4.25-1.48,7.9-4.08,11.49-6.74.53-.39-.47-.4-.66-.38-.66.07-1.41.27-1.95.67-3.07,2.27-6.21,4.66-9.85,5.93l1.78.12.67-.46c.55-.37-.49-.4-.66-.38-.68.07-1.38.28-1.95.67h0Z"/>
        </g>
      </g>
    </pattern>
  </defs>
  <rect class="cls-1" width="144" height="144"/>
</svg>