<?xml version="1.0" encoding="utf-8"?>
<!-- Generator: Adobe Illustrator 27.5.0, SVG Export Plug-In . SVG Version: 6.00 Build 0)  -->
<svg version="1.1" id="Layer_1" xmlns="http://www.w3.org/2000/svg" xmlns:xlink="http://www.w3.org/1999/xlink" x="0px" y="0px"
	 viewBox="0 0 144 144" style="enable-background:new 0 0 144 144;" xml:space="preserve">
<style type="text/css">
	.st0{fill:#5EC198;}
	.st1{fill:#EE2754;}
	.st2{fill:#00AB6E;}
</style>
<path class="st0" d="M77.97,25.62c14.28,0.81,14.82-6.67,13.95-8.14C91.07,16.01,84.29,12.79,77.97,25.62z"/>
<path class="st0" d="M69.41,25.62c-6.32-12.83-13.1-9.61-13.96-8.14C54.59,18.96,55.13,26.44,69.41,25.62z"/>
<path class="st1" d="M73.34,20.85c7.9-11.92,1.71-16.16,0-16.16C71.64,4.69,65.44,8.92,73.34,20.85z"/>
<path class="st1" d="M73.34,43.14c7.9-11.92,1.71-16.16,0-16.16C71.64,26.98,65.44,31.21,73.34,43.14z"/>
<path class="st2" d="M34.48,67.68c7.9-11.92,1.71-16.16,0-16.16C32.78,51.52,26.58,55.75,34.48,67.68z"/>
<path class="st2" d="M34.2,40.07c7.9-11.92,1.71-16.16,0-16.16C32.5,23.91,26.3,28.15,34.2,40.07z"/>
<path class="st1" d="M38.76,46.91c14.28,0.81,14.82-6.67,13.95-8.14C51.86,37.3,45.08,34.09,38.76,46.91z"/>
<path class="st1" d="M31.09,46.91c-6.32-12.83-13.1-9.61-13.96-8.14C16.27,40.25,16.81,47.73,31.09,46.91z"/>
<path class="st0" d="M76.96,71.43c14.28,0.81,14.82-6.67,13.95-8.14C90.06,61.81,83.28,58.6,76.96,71.43z"/>
<path class="st0" d="M68.4,71.43c-6.32-12.83-13.1-9.61-13.96-8.14C53.58,64.76,54.12,72.24,68.4,71.43z"/>
<path class="st1" d="M72.33,66.66c7.9-11.92,1.71-16.16,0-16.16C70.63,50.5,64.43,54.73,72.33,66.66z"/>
<path class="st1" d="M72.33,88.95c7.9-11.92,1.71-16.16,0-16.16C70.63,72.79,64.43,77.02,72.33,88.95z"/>
<path class="st0" d="M41.19,98.62c14.28,0.81,14.82-6.67,13.95-8.14C54.28,89.01,47.51,85.8,41.19,98.62z"/>
<path class="st0" d="M32.63,98.62c-6.32-12.83-13.1-9.61-13.96-8.14C17.81,91.96,18.35,99.44,32.63,98.62z"/>
<path class="st1" d="M36.56,93.85c7.9-11.92,1.71-16.16,0-16.16C34.85,77.69,28.66,81.93,36.56,93.85z"/>
<path class="st1" d="M36.56,116.14c7.9-11.92,1.71-16.16,0-16.16C34.85,99.98,28.66,104.22,36.56,116.14z"/>
<path class="st0" d="M116.01,95.56c14.28,0.81,14.82-6.67,13.95-8.14C129.11,85.94,122.33,82.73,116.01,95.56z"/>
<path class="st0" d="M107.45,95.56c-6.32-12.83-13.1-9.61-13.96-8.14C92.63,88.89,93.17,96.37,107.45,95.56z"/>
<path class="st1" d="M111.38,90.79c7.9-11.92,1.71-16.16,0-16.16C109.67,74.63,103.48,78.86,111.38,90.79z"/>
<path class="st1" d="M111.38,113.08c7.9-11.92,1.71-16.16,0-16.16C109.67,96.92,103.48,101.15,111.38,113.08z"/>
<path class="st2" d="M73.34,139.31c7.9-11.92,1.71-16.16,0-16.16C71.64,123.15,65.44,127.39,73.34,139.31z"/>
<path class="st2" d="M72.93,111.24c7.9-11.92,1.71-16.16,0-16.16C71.22,95.08,65.03,99.31,72.93,111.24z"/>
<path class="st1" d="M77.62,119.14c14.28,0.81,14.82-6.67,13.95-8.14C90.72,109.53,83.94,106.32,77.62,119.14z"/>
<path class="st1" d="M69.06,119.14c-6.32-12.83-13.1-9.61-13.96-8.14C54.24,112.48,54.78,119.96,69.06,119.14z"/>
<path class="st2" d="M112.01,68.23c7.9-11.92,1.71-16.16,0-16.16C110.3,52.07,104.11,56.31,112.01,68.23z"/>
<path class="st2" d="M111.72,40.63c7.9-11.92,1.71-16.16,0-16.16C110.02,24.47,103.83,28.7,111.72,40.63z"/>
<path class="st1" d="M116.29,47.47c14.28,0.81,14.82-6.67,13.95-8.14C129.38,37.85,122.6,34.64,116.29,47.47z"/>
<path class="st1" d="M108.62,47.47c-6.32-12.83-13.1-9.61-13.96-8.14C93.8,40.8,94.34,48.28,108.62,47.47z"/>
</svg>
