<?xml version="1.0" encoding="utf-8"?>
<!-- Generator: Adobe Illustrator 27.5.0, SVG Export Plug-In . SVG Version: 6.00 Build 0)  -->
<svg version="1.1" id="Layer_1" xmlns="http://www.w3.org/2000/svg" xmlns:xlink="http://www.w3.org/1999/xlink" x="0px" y="0px"
	 viewBox="0 0 144 144" style="enable-background:new 0 0 144 144;" xml:space="preserve">
<style type="text/css">
	.st0{fill:#D42557;stroke:#DE697C;stroke-miterlimit:10;}
</style>
<g>
	<path class="st0" d="M45.52,13.16c-0.11,0-0.22-0.04-0.31-0.13c-0.09-0.09-0.15-0.2-0.15-0.33s0.06-0.24,0.15-0.33
		c0.16-0.16,0.46-0.16,0.64,0c0.09,0.09,0.13,0.2,0.13,0.33c0,0.11-0.04,0.22-0.13,0.31C45.75,13.12,45.64,13.16,45.52,13.16z"/>
	<path class="st0" d="M43.68,22.77c-0.11,0-0.24-0.06-0.33-0.13c-0.07-0.09-0.13-0.2-0.13-0.33s0.06-0.24,0.13-0.33
		c0.18-0.16,0.48-0.16,0.66,0c0.07,0.09,0.13,0.2,0.13,0.33s-0.05,0.24-0.13,0.33C43.92,22.74,43.81,22.77,43.68,22.77z"/>
	<path class="st0" d="M44.14,26.9c-0.11,0-0.24-0.06-0.31-0.13c-0.09-0.09-0.15-0.2-0.15-0.33c0-0.13,0.06-0.24,0.13-0.33
		c0.18-0.16,0.49-0.16,0.66,0c0.07,0.09,0.13,0.2,0.13,0.33c0,0.13-0.05,0.26-0.15,0.33C44.38,26.84,44.27,26.9,44.14,26.9z"/>
	<path class="st0" d="M40.02,31.02c-0.11,0-0.22-0.06-0.31-0.13c-0.09-0.09-0.15-0.2-0.15-0.33s0.06-0.24,0.13-0.33
		c0.2-0.16,0.48-0.16,0.66,0c0.09,0.09,0.13,0.2,0.13,0.33s-0.04,0.24-0.13,0.33C40.26,30.96,40.15,31.02,40.02,31.02z"/>
	<path class="st0" d="M34.98,26.9c-0.11,0-0.22-0.04-0.31-0.13c-0.09-0.09-0.15-0.22-0.15-0.33c0-0.13,0.06-0.24,0.13-0.33
		c0.22-0.18,0.48-0.16,0.66,0c0.09,0.09,0.13,0.2,0.13,0.33c0,0.11-0.04,0.24-0.13,0.31C35.22,26.86,35.11,26.9,34.98,26.9z"/>
	<path class="st0" d="M48.72,44.3c-0.11,0-0.22-0.04-0.31-0.13c-0.09-0.09-0.15-0.2-0.15-0.33c0-0.11,0.06-0.24,0.13-0.31
		c0.2-0.2,0.49-0.18,0.66-0.02c0.09,0.11,0.13,0.22,0.13,0.33c0,0.11-0.04,0.24-0.13,0.33C48.96,44.24,48.85,44.3,48.72,44.3z"/>
	<path class="st0" d="M34.98,49.79c-0.11,0-0.22-0.04-0.31-0.13c-0.09-0.09-0.15-0.2-0.15-0.33c0-0.11,0.06-0.22,0.13-0.31
		c0.22-0.2,0.48-0.18,0.66-0.02c0.09,0.09,0.13,0.22,0.13,0.33c0,0.13-0.04,0.24-0.13,0.33C35.22,49.76,35.11,49.79,34.98,49.79z"/>
	<path class="st0" d="M32.69,51.62c-0.13,0-0.24-0.06-0.33-0.15c-0.07-0.07-0.13-0.18-0.13-0.31c0-0.13,0.06-0.24,0.13-0.33
		c0.2-0.18,0.48-0.16,0.66,0c0.09,0.09,0.13,0.22,0.13,0.33c0,0.13-0.04,0.24-0.13,0.33C32.93,51.57,32.82,51.62,32.69,51.62z"/>
	<path class="st0" d="M51.01,57.12c-0.11,0-0.22-0.04-0.31-0.13c-0.09-0.09-0.15-0.2-0.15-0.33c0-0.13,0.06-0.24,0.13-0.31
		c0.2-0.2,0.48-0.18,0.66-0.02c0.09,0.11,0.13,0.22,0.13,0.33c0,0.13-0.04,0.24-0.13,0.33C51.25,57.08,51.14,57.12,51.01,57.12z"/>
	<path class="st0" d="M63.38,54.83c-0.11,0-0.22-0.04-0.31-0.13c-0.09-0.09-0.15-0.2-0.15-0.33s0.06-0.24,0.15-0.33
		c0.18-0.16,0.46-0.16,0.64,0c0.09,0.09,0.13,0.22,0.13,0.33s-0.04,0.24-0.13,0.33C63.61,54.79,63.5,54.83,63.38,54.83z"/>
	<path class="st0" d="M64.29,50.25c-0.11,0-0.22-0.06-0.31-0.13c-0.09-0.09-0.15-0.2-0.15-0.33c0-0.11,0.06-0.24,0.13-0.31
		c0.2-0.2,0.48-0.18,0.66-0.02c0.09,0.11,0.13,0.22,0.13,0.33c0,0.13-0.04,0.24-0.13,0.33C64.53,50.2,64.42,50.25,64.29,50.25z"/>
	<path class="st0" d="M60.63,41.09c-0.11,0-0.22-0.04-0.31-0.13c-0.09-0.09-0.15-0.2-0.15-0.33c0-0.13,0.06-0.24,0.15-0.33
		c0.18-0.16,0.46-0.16,0.64,0c0.09,0.09,0.13,0.2,0.13,0.33c0,0.13-0.05,0.24-0.13,0.33C60.87,41.06,60.74,41.09,60.63,41.09z"/>
	<path class="st0" d="M66.12,41.09c-0.11,0-0.22-0.04-0.31-0.13c-0.09-0.09-0.15-0.2-0.15-0.33c0-0.13,0.06-0.24,0.13-0.33
		c0.2-0.16,0.48-0.16,0.66,0c0.07,0.09,0.13,0.2,0.13,0.33c0,0.13-0.05,0.24-0.13,0.33C66.36,41.06,66.25,41.09,66.12,41.09z"/>
	<path class="st0" d="M66.58,32.85c-0.11,0-0.24-0.06-0.31-0.13c-0.09-0.09-0.15-0.2-0.15-0.33s0.06-0.24,0.15-0.33
		c0.16-0.16,0.48-0.16,0.64,0c0.09,0.09,0.13,0.22,0.13,0.33S67,32.61,66.91,32.7C66.82,32.79,66.71,32.85,66.58,32.85z"/>
	<path class="st0" d="M65.21,29.19c-0.11,0-0.22-0.04-0.31-0.13c-0.09-0.09-0.15-0.2-0.15-0.33s0.06-0.24,0.15-0.33
		c0.18-0.16,0.46-0.16,0.64,0c0.09,0.09,0.13,0.2,0.13,0.33s-0.05,0.24-0.13,0.33C65.45,29.15,65.34,29.19,65.21,29.19z"/>
	<path class="st0" d="M60.63,27.35c-0.13,0-0.24-0.06-0.33-0.13c-0.07-0.09-0.13-0.2-0.13-0.33s0.06-0.24,0.15-0.33
		c0.18-0.16,0.46-0.16,0.64,0c0.09,0.09,0.13,0.2,0.13,0.33s-0.04,0.24-0.13,0.33C60.87,27.3,60.76,27.35,60.63,27.35z"/>
	<path class="st0" d="M66.12,20.48c-0.11,0-0.22-0.04-0.31-0.13c-0.09-0.09-0.15-0.2-0.15-0.33c0-0.13,0.06-0.24,0.13-0.33
		c0.2-0.16,0.48-0.16,0.66,0c0.09,0.09,0.13,0.2,0.13,0.33c0,0.13-0.05,0.24-0.13,0.33C66.36,20.45,66.25,20.48,66.12,20.48z"/>
	<path class="st0" d="M65.67,13.16c-0.11,0-0.22-0.06-0.31-0.13c-0.09-0.09-0.15-0.2-0.15-0.33s0.06-0.24,0.15-0.33
		c0.18-0.16,0.46-0.16,0.64,0c0.09,0.09,0.13,0.22,0.13,0.33s-0.04,0.24-0.13,0.33C65.9,13.1,65.79,13.16,65.67,13.16z"/>
	<path class="st0" d="M60.63,13.62c-0.11,0-0.22-0.04-0.31-0.13c-0.09-0.09-0.15-0.2-0.15-0.33s0.06-0.24,0.15-0.33
		c0.16-0.16,0.46-0.16,0.64,0c0.09,0.09,0.13,0.2,0.13,0.33c0,0.11-0.04,0.24-0.13,0.31C60.87,13.58,60.76,13.62,60.63,13.62z"/>
	<path class="st0" d="M69.33,9.95c-0.11,0-0.24-0.06-0.31-0.13c-0.09-0.09-0.15-0.2-0.15-0.33s0.06-0.26,0.15-0.33
		c0.16-0.16,0.48-0.16,0.64,0c0.09,0.09,0.13,0.2,0.13,0.33c0,0.11-0.04,0.22-0.13,0.31C69.57,9.9,69.46,9.95,69.33,9.95z"/>
	<path class="st0" d="M83.07,20.48c-0.11,0-0.24-0.06-0.31-0.13c-0.09-0.09-0.15-0.2-0.15-0.33c0-0.13,0.06-0.24,0.15-0.33
		c0.16-0.16,0.44-0.16,0.62,0c0.11,0.11,0.15,0.22,0.15,0.33c0,0.11-0.04,0.22-0.13,0.31C83.31,20.45,83.2,20.48,83.07,20.48z"/>
	<path class="st0" d="M90.39,20.03c-0.11,0-0.22-0.04-0.31-0.13c-0.09-0.09-0.15-0.2-0.15-0.33s0.06-0.24,0.15-0.33
		c0.16-0.16,0.46-0.16,0.64,0c0.09,0.09,0.13,0.22,0.13,0.33s-0.04,0.24-0.13,0.33C90.63,19.99,90.51,20.03,90.39,20.03z"/>
	<path class="st0" d="M80.78,26.44c-0.11,0-0.22-0.04-0.31-0.13c-0.09-0.09-0.15-0.22-0.15-0.33c0-0.13,0.06-0.24,0.13-0.33
		c0.2-0.16,0.48-0.16,0.66,0c0.09,0.09,0.13,0.2,0.13,0.33c0,0.11-0.04,0.24-0.13,0.31C81.02,26.4,80.91,26.44,80.78,26.44z"/>
	<path class="st0" d="M89.48,29.19c-0.11,0-0.22-0.04-0.31-0.13c-0.09-0.09-0.15-0.2-0.15-0.33s0.06-0.24,0.15-0.33
		c0.18-0.16,0.46-0.16,0.64,0c0.07,0.09,0.13,0.2,0.13,0.33s-0.04,0.24-0.13,0.33C89.72,29.15,89.61,29.19,89.48,29.19z"/>
	<path class="st0" d="M89.48,32.39c-0.11,0-0.22-0.04-0.31-0.13c-0.09-0.09-0.15-0.2-0.15-0.33c0-0.13,0.06-0.24,0.15-0.33
		c0.15-0.16,0.48-0.16,0.64,0.02c0.09,0.07,0.13,0.18,0.13,0.31c0,0.13-0.04,0.24-0.13,0.33C89.72,32.36,89.61,32.39,89.48,32.39z"
		/>
	<path class="st0" d="M93.14,33.77c-0.11,0-0.22-0.04-0.31-0.13c-0.09-0.09-0.15-0.2-0.15-0.33c0-0.13,0.06-0.24,0.15-0.33
		c0.16-0.16,0.46-0.16,0.64,0c0.09,0.09,0.13,0.22,0.13,0.33c0,0.11-0.04,0.24-0.13,0.33C93.38,33.73,93.27,33.77,93.14,33.77z"/>
	<path class="st0" d="M93.14,37.43c-0.11,0-0.24-0.06-0.31-0.13c-0.09-0.09-0.15-0.2-0.15-0.33c0-0.13,0.06-0.24,0.15-0.33
		c0.15-0.15,0.48-0.16,0.64,0.02c0.09,0.07,0.13,0.2,0.13,0.31c0,0.11-0.04,0.24-0.13,0.33C93.38,37.37,93.27,37.43,93.14,37.43z"/>
	<path class="st0" d="M93.6,49.34c-0.11,0-0.24-0.06-0.31-0.13c-0.09-0.07-0.15-0.2-0.15-0.33s0.06-0.24,0.15-0.33
		c0.15-0.15,0.46-0.16,0.64,0c0.09,0.09,0.13,0.2,0.13,0.33s-0.05,0.24-0.13,0.33C93.84,49.3,93.73,49.34,93.6,49.34z"/>
	<path class="st0" d="M78.49,45.67c-0.11,0-0.22-0.04-0.31-0.13c-0.09-0.09-0.15-0.2-0.15-0.33s0.06-0.24,0.15-0.33
		c0.18-0.16,0.46-0.16,0.64,0c0.07,0.09,0.13,0.2,0.13,0.33s-0.05,0.24-0.13,0.33C78.73,45.64,78.62,45.67,78.49,45.67z"/>
	<path class="st0" d="M99.1,32.39c-0.11,0-0.24-0.06-0.31-0.13c-0.09-0.09-0.15-0.2-0.15-0.33c0-0.13,0.06-0.24,0.15-0.33
		c0.18-0.16,0.48-0.16,0.64,0c0.09,0.09,0.13,0.22,0.13,0.33c0,0.11-0.04,0.24-0.13,0.33C99.33,32.34,99.22,32.39,99.1,32.39z"/>
	<path class="st0" d="M102.76,29.64c-0.11,0-0.22-0.04-0.31-0.13c-0.09-0.09-0.15-0.2-0.15-0.33c0-0.13,0.06-0.24,0.15-0.33
		c0.16-0.16,0.46-0.16,0.64,0c0.09,0.09,0.13,0.22,0.13,0.33c0,0.11-0.04,0.24-0.13,0.33C103,29.61,102.89,29.64,102.76,29.64z"/>
	<path class="st0" d="M107.34,27.81c-0.11,0-0.24-0.06-0.31-0.13c-0.09-0.09-0.15-0.22-0.15-0.33c0-0.13,0.06-0.24,0.15-0.33
		c0.16-0.16,0.46-0.16,0.64,0c0.09,0.09,0.13,0.2,0.13,0.33c0,0.11-0.04,0.24-0.13,0.33C107.58,27.76,107.47,27.81,107.34,27.81z"/>
	<path class="st0" d="M107.34,20.03c-0.13,0-0.24-0.06-0.31-0.13c-0.09-0.11-0.15-0.22-0.15-0.33s0.06-0.22,0.13-0.31
		c0.18-0.18,0.48-0.18,0.66-0.02c0.09,0.11,0.13,0.22,0.13,0.33s-0.04,0.22-0.13,0.31C107.58,19.97,107.47,20.03,107.34,20.03z"/>
	<path class="st0" d="M110.54,9.04c-0.11,0-0.24-0.06-0.31-0.13c-0.09-0.09-0.15-0.22-0.15-0.33s0.06-0.24,0.13-0.33
		c0.18-0.16,0.48-0.16,0.66,0c0.09,0.11,0.13,0.22,0.13,0.33s-0.04,0.22-0.13,0.31C110.78,8.98,110.67,9.04,110.54,9.04z"/>
	<path class="st0" d="M124.28,19.57c-0.11,0-0.24-0.06-0.31-0.13c-0.09-0.09-0.15-0.22-0.15-0.33c0-0.11,0.06-0.24,0.13-0.31
		c0.18-0.18,0.48-0.18,0.66-0.02c0.09,0.11,0.13,0.22,0.13,0.33c0,0.11-0.04,0.22-0.13,0.31C124.52,19.51,124.41,19.57,124.28,19.57
		z"/>
	<path class="st0" d="M126.11,12.24c-0.11,0-0.24-0.06-0.31-0.13c-0.09-0.09-0.15-0.2-0.15-0.33s0.06-0.24,0.15-0.33
		c0.16-0.16,0.46-0.16,0.64,0c0.09,0.09,0.13,0.2,0.13,0.33s-0.04,0.24-0.13,0.31C126.35,12.21,126.24,12.24,126.11,12.24z"/>
	<path class="st0" d="M131.61,13.16c-0.11,0-0.24-0.06-0.31-0.13c-0.09-0.09-0.15-0.2-0.15-0.33s0.06-0.24,0.13-0.33
		c0.18-0.16,0.49-0.16,0.66,0c0.09,0.09,0.13,0.22,0.13,0.33s-0.04,0.24-0.13,0.33C131.85,13.1,131.74,13.16,131.61,13.16z"/>
	<path class="st0" d="M131.61,26.44c-0.11,0-0.24-0.06-0.31-0.13c-0.09-0.09-0.15-0.2-0.15-0.33s0.06-0.24,0.13-0.33
		c0.18-0.16,0.48-0.16,0.66,0c0.09,0.09,0.13,0.22,0.13,0.33s-0.04,0.24-0.13,0.33C131.85,26.38,131.74,26.44,131.61,26.44z"/>
	<path class="st0" d="M124.74,30.1c-0.11,0-0.24-0.06-0.31-0.13c-0.09-0.09-0.15-0.22-0.15-0.33s0.06-0.24,0.13-0.31
		c0.16-0.18,0.46-0.18,0.64-0.02c0.11,0.09,0.15,0.22,0.15,0.33s-0.04,0.24-0.13,0.31C124.98,30.07,124.87,30.1,124.74,30.1z"/>
	<path class="st0" d="M126.57,36.51c-0.13,0-0.24-0.06-0.31-0.13c-0.09-0.09-0.15-0.2-0.15-0.33s0.06-0.24,0.15-0.33
		c0.13-0.15,0.48-0.16,0.64,0.02c0.09,0.07,0.13,0.2,0.13,0.31s-0.04,0.22-0.13,0.31C126.83,36.46,126.7,36.51,126.57,36.51z"/>
	<path class="st0" d="M124.28,43.84c-0.11,0-0.24-0.06-0.31-0.13c-0.09-0.09-0.15-0.2-0.15-0.33s0.06-0.24,0.15-0.33
		c0.15-0.16,0.46-0.16,0.64,0c0.09,0.09,0.13,0.22,0.13,0.33s-0.04,0.24-0.13,0.33C124.52,43.78,124.41,43.84,124.28,43.84z"/>
	<path class="st0" d="M128.4,43.84c-0.13,0-0.24-0.06-0.33-0.15c-0.07-0.07-0.13-0.18-0.13-0.31c0-0.11,0.06-0.24,0.13-0.31
		c0.16-0.18,0.48-0.18,0.66-0.02c0.09,0.09,0.13,0.22,0.13,0.33c0,0.13-0.04,0.24-0.13,0.33C128.64,43.78,128.53,43.84,128.4,43.84z
		"/>
	<path class="st0" d="M131.61,46.59c-0.11,0-0.24-0.06-0.31-0.13c-0.09-0.09-0.15-0.22-0.15-0.33c0-0.11,0.06-0.22,0.13-0.31
		c0.18-0.18,0.49-0.18,0.66-0.02c0.09,0.11,0.13,0.22,0.13,0.33c0,0.11-0.04,0.22-0.13,0.31C131.85,46.53,131.74,46.59,131.61,46.59
		z"/>
	<path class="st0" d="M133.9,44.76c-0.11,0-0.22-0.04-0.31-0.13c-0.09-0.09-0.15-0.2-0.15-0.33c0-0.13,0.06-0.24,0.15-0.33
		c0.16-0.16,0.46-0.16,0.64,0c0.09,0.09,0.13,0.2,0.13,0.33c0,0.13-0.04,0.24-0.13,0.33C134.14,44.72,134.03,44.76,133.9,44.76z"/>
	<path class="st0" d="M134.36,40.63c-0.11,0-0.22-0.04-0.31-0.13c-0.09-0.09-0.15-0.2-0.15-0.33c0-0.13,0.06-0.24,0.15-0.33
		c0.16-0.16,0.46-0.16,0.64,0c0.09,0.09,0.13,0.2,0.13,0.33c0,0.13-0.04,0.24-0.13,0.33C134.59,40.6,134.49,40.63,134.36,40.63z"/>
	<path class="st0" d="M137.56,39.72c-0.11,0-0.24-0.06-0.31-0.13c-0.09-0.09-0.15-0.22-0.15-0.33c0-0.11,0.06-0.22,0.13-0.31
		c0.2-0.18,0.48-0.18,0.66-0.02c0.09,0.11,0.13,0.22,0.13,0.33c0,0.11-0.04,0.22-0.13,0.31C137.8,39.66,137.69,39.72,137.56,39.72z"
		/>
	<path class="st0" d="M21.7,93.76c-0.11,0-0.24-0.06-0.33-0.13c-0.07-0.11-0.13-0.22-0.13-0.33c0-0.13,0.06-0.24,0.13-0.33
		c0.16-0.16,0.48-0.16,0.66,0c0.09,0.09,0.13,0.2,0.13,0.33c0,0.11-0.04,0.24-0.13,0.31C21.94,93.72,21.83,93.76,21.7,93.76z"/>
	<path class="st0" d="M19.87,103.37c-0.11,0-0.22-0.04-0.31-0.13c-0.09-0.09-0.15-0.2-0.15-0.33c0-0.13,0.06-0.24,0.13-0.33
		c0.2-0.16,0.48-0.16,0.66,0c0.09,0.09,0.13,0.22,0.13,0.33c0,0.13-0.04,0.24-0.13,0.33C20.11,103.34,20,103.37,19.87,103.37z"/>
	<path class="st0" d="M20.33,107.49c-0.11,0-0.24-0.06-0.31-0.13c-0.09-0.09-0.15-0.2-0.15-0.33c0-0.11,0.06-0.24,0.13-0.33
		c0.18-0.16,0.48-0.16,0.66,0c0.07,0.09,0.13,0.2,0.13,0.33c0,0.13-0.05,0.24-0.13,0.33C20.57,107.44,20.46,107.49,20.33,107.49z"/>
	<path class="st0" d="M16.21,111.62c-0.11,0-0.24-0.06-0.31-0.13c-0.09-0.09-0.15-0.2-0.15-0.33c0-0.13,0.06-0.24,0.13-0.31
		c0.18-0.18,0.48-0.18,0.66-0.02c0.09,0.09,0.13,0.2,0.13,0.33c0,0.13-0.05,0.24-0.13,0.33C16.45,111.58,16.32,111.62,16.21,111.62z
		"/>
	<path class="st0" d="M11.17,107.49c-0.11,0-0.22-0.04-0.31-0.13c-0.09-0.09-0.15-0.2-0.15-0.33c0-0.11,0.06-0.24,0.13-0.31
		c0.2-0.2,0.48-0.18,0.64-0.02c0.11,0.11,0.15,0.22,0.15,0.33s-0.04,0.24-0.13,0.33C11.39,107.46,11.28,107.49,11.17,107.49z"/>
	<path class="st0" d="M24.91,124.9c-0.11,0-0.22-0.04-0.31-0.13c-0.09-0.09-0.15-0.2-0.15-0.33s0.06-0.24,0.13-0.33
		c0.2-0.16,0.48-0.16,0.66,0c0.09,0.09,0.13,0.2,0.13,0.33s-0.04,0.24-0.13,0.33C25.15,124.86,25.04,124.9,24.91,124.9z"/>
	<path class="st0" d="M11.17,130.39c-0.11,0-0.22-0.06-0.31-0.13c-0.09-0.09-0.15-0.2-0.15-0.33s0.06-0.24,0.13-0.33
		c0.18-0.16,0.48-0.16,0.66,0c0.09,0.09,0.13,0.2,0.13,0.33c0,0.11-0.04,0.24-0.13,0.33C11.39,130.36,11.28,130.39,11.17,130.39z"/>
	<path class="st0" d="M8.88,132.22c-0.11,0-0.24-0.06-0.33-0.13c-0.07-0.09-0.13-0.2-0.13-0.33c0-0.11,0.06-0.24,0.13-0.33
		c0.18-0.16,0.49-0.16,0.66,0c0.09,0.09,0.13,0.22,0.13,0.33S9.3,132,9.21,132.09C9.12,132.17,9.01,132.22,8.88,132.22z"/>
	<path class="st0" d="M27.2,137.72c-0.11,0-0.22-0.04-0.31-0.13c-0.09-0.09-0.15-0.2-0.15-0.33s0.06-0.24,0.13-0.33
		c0.2-0.16,0.48-0.16,0.66,0c0.09,0.09,0.13,0.22,0.13,0.33s-0.04,0.24-0.13,0.33C27.44,137.68,27.31,137.72,27.2,137.72z"/>
	<path class="st0" d="M39.56,135.43c-0.11,0-0.22-0.04-0.31-0.13c-0.09-0.09-0.15-0.2-0.15-0.33c0-0.13,0.06-0.24,0.13-0.33
		c0.2-0.16,0.48-0.16,0.66,0c0.09,0.09,0.13,0.2,0.13,0.33c0,0.13-0.05,0.24-0.13,0.33C39.8,135.39,39.67,135.43,39.56,135.43z"/>
	<path class="st0" d="M40.48,130.85c-0.11,0-0.22-0.06-0.31-0.13c-0.09-0.11-0.15-0.22-0.15-0.33c0-0.13,0.06-0.24,0.13-0.33
		c0.2-0.16,0.48-0.16,0.66,0c0.09,0.09,0.13,0.2,0.13,0.33c0,0.11-0.04,0.24-0.13,0.31C40.72,130.79,40.61,130.85,40.48,130.85z"/>
	<path class="st0" d="M36.81,121.69c-0.13,0-0.24-0.06-0.33-0.15c-0.07-0.07-0.13-0.18-0.13-0.31c0-0.13,0.06-0.24,0.13-0.33
		c0.18-0.16,0.48-0.16,0.66,0c0.09,0.09,0.13,0.2,0.13,0.33c0,0.13-0.04,0.24-0.13,0.33C37.05,121.63,36.94,121.69,36.81,121.69z"/>
	<path class="st0" d="M42.31,121.69c-0.11,0-0.24-0.06-0.31-0.13c-0.09-0.09-0.15-0.2-0.15-0.33c0-0.13,0.06-0.24,0.13-0.33
		c0.18-0.16,0.49-0.16,0.66,0c0.07,0.07,0.13,0.2,0.13,0.33c0,0.13-0.05,0.26-0.15,0.33C42.55,121.63,42.44,121.69,42.31,121.69z"/>
	<path class="st0" d="M42.77,113.45c-0.11,0-0.22-0.04-0.31-0.13c-0.09-0.09-0.15-0.2-0.15-0.33c0-0.11,0.06-0.24,0.13-0.31
		c0.2-0.2,0.48-0.18,0.66-0.02c0.09,0.11,0.13,0.22,0.13,0.33s-0.04,0.24-0.13,0.33C43.01,113.41,42.9,113.45,42.77,113.45z"/>
	<path class="st0" d="M41.39,109.78c-0.11,0-0.22-0.04-0.31-0.13c-0.09-0.09-0.15-0.2-0.15-0.33s0.06-0.24,0.15-0.33
		c0.18-0.16,0.48-0.16,0.64,0c0.09,0.09,0.13,0.22,0.13,0.33s-0.04,0.22-0.13,0.31C41.63,109.73,41.52,109.78,41.39,109.78z"/>
	<path class="st0" d="M36.81,107.95c-0.11,0-0.24-0.06-0.33-0.13c-0.07-0.09-0.13-0.2-0.13-0.33c0-0.11,0.06-0.22,0.13-0.31
		c0.18-0.18,0.48-0.18,0.66-0.02c0.09,0.09,0.13,0.22,0.13,0.33c0,0.13-0.04,0.24-0.13,0.33C37.05,107.92,36.94,107.95,36.81,107.95
		z"/>
	<path class="st0" d="M42.31,101.08c-0.11,0-0.24-0.06-0.31-0.13c-0.09-0.09-0.15-0.22-0.15-0.33c0-0.13,0.06-0.24,0.13-0.33
		c0.18-0.16,0.49-0.16,0.66,0c0.07,0.07,0.13,0.2,0.13,0.33s-0.04,0.24-0.13,0.33C42.55,101.03,42.44,101.08,42.31,101.08z"/>
	<path class="st0" d="M41.85,93.76c-0.11,0-0.24-0.06-0.31-0.13c-0.09-0.09-0.15-0.22-0.15-0.33c0-0.13,0.06-0.24,0.13-0.33
		c0.18-0.16,0.48-0.16,0.66,0c0.07,0.09,0.13,0.2,0.13,0.33c0,0.11-0.04,0.24-0.13,0.31C42.09,93.72,41.98,93.76,41.85,93.76z"/>
	<path class="st0" d="M36.81,94.21c-0.13,0-0.24-0.06-0.33-0.13c-0.07-0.09-0.13-0.22-0.13-0.33c0-0.13,0.06-0.24,0.13-0.33
		c0.16-0.16,0.48-0.16,0.66,0c0.09,0.09,0.13,0.2,0.13,0.33c0,0.11-0.04,0.24-0.13,0.33C37.05,94.18,36.94,94.21,36.81,94.21z"/>
	<path class="st0" d="M45.52,90.55c-0.11,0-0.22-0.04-0.31-0.13c-0.09-0.09-0.15-0.2-0.15-0.33c0-0.13,0.06-0.24,0.15-0.33
		c0.18-0.16,0.46-0.16,0.64,0c0.09,0.09,0.13,0.22,0.13,0.33c0,0.11-0.04,0.22-0.13,0.31C45.75,90.51,45.64,90.55,45.52,90.55z"/>
	<path class="st0" d="M59.25,101.08c-0.11,0-0.24-0.06-0.31-0.13c-0.09-0.09-0.15-0.2-0.15-0.33s0.06-0.24,0.15-0.33
		c0.16-0.16,0.48-0.16,0.64,0c0.09,0.11,0.13,0.22,0.13,0.33s-0.04,0.24-0.13,0.33C59.49,101.03,59.38,101.08,59.25,101.08z"/>
	<path class="st0" d="M66.58,100.62c-0.11,0-0.24-0.06-0.31-0.13c-0.09-0.09-0.15-0.2-0.15-0.33c0-0.13,0.06-0.24,0.15-0.33
		c0.16-0.16,0.46-0.16,0.64,0c0.09,0.09,0.13,0.22,0.13,0.33c0,0.11-0.04,0.24-0.13,0.33C66.82,100.57,66.71,100.62,66.58,100.62z"
		/>
	<path class="st0" d="M56.96,107.04c-0.13,0-0.24-0.06-0.33-0.15c-0.07-0.07-0.13-0.18-0.13-0.31c0-0.13,0.06-0.26,0.15-0.33
		c0.16-0.16,0.48-0.16,0.64,0c0.09,0.09,0.13,0.2,0.13,0.33c0,0.11-0.04,0.24-0.13,0.33C57.22,106.98,57.09,107.04,56.96,107.04z"/>
	<path class="st0" d="M65.67,109.78c-0.11,0-0.22-0.06-0.31-0.13c-0.09-0.09-0.15-0.2-0.15-0.33c0-0.11,0.06-0.24,0.13-0.31
		c0.2-0.2,0.48-0.18,0.66-0.02c0.09,0.11,0.13,0.22,0.13,0.33c0,0.13-0.04,0.24-0.13,0.33C65.9,109.73,65.79,109.78,65.67,109.78z"
		/>
	<path class="st0" d="M65.67,112.99c-0.11,0-0.22-0.04-0.31-0.13c-0.09-0.09-0.15-0.2-0.15-0.33c0-0.11,0.06-0.24,0.13-0.31
		c0.2-0.2,0.48-0.18,0.66-0.02c0.09,0.11,0.13,0.22,0.13,0.33c0,0.11-0.04,0.24-0.13,0.33C65.9,112.95,65.79,112.99,65.67,112.99z"
		/>
	<path class="st0" d="M69.33,114.36c-0.13,0-0.24-0.06-0.33-0.15c-0.07-0.07-0.13-0.18-0.13-0.31c0-0.13,0.06-0.26,0.15-0.33
		c0.16-0.16,0.48-0.16,0.64,0c0.09,0.09,0.13,0.2,0.13,0.33c0,0.11-0.04,0.24-0.13,0.33C69.59,114.31,69.46,114.36,69.33,114.36z"/>
	<path class="st0" d="M69.33,118.03c-0.11,0-0.22-0.04-0.31-0.13c-0.09-0.09-0.15-0.2-0.15-0.33c0-0.13,0.06-0.24,0.15-0.33
		c0.16-0.16,0.48-0.16,0.64,0c0.09,0.11,0.13,0.22,0.13,0.33s-0.04,0.24-0.13,0.33C69.57,117.97,69.46,118.03,69.33,118.03z"/>
	<path class="st0" d="M69.79,129.93c-0.11,0-0.24-0.06-0.31-0.13c-0.09-0.09-0.15-0.2-0.15-0.33c0-0.13,0.06-0.24,0.15-0.33
		c0.16-0.16,0.46-0.16,0.64,0c0.09,0.09,0.13,0.22,0.13,0.33s-0.04,0.24-0.13,0.33C70.02,129.88,69.92,129.93,69.79,129.93z"/>
	<path class="st0" d="M54.67,126.27c-0.11,0-0.22-0.04-0.31-0.13c-0.09-0.09-0.15-0.2-0.15-0.33s0.06-0.24,0.15-0.33
		c0.16-0.16,0.48-0.16,0.64,0.02c0.09,0.07,0.13,0.2,0.13,0.31c0,0.13-0.04,0.24-0.13,0.33C54.91,126.23,54.8,126.27,54.67,126.27z"
		/>
	<path class="st0" d="M75.28,112.99c-0.11,0-0.24-0.06-0.31-0.13c-0.09-0.09-0.15-0.2-0.15-0.33c0-0.13,0.06-0.24,0.15-0.33
		c0.16-0.16,0.46-0.16,0.62,0c0.11,0.09,0.15,0.22,0.15,0.33c0,0.11-0.04,0.22-0.13,0.31C75.52,112.95,75.41,112.99,75.28,112.99z"
		/>
	<path class="st0" d="M78.95,110.24c-0.11,0-0.24-0.06-0.31-0.13c-0.09-0.09-0.15-0.2-0.15-0.33c0-0.13,0.06-0.24,0.15-0.33
		c0.16-0.16,0.46-0.16,0.64,0c0.09,0.09,0.13,0.22,0.13,0.33c0,0.11-0.04,0.22-0.13,0.31C79.18,110.21,79.07,110.24,78.95,110.24z"
		/>
	<path class="st0" d="M83.53,108.41c-0.11,0-0.24-0.06-0.31-0.13c-0.09-0.09-0.15-0.2-0.15-0.33s0.06-0.26,0.15-0.33
		c0.16-0.16,0.48-0.16,0.64,0c0.09,0.09,0.13,0.2,0.13,0.33c0,0.11-0.04,0.22-0.13,0.31C83.76,108.35,83.65,108.41,83.53,108.41z"/>
	<path class="st0" d="M83.53,100.62c-0.11,0-0.22-0.04-0.31-0.13c-0.09-0.09-0.15-0.2-0.15-0.33c0-0.13,0.06-0.24,0.15-0.33
		c0.16-0.16,0.48-0.16,0.64,0c0.09,0.09,0.13,0.2,0.13,0.33c0,0.11-0.04,0.24-0.13,0.33C83.76,100.57,83.65,100.62,83.53,100.62z"/>
	<path class="st0" d="M86.73,89.63c-0.11,0-0.22-0.06-0.31-0.13c-0.09-0.09-0.15-0.2-0.15-0.33c0-0.13,0.06-0.24,0.15-0.33
		c0.16-0.16,0.46-0.16,0.64,0c0.09,0.09,0.13,0.22,0.13,0.33c0,0.11-0.04,0.24-0.13,0.33C86.97,89.6,86.84,89.63,86.73,89.63z"/>
	<path class="st0" d="M100.47,100.17c-0.11,0-0.22-0.06-0.31-0.13c-0.09-0.09-0.15-0.2-0.15-0.33c0-0.13,0.06-0.24,0.15-0.33
		c0.16-0.16,0.46-0.16,0.64,0c0.09,0.09,0.13,0.2,0.13,0.33c0,0.13-0.04,0.24-0.13,0.33C100.71,100.13,100.6,100.17,100.47,100.17z"
		/>
	<path class="st0" d="M102.3,92.84c-0.11,0-0.24-0.06-0.31-0.13c-0.09-0.09-0.15-0.2-0.15-0.33c0-0.13,0.06-0.24,0.15-0.33
		c0.16-0.16,0.46-0.16,0.64,0c0.09,0.11,0.13,0.22,0.13,0.33s-0.04,0.22-0.13,0.31C102.54,92.8,102.43,92.84,102.3,92.84z"/>
	<path class="st0" d="M107.8,93.76c-0.11,0-0.22-0.04-0.31-0.13c-0.09-0.09-0.15-0.2-0.15-0.33s0.06-0.24,0.15-0.33
		c0.16-0.16,0.46-0.16,0.64,0c0.09,0.09,0.13,0.22,0.13,0.33s-0.04,0.24-0.13,0.33C108.03,93.72,107.93,93.76,107.8,93.76z"/>
	<path class="st0" d="M107.8,107.04c-0.11,0-0.22-0.06-0.31-0.13c-0.09-0.09-0.15-0.2-0.15-0.33c0-0.13,0.06-0.24,0.15-0.33
		c0.16-0.16,0.46-0.16,0.64,0c0.09,0.09,0.13,0.22,0.13,0.33s-0.04,0.24-0.13,0.33C108.03,107,107.93,107.04,107.8,107.04z"/>
	<path class="st0" d="M100.93,110.7c-0.11,0-0.24-0.06-0.31-0.13c-0.09-0.09-0.15-0.2-0.15-0.33c0-0.13,0.06-0.24,0.15-0.33
		c0.16-0.16,0.46-0.16,0.64,0c0.09,0.09,0.13,0.2,0.13,0.33c0,0.13-0.04,0.24-0.13,0.33C101.17,110.64,101.06,110.7,100.93,110.7z"
		/>
	<path class="st0" d="M102.76,117.11c-0.11,0-0.22-0.04-0.31-0.13c-0.09-0.09-0.15-0.2-0.15-0.33s0.06-0.24,0.15-0.33
		c0.16-0.16,0.46-0.16,0.64,0c0.09,0.11,0.13,0.22,0.13,0.33s-0.04,0.22-0.13,0.31C103,117.08,102.89,117.11,102.76,117.11z"/>
	<path class="st0" d="M100.47,124.44c-0.11,0-0.24-0.06-0.31-0.13c-0.09-0.09-0.15-0.2-0.15-0.33s0.06-0.24,0.15-0.33
		c0.16-0.16,0.46-0.16,0.64,0c0.09,0.09,0.13,0.22,0.13,0.33s-0.04,0.24-0.13,0.31C100.71,124.4,100.6,124.44,100.47,124.44z"/>
	<path class="st0" d="M104.59,124.44c-0.11,0-0.24-0.06-0.31-0.13c-0.09-0.09-0.15-0.22-0.15-0.33s0.06-0.24,0.13-0.31
		c0.18-0.18,0.48-0.18,0.66-0.02c0.09,0.11,0.13,0.22,0.13,0.33s-0.04,0.22-0.13,0.31C104.83,124.38,104.72,124.44,104.59,124.44z"
		/>
	<path class="st0" d="M107.8,127.19c-0.11,0-0.22-0.06-0.31-0.13c-0.09-0.09-0.15-0.2-0.15-0.33s0.06-0.24,0.15-0.33
		c0.16-0.16,0.46-0.16,0.64,0c0.09,0.09,0.13,0.22,0.13,0.33c0,0.11-0.04,0.24-0.13,0.33C108.03,127.15,107.93,127.19,107.8,127.19z
		"/>
	<path class="st0" d="M110.09,125.35c-0.11,0-0.22-0.06-0.31-0.13c-0.09-0.09-0.15-0.2-0.15-0.33s0.06-0.24,0.15-0.33
		c0.16-0.16,0.46-0.16,0.64,0c0.09,0.09,0.13,0.22,0.13,0.33c0,0.13-0.04,0.24-0.13,0.33C110.32,125.32,110.21,125.35,110.09,125.35
		z"/>
	<path class="st0" d="M110.54,121.23c-0.11,0-0.24-0.06-0.31-0.13c-0.09-0.11-0.15-0.22-0.15-0.33c0-0.13,0.06-0.24,0.15-0.33
		c0.13-0.15,0.48-0.16,0.64,0.02c0.09,0.07,0.13,0.2,0.13,0.31c0,0.11-0.04,0.22-0.13,0.31
		C110.78,121.18,110.67,121.23,110.54,121.23z"/>
	<path class="st0" d="M113.75,120.32c-0.11,0-0.24-0.06-0.31-0.13c-0.09-0.09-0.15-0.22-0.15-0.33c0-0.11,0.06-0.24,0.13-0.31
		c0.18-0.18,0.49-0.18,0.66-0.02c0.09,0.11,0.13,0.22,0.13,0.33c0,0.11-0.04,0.22-0.13,0.31
		C114.01,120.26,113.88,120.32,113.75,120.32z"/>
	<path class="st0" d="M45.52,57.12c-0.11,0-0.22-0.04-0.31-0.13c-0.09-0.09-0.15-0.2-0.15-0.33c0-0.13,0.06-0.24,0.15-0.33
		c0.18-0.16,0.46-0.16,0.64,0c0.09,0.09,0.13,0.22,0.13,0.33c0,0.11-0.04,0.24-0.13,0.33C45.75,57.08,45.63,57.12,45.52,57.12z"/>
	<path class="st0" d="M48.72,51.62c-0.13,0-0.24-0.06-0.33-0.13c-0.07-0.09-0.13-0.2-0.13-0.33c0-0.13,0.06-0.24,0.15-0.33
		c0.18-0.16,0.48-0.16,0.64,0c0.09,0.09,0.13,0.22,0.13,0.33c0,0.11-0.04,0.24-0.13,0.33C48.98,51.57,48.85,51.62,48.72,51.62z"/>
	<path class="st0" d="M53.3,52.54c-0.11,0-0.22-0.06-0.31-0.13c-0.09-0.09-0.15-0.2-0.15-0.33c0-0.13,0.06-0.24,0.15-0.33
		c0.18-0.16,0.46-0.16,0.64,0c0.09,0.09,0.13,0.22,0.13,0.33c0,0.11-0.04,0.24-0.13,0.33C53.54,52.49,53.43,52.54,53.3,52.54z"/>
	<path class="st0" d="M71.62,50.25c-0.11,0-0.22-0.04-0.31-0.13c-0.09-0.09-0.15-0.2-0.15-0.33c0-0.13,0.06-0.24,0.15-0.33
		c0.18-0.16,0.46-0.16,0.64,0c0.09,0.09,0.13,0.2,0.13,0.33c0,0.13-0.05,0.24-0.13,0.33C71.86,50.22,71.75,50.25,71.62,50.25z"/>
	<path class="st0" d="M78.49,53c-0.11,0-0.22-0.04-0.31-0.13c-0.09-0.09-0.15-0.2-0.15-0.33s0.06-0.24,0.15-0.33
		c0.18-0.16,0.46-0.16,0.64,0c0.09,0.09,0.13,0.2,0.13,0.33s-0.05,0.24-0.13,0.33C78.73,52.96,78.6,53,78.49,53z"/>
	<path class="st0" d="M89.48,61.7c-0.11,0-0.22-0.04-0.31-0.13c-0.09-0.09-0.15-0.2-0.15-0.33c0-0.13,0.06-0.24,0.15-0.33
		c0.18-0.16,0.46-0.16,0.64,0c0.09,0.09,0.13,0.2,0.13,0.33c0,0.13-0.04,0.24-0.13,0.33C89.72,61.66,89.59,61.7,89.48,61.7z"/>
	<path class="st0" d="M91.77,60.78c-0.11,0-0.24-0.06-0.31-0.13c-0.09-0.09-0.15-0.2-0.15-0.33s0.06-0.24,0.15-0.33
		c0.16-0.16,0.46-0.16,0.62,0c0.11,0.11,0.15,0.22,0.15,0.33c0,0.11-0.04,0.22-0.13,0.31C92.01,60.75,91.9,60.78,91.77,60.78z"/>
	<path class="st0" d="M108.25,58.95c-0.11,0-0.24-0.06-0.31-0.13c-0.09-0.09-0.15-0.2-0.15-0.33s0.06-0.24,0.15-0.33
		c0.16-0.16,0.46-0.16,0.64,0c0.09,0.09,0.13,0.22,0.13,0.33c0,0.11-0.04,0.24-0.13,0.33C108.49,58.9,108.38,58.95,108.25,58.95z"/>
	<path class="st0" d="M100.93,53.91c-0.11,0-0.22-0.04-0.31-0.13c-0.09-0.09-0.15-0.2-0.15-0.33c0-0.13,0.06-0.24,0.15-0.33
		c0.16-0.16,0.46-0.16,0.64,0c0.09,0.09,0.13,0.2,0.13,0.33c0,0.13-0.05,0.24-0.13,0.33C101.17,53.88,101.06,53.91,100.93,53.91z"/>
	<path class="st0" d="M102.3,61.7c-0.11,0-0.24-0.06-0.31-0.13c-0.09-0.09-0.15-0.2-0.15-0.33c0-0.13,0.06-0.24,0.15-0.33
		c0.16-0.16,0.46-0.16,0.64,0c0.09,0.11,0.13,0.22,0.13,0.33c0,0.11-0.04,0.22-0.13,0.31C102.54,61.66,102.43,61.7,102.3,61.7z"/>
	<path class="st0" d="M121.53,72.69c-0.11,0-0.24-0.06-0.31-0.13c-0.09-0.09-0.15-0.2-0.15-0.33c0-0.13,0.06-0.24,0.15-0.33
		c0.15-0.15,0.44-0.16,0.62,0c0.11,0.09,0.15,0.22,0.15,0.33c0,0.11-0.04,0.24-0.13,0.33C121.77,72.65,121.65,72.69,121.53,72.69z"
		/>
	<path class="st0" d="M113.75,77.73c-0.13,0-0.24-0.06-0.31-0.13c-0.09-0.09-0.15-0.22-0.15-0.33s0.06-0.24,0.13-0.31
		c0.18-0.18,0.49-0.18,0.66-0.02c0.09,0.11,0.13,0.22,0.13,0.33s-0.04,0.22-0.13,0.31C114.01,77.67,113.88,77.73,113.75,77.73z"/>
	<path class="st0" d="M96.81,79.1c-0.13,0-0.24-0.06-0.31-0.13c-0.09-0.09-0.15-0.22-0.15-0.33s0.06-0.24,0.13-0.31
		c0.18-0.18,0.48-0.18,0.66-0.02c0.09,0.11,0.13,0.22,0.13,0.33s-0.04,0.22-0.13,0.31C97.04,79.05,96.93,79.1,96.81,79.1z"/>
	<path class="st0" d="M94.97,83.22c-0.11,0-0.22-0.04-0.31-0.13c-0.09-0.09-0.15-0.2-0.15-0.33c0-0.13,0.06-0.24,0.15-0.33
		c0.16-0.16,0.44-0.16,0.62,0c0.11,0.09,0.15,0.22,0.15,0.33c0,0.11-0.04,0.22-0.13,0.31C95.19,83.19,95.1,83.22,94.97,83.22z"/>
	<path class="st0" d="M102.3,86.43c-0.13,0-0.24-0.06-0.33-0.15c-0.07-0.07-0.13-0.18-0.13-0.31s0.06-0.24,0.15-0.33
		c0.16-0.16,0.46-0.16,0.64,0c0.09,0.09,0.13,0.22,0.13,0.33s-0.04,0.24-0.13,0.33C102.54,86.37,102.43,86.43,102.3,86.43z"/>
	<path class="st0" d="M105.05,90.09c-0.11,0-0.24-0.06-0.31-0.13c-0.09-0.09-0.15-0.2-0.15-0.33s0.06-0.24,0.15-0.33
		c0.15-0.16,0.46-0.16,0.64,0c0.09,0.09,0.13,0.22,0.13,0.33s-0.04,0.24-0.13,0.33C105.29,90.04,105.18,90.09,105.05,90.09z"/>
	<path class="st0" d="M121.08,95.59c-0.11,0-0.24-0.06-0.31-0.13c-0.09-0.09-0.15-0.22-0.15-0.33c0-0.11,0.06-0.24,0.13-0.31
		c0.18-0.18,0.48-0.18,0.66-0.02c0.09,0.11,0.13,0.22,0.13,0.33c0,0.11-0.04,0.22-0.13,0.31C121.31,95.53,121.21,95.59,121.08,95.59
		z"/>
	<path class="st0" d="M126.11,102.46c-0.11,0-0.22-0.06-0.31-0.13c-0.09-0.09-0.15-0.2-0.15-0.33s0.06-0.26,0.15-0.33
		c0.16-0.15,0.46-0.16,0.64,0c0.07,0.09,0.13,0.2,0.13,0.33s-0.04,0.24-0.13,0.33C126.35,102.42,126.24,102.46,126.11,102.46z"/>
	<path class="st0" d="M129.78,102.46c-0.11,0-0.24-0.06-0.31-0.13c-0.09-0.09-0.15-0.2-0.15-0.33s0.06-0.24,0.15-0.33
		c0.15-0.15,0.46-0.16,0.64,0c0.09,0.09,0.13,0.2,0.13,0.33s-0.04,0.24-0.13,0.33C130.02,102.42,129.91,102.46,129.78,102.46z"/>
	<path class="st0" d="M134.36,90.09c-0.11,0-0.22-0.06-0.31-0.13c-0.09-0.09-0.15-0.2-0.15-0.33s0.06-0.24,0.15-0.33
		c0.16-0.16,0.46-0.16,0.64,0c0.09,0.09,0.13,0.2,0.13,0.33s-0.04,0.24-0.13,0.33C134.59,90.06,134.49,90.09,134.36,90.09z"/>
	<path class="st0" d="M116.96,79.1c-0.11,0-0.22-0.04-0.31-0.13c-0.09-0.09-0.15-0.2-0.15-0.33s0.06-0.24,0.15-0.33
		c0.16-0.16,0.46-0.16,0.64,0c0.07,0.09,0.13,0.2,0.13,0.33s-0.05,0.24-0.13,0.33C117.19,79.07,117.08,79.1,116.96,79.1z"/>
	<path class="st0" d="M93.6,95.13c-0.11,0-0.24-0.06-0.31-0.13c-0.09-0.09-0.15-0.2-0.15-0.33s0.06-0.26,0.15-0.33
		c0.15-0.15,0.46-0.16,0.64,0c0.07,0.09,0.13,0.2,0.13,0.33s-0.04,0.24-0.13,0.33C93.84,95.09,93.73,95.13,93.6,95.13z"/>
	<path class="st0" d="M66.58,93.76c-0.11,0-0.22-0.06-0.31-0.13c-0.09-0.09-0.15-0.2-0.15-0.33s0.06-0.24,0.15-0.33
		c0.16-0.16,0.48-0.16,0.64,0c0.09,0.09,0.13,0.22,0.13,0.33s-0.04,0.24-0.13,0.33C66.82,93.7,66.71,93.76,66.58,93.76z"/>
	<path class="st0" d="M74.82,89.18c-0.11,0-0.22-0.06-0.31-0.13c-0.09-0.09-0.15-0.22-0.15-0.33c0-0.13,0.06-0.24,0.13-0.31
		c0.2-0.2,0.48-0.18,0.66-0.02c0.09,0.09,0.13,0.22,0.13,0.33s-0.04,0.24-0.13,0.31C75.06,89.12,74.95,89.18,74.82,89.18z"/>
	<path class="st0" d="M55.13,76.81c-0.11,0-0.22-0.06-0.31-0.13c-0.09-0.09-0.15-0.2-0.15-0.33s0.06-0.24,0.15-0.33
		c0.18-0.16,0.46-0.16,0.64,0c0.09,0.09,0.13,0.22,0.13,0.33s-0.04,0.24-0.13,0.33C55.37,76.76,55.26,76.81,55.13,76.81z"/>
	<path class="st0" d="M61.54,72.69c-0.11,0-0.22-0.04-0.31-0.13c-0.09-0.09-0.15-0.2-0.15-0.33c0-0.13,0.06-0.24,0.15-0.33
		c0.18-0.16,0.46-0.16,0.64,0c0.09,0.09,0.13,0.22,0.13,0.33c0,0.11-0.04,0.22-0.13,0.31C61.78,72.65,61.67,72.69,61.54,72.69z"/>
	<path class="st0" d="M38.19,59.87c-0.11,0-0.22-0.04-0.31-0.13c-0.09-0.09-0.15-0.2-0.15-0.33c0-0.11,0.06-0.22,0.13-0.31
		c0.2-0.2,0.48-0.18,0.66-0.02c0.09,0.09,0.13,0.22,0.13,0.33c0,0.13-0.04,0.24-0.13,0.33C38.43,59.83,38.32,59.87,38.19,59.87z"/>
	<path class="st0" d="M26.28,61.7c-0.11,0-0.22-0.04-0.31-0.13c-0.09-0.09-0.15-0.2-0.15-0.33c0-0.11,0.06-0.22,0.13-0.31
		c0.2-0.2,0.48-0.18,0.66-0.02c0.09,0.11,0.13,0.22,0.13,0.33c0,0.11-0.04,0.24-0.13,0.33C26.52,61.66,26.41,61.7,26.28,61.7z"/>
	<path class="st0" d="M18.04,65.36c-0.11,0-0.22-0.04-0.31-0.13c-0.09-0.09-0.15-0.2-0.15-0.33c0-0.11,0.06-0.22,0.13-0.31
		c0.22-0.2,0.48-0.18,0.66-0.02c0.09,0.11,0.13,0.22,0.13,0.33c0,0.13-0.04,0.24-0.13,0.33C18.28,65.33,18.17,65.36,18.04,65.36z"/>
	<path class="st0" d="M11.63,72.23c-0.13,0-0.24-0.06-0.31-0.13c-0.09-0.09-0.15-0.22-0.15-0.33c0-0.13,0.06-0.24,0.15-0.33
		c0.15-0.16,0.44-0.16,0.62,0c0.11,0.09,0.15,0.2,0.15,0.33c0,0.11-0.04,0.24-0.13,0.31C11.87,72.2,11.76,72.23,11.63,72.23z"/>
	<path class="st0" d="M27.66,74.98c-0.13,0-0.24-0.06-0.33-0.13c-0.07-0.09-0.13-0.22-0.13-0.33c0-0.13,0.06-0.24,0.13-0.33
		c0.18-0.16,0.46-0.16,0.66,0c0.09,0.09,0.13,0.2,0.13,0.33c0,0.13-0.04,0.24-0.13,0.33C27.89,74.94,27.78,74.98,27.66,74.98z"/>
	<path class="st0" d="M38.19,84.6c-0.11,0-0.22-0.04-0.31-0.13c-0.09-0.09-0.15-0.2-0.15-0.33c0-0.11,0.06-0.24,0.13-0.33
		c0.2-0.16,0.48-0.16,0.66,0c0.09,0.09,0.13,0.2,0.13,0.33c0,0.13-0.05,0.24-0.13,0.33C38.43,84.56,38.32,84.6,38.19,84.6z"/>
	<path class="st0" d="M30.4,73.61c-0.11,0-0.24-0.06-0.31-0.13c-0.09-0.09-0.15-0.2-0.15-0.33c0-0.11,0.06-0.24,0.13-0.31
		c0.18-0.18,0.48-0.18,0.66-0.02c0.09,0.09,0.13,0.2,0.13,0.33c0,0.13-0.04,0.24-0.13,0.33C30.64,73.57,30.51,73.61,30.4,73.61z"/>
	<path class="st0" d="M55.59,63.07c-0.11,0-0.22-0.04-0.31-0.13c-0.09-0.09-0.15-0.2-0.15-0.33c0-0.13,0.06-0.24,0.15-0.33
		c0.18-0.16,0.46-0.16,0.64,0c0.09,0.09,0.13,0.22,0.13,0.33c0,0.11-0.04,0.24-0.13,0.33C55.83,63.04,55.72,63.07,55.59,63.07z"/>
	<path class="st0" d="M76.2,64.45c-0.11,0-0.22-0.04-0.31-0.13c-0.09-0.09-0.15-0.2-0.15-0.33c0-0.13,0.06-0.24,0.15-0.33
		c0.18-0.16,0.46-0.16,0.64,0c0.09,0.09,0.13,0.2,0.13,0.33c0,0.13-0.04,0.24-0.13,0.33C76.44,64.41,76.31,64.45,76.2,64.45z"/>
	<path class="st0" d="M79.4,67.19c-0.11,0-0.22-0.04-0.31-0.13c-0.09-0.09-0.15-0.2-0.15-0.33c0-0.13,0.06-0.24,0.15-0.33
		c0.15-0.16,0.48-0.16,0.64,0.02c0.09,0.07,0.13,0.2,0.13,0.31s-0.04,0.24-0.13,0.33C79.64,67.14,79.53,67.19,79.4,67.19z"/>
	<path class="st0" d="M58.34,84.6c-0.11,0-0.22-0.06-0.31-0.13c-0.09-0.09-0.15-0.22-0.15-0.33c0-0.11,0.06-0.22,0.13-0.31
		c0.2-0.18,0.48-0.18,0.64-0.02c0.11,0.11,0.15,0.22,0.15,0.33c0,0.11-0.04,0.24-0.13,0.31C58.58,84.56,58.47,84.6,58.34,84.6z"/>
	<path class="st0" d="M18.96,45.21c-0.11,0-0.24-0.06-0.31-0.13c-0.09-0.09-0.15-0.22-0.15-0.33c0-0.13,0.06-0.24,0.13-0.33
		c0.18-0.16,0.48-0.16,0.66,0c0.09,0.09,0.13,0.2,0.13,0.33c0,0.11-0.04,0.24-0.13,0.31C19.19,45.18,19.08,45.21,18.96,45.21z"/>
	<path class="st0" d="M25.82,44.76c-0.11,0-0.24-0.06-0.31-0.13c-0.09-0.09-0.15-0.2-0.15-0.33c0-0.13,0.06-0.24,0.13-0.33
		c0.18-0.16,0.48-0.16,0.66,0c0.09,0.09,0.13,0.2,0.13,0.33c0,0.13-0.04,0.24-0.13,0.33C26.06,44.72,25.95,44.76,25.82,44.76z"/>
	<path class="st0" d="M28.57,50.71c-0.11,0-0.22-0.04-0.31-0.13c-0.09-0.09-0.15-0.2-0.15-0.33c0-0.11,0.06-0.22,0.13-0.31
		c0.2-0.2,0.48-0.18,0.66-0.02c0.09,0.11,0.13,0.22,0.13,0.33c0,0.11-0.04,0.24-0.13,0.33C28.81,50.67,28.68,50.71,28.57,50.71z"/>
	<path class="st0" d="M12.54,54.83c-0.11,0-0.24-0.06-0.31-0.13c-0.09-0.09-0.15-0.2-0.15-0.33s0.06-0.24,0.13-0.33
		c0.18-0.16,0.48-0.16,0.66,0c0.09,0.09,0.13,0.2,0.13,0.33s-0.04,0.24-0.13,0.33C12.78,54.79,12.65,54.83,12.54,54.83z"/>
	<path class="st0" d="M124.74,61.7c-0.11,0-0.24-0.06-0.31-0.13c-0.09-0.09-0.15-0.22-0.15-0.33c0-0.11,0.06-0.24,0.13-0.31
		c0.18-0.18,0.46-0.18,0.64-0.02c0.11,0.09,0.15,0.22,0.15,0.33c0,0.11-0.04,0.24-0.13,0.31C124.98,61.66,124.87,61.7,124.74,61.7z"
		/>
	<path class="st0" d="M130.69,63.99c-0.11,0-0.24-0.06-0.31-0.13c-0.09-0.09-0.15-0.2-0.15-0.33c0-0.11,0.06-0.24,0.13-0.31
		c0.18-0.18,0.48-0.18,0.66-0.02c0.09,0.11,0.13,0.22,0.13,0.33s-0.04,0.24-0.13,0.33C130.93,63.93,130.82,63.99,130.69,63.99z"/>
	<path class="st0" d="M134.36,62.16c-0.11,0-0.24-0.06-0.31-0.13c-0.09-0.09-0.15-0.2-0.15-0.33s0.06-0.24,0.15-0.33
		c0.16-0.16,0.46-0.16,0.64,0c0.09,0.09,0.13,0.2,0.13,0.33s-0.04,0.24-0.13,0.33C134.59,62.1,134.49,62.16,134.36,62.16z"/>
	<path class="st0" d="M20.33,36.51c-0.13,0-0.24-0.06-0.33-0.15c-0.07-0.07-0.13-0.18-0.13-0.31s0.06-0.24,0.13-0.33
		c0.18-0.16,0.48-0.16,0.66,0c0.07,0.09,0.13,0.2,0.13,0.33s-0.05,0.24-0.13,0.33C20.57,36.46,20.46,36.51,20.33,36.51z"/>
	<path class="st0" d="M9.8,24.15c-0.11,0-0.24-0.06-0.33-0.13c-0.07-0.09-0.13-0.2-0.13-0.33c0-0.13,0.06-0.24,0.13-0.33
		c0.16-0.16,0.48-0.16,0.66,0c0.09,0.09,0.13,0.22,0.13,0.33c0,0.11-0.04,0.24-0.13,0.33C10.03,24.09,9.92,24.15,9.8,24.15z"/>
	<path class="st0" d="M33.61,19.57c-0.11,0-0.22-0.04-0.31-0.13c-0.09-0.09-0.15-0.2-0.15-0.33c0-0.11,0.06-0.24,0.13-0.31
		c0.2-0.2,0.48-0.18,0.66-0.02c0.09,0.09,0.13,0.2,0.13,0.33c0,0.13-0.04,0.24-0.13,0.33C33.85,19.53,33.74,19.57,33.61,19.57z"/>
	<path class="st0" d="M22.62,17.28c-0.11,0-0.22-0.04-0.31-0.13c-0.09-0.09-0.15-0.2-0.15-0.33s0.06-0.24,0.13-0.33
		c0.18-0.16,0.49-0.16,0.66,0.02c0.09,0.07,0.13,0.18,0.13,0.31c0,0.11-0.04,0.24-0.13,0.33C22.86,17.24,22.75,17.28,22.62,17.28z"
		/>
	<path class="st0" d="M13.46,12.24c-0.13,0-0.24-0.06-0.33-0.15C13.06,12.02,13,11.91,13,11.78s0.06-0.24,0.15-0.33
		c0.15-0.16,0.46-0.16,0.64,0c0.07,0.09,0.13,0.2,0.13,0.33s-0.05,0.24-0.13,0.33C13.7,12.19,13.59,12.24,13.46,12.24z"/>
	<path class="st0" d="M13.92,18.65c-0.11,0-0.24-0.06-0.31-0.13c-0.09-0.09-0.15-0.2-0.15-0.33c0-0.11,0.06-0.24,0.13-0.33
		c0.16-0.16,0.48-0.16,0.66,0c0.09,0.09,0.13,0.2,0.13,0.33c0,0.13-0.04,0.24-0.13,0.33C14.16,18.62,14.03,18.65,13.92,18.65z"/>
	<path class="st0" d="M30.4,33.77c-0.11,0-0.24-0.06-0.31-0.13c-0.09-0.09-0.15-0.22-0.15-0.33c0-0.13,0.06-0.24,0.13-0.33
		c0.18-0.16,0.48-0.16,0.66,0c0.09,0.09,0.13,0.2,0.13,0.33c0,0.11-0.04,0.24-0.13,0.31C30.64,33.73,30.53,33.77,30.4,33.77z"/>
	<path class="st0" d="M40.94,42.92c-0.11,0-0.22-0.04-0.31-0.13c-0.09-0.09-0.15-0.2-0.15-0.33c0-0.11,0.06-0.24,0.13-0.31
		c0.2-0.2,0.49-0.18,0.66-0.02c0.09,0.11,0.13,0.22,0.13,0.33c0,0.13-0.04,0.24-0.13,0.33C41.17,42.87,41.07,42.92,40.94,42.92z"/>
	<path class="st0" d="M45.97,75.44c-0.11,0-0.22-0.04-0.31-0.13c-0.09-0.09-0.15-0.22-0.15-0.33c0-0.13,0.06-0.24,0.13-0.33
		c0.2-0.16,0.48-0.16,0.66,0c0.09,0.09,0.13,0.2,0.13,0.33c0,0.11-0.04,0.24-0.13,0.31C46.21,75.4,46.1,75.44,45.97,75.44z"/>
	<path class="st0" d="M8.42,88.72c-0.11,0-0.24-0.06-0.31-0.13c-0.09-0.09-0.15-0.2-0.15-0.33c0-0.13,0.06-0.24,0.15-0.33
		c0.13-0.15,0.46-0.16,0.64,0.02c0.07,0.07,0.13,0.18,0.13,0.31c0,0.13-0.05,0.24-0.13,0.33C8.66,88.66,8.55,88.72,8.42,88.72z"/>
	<path class="st0" d="M128.86,75.9c-0.11,0-0.24-0.06-0.31-0.13c-0.09-0.09-0.15-0.2-0.15-0.33c0-0.13,0.06-0.24,0.15-0.33
		c0.16-0.16,0.46-0.16,0.64,0c0.09,0.09,0.13,0.22,0.13,0.33c0,0.11-0.04,0.24-0.13,0.33C129.1,75.84,128.99,75.9,128.86,75.9z"/>
	<path class="st0" d="M131.61,128.56c-0.11,0-0.24-0.06-0.31-0.13c-0.09-0.09-0.15-0.22-0.15-0.33c0-0.13,0.06-0.24,0.13-0.33
		c0.18-0.16,0.48-0.16,0.66,0c0.09,0.09,0.13,0.22,0.13,0.33s-0.04,0.22-0.13,0.31C131.85,128.5,131.74,128.56,131.61,128.56z"/>
	<path class="st0" d="M116.5,135.43c-0.13,0-0.24-0.06-0.33-0.15c-0.07-0.07-0.13-0.18-0.13-0.31c0-0.13,0.06-0.24,0.15-0.33
		c0.16-0.16,0.46-0.16,0.64,0c0.09,0.09,0.13,0.22,0.13,0.33c0,0.13-0.04,0.24-0.13,0.33C116.74,135.37,116.63,135.43,116.5,135.43z
		"/>
	<path class="st0" d="M81.24,132.22c-0.11,0-0.22-0.04-0.31-0.13c-0.09-0.09-0.15-0.2-0.15-0.33c0-0.13,0.06-0.24,0.15-0.33
		c0.16-0.16,0.46-0.16,0.64,0c0.09,0.09,0.13,0.22,0.13,0.33s-0.04,0.24-0.13,0.33C81.47,132.19,81.35,132.22,81.24,132.22z"/>
	<path class="st0" d="M87.65,123.06c-0.11,0-0.22-0.04-0.31-0.13c-0.09-0.07-0.15-0.2-0.15-0.33s0.06-0.24,0.15-0.33
		c0.16-0.16,0.46-0.16,0.64,0c0.09,0.09,0.13,0.22,0.13,0.33c0,0.13-0.04,0.24-0.13,0.33C87.88,123.03,87.78,123.06,87.65,123.06z"
		/>
	<path class="st0" d="M54.22,135.89c-0.11,0-0.22-0.04-0.31-0.13c-0.09-0.09-0.15-0.2-0.15-0.33c0-0.13,0.06-0.24,0.15-0.33
		c0.16-0.16,0.46-0.16,0.64,0c0.09,0.09,0.13,0.2,0.13,0.33c0,0.11-0.04,0.22-0.13,0.31C54.45,135.85,54.35,135.89,54.22,135.89z"/>
	<path class="st0" d="M15.29,117.57c-0.11,0-0.22-0.04-0.31-0.13c-0.09-0.09-0.15-0.2-0.15-0.33c0-0.11,0.06-0.24,0.13-0.31
		c0.2-0.2,0.48-0.18,0.66-0.02c0.09,0.11,0.13,0.22,0.13,0.33c0,0.11-0.04,0.24-0.13,0.33C15.53,117.53,15.4,117.57,15.29,117.57z"
		/>
	<path class="st0" d="M55.59,116.65c-0.11,0-0.22-0.04-0.31-0.13c-0.09-0.09-0.15-0.2-0.15-0.33c0-0.13,0.06-0.24,0.15-0.33
		c0.18-0.16,0.46-0.16,0.64,0c0.09,0.09,0.13,0.2,0.13,0.33c0,0.11-0.04,0.24-0.13,0.33C55.83,116.62,55.72,116.65,55.59,116.65z"/>
	<path class="st0" d="M75.28,96.5c-0.11,0-0.22-0.06-0.31-0.13c-0.09-0.09-0.15-0.2-0.15-0.33c0-0.13,0.06-0.24,0.15-0.33
		c0.16-0.16,0.44-0.16,0.62,0c0.11,0.09,0.15,0.22,0.15,0.33s-0.04,0.24-0.13,0.33C75.5,96.47,75.39,96.5,75.28,96.5z"/>
	<path class="st0" d="M47.35,84.14c-0.11,0-0.22-0.04-0.31-0.13c-0.09-0.09-0.15-0.2-0.15-0.33s0.06-0.24,0.15-0.33
		c0.18-0.16,0.46-0.16,0.64,0c0.09,0.09,0.13,0.22,0.13,0.33s-0.04,0.24-0.13,0.33C47.59,84.1,47.46,84.14,47.35,84.14z"/>
	<path class="st0" d="M23.08,81.39c-0.11,0-0.24-0.06-0.31-0.13c-0.09-0.09-0.15-0.22-0.15-0.33c0-0.13,0.06-0.24,0.15-0.33
		c0.16-0.16,0.46-0.16,0.64,0c0.07,0.09,0.13,0.2,0.13,0.33c0,0.13-0.04,0.24-0.13,0.33C23.31,81.36,23.21,81.39,23.08,81.39z"/>
	<path class="st0" d="M51.01,60.78c-0.11,0-0.22-0.04-0.31-0.13c-0.09-0.09-0.15-0.2-0.15-0.33s0.06-0.24,0.15-0.33
		c0.18-0.16,0.46-0.16,0.64,0c0.09,0.09,0.13,0.22,0.13,0.33c0,0.11-0.04,0.22-0.13,0.31C51.25,60.75,51.14,60.78,51.01,60.78z"/>
	<path class="st0" d="M83.07,70.86c-0.11,0-0.24-0.06-0.31-0.13c-0.09-0.09-0.15-0.2-0.15-0.33c0-0.13,0.06-0.24,0.15-0.33
		c0.16-0.16,0.46-0.16,0.62,0c0.11,0.11,0.15,0.22,0.15,0.33s-0.04,0.22-0.13,0.31C83.31,70.82,83.2,70.86,83.07,70.86z"/>
	<path class="st0" d="M101.39,76.35c-0.11,0-0.24-0.06-0.31-0.13c-0.09-0.09-0.15-0.2-0.15-0.33c0-0.13,0.06-0.24,0.15-0.33
		c0.16-0.16,0.46-0.16,0.64,0c0.09,0.09,0.13,0.22,0.13,0.33c0,0.11-0.04,0.24-0.13,0.31C101.62,76.32,101.51,76.35,101.39,76.35z"
		/>
	<path class="st0" d="M118.33,91.92c-0.11,0-0.22-0.06-0.31-0.13c-0.09-0.09-0.15-0.2-0.15-0.33c0-0.13,0.06-0.26,0.15-0.33
		c0.16-0.16,0.46-0.16,0.64,0c0.09,0.09,0.13,0.2,0.13,0.33c0,0.13-0.04,0.24-0.13,0.33C118.57,91.87,118.46,91.92,118.33,91.92z"/>
	<path class="st0" d="M130.69,87.8c-0.11,0-0.24-0.06-0.31-0.13c-0.09-0.09-0.15-0.2-0.15-0.33s0.06-0.24,0.15-0.33
		c0.15-0.15,0.46-0.16,0.64,0c0.09,0.09,0.13,0.22,0.13,0.33s-0.04,0.24-0.13,0.33C130.93,87.75,130.82,87.8,130.69,87.8z"/>
	<path class="st0" d="M100.93,129.02c-0.11,0-0.22-0.04-0.31-0.13c-0.09-0.09-0.15-0.2-0.15-0.33c0-0.13,0.06-0.24,0.15-0.33
		c0.16-0.16,0.46-0.16,0.64,0c0.09,0.09,0.13,0.2,0.13,0.33c0,0.13-0.05,0.24-0.13,0.33C101.17,128.98,101.06,129.02,100.93,129.02z
		"/>
	<path class="st0" d="M80.32,76.81c-0.11,0-0.24-0.06-0.31-0.13c-0.09-0.09-0.15-0.2-0.15-0.33s0.06-0.24,0.15-0.33
		c0.16-0.16,0.48-0.16,0.64,0c0.09,0.09,0.13,0.22,0.13,0.33s-0.04,0.22-0.13,0.31C80.56,76.76,80.45,76.81,80.32,76.81z"/>
	<path class="st0" d="M104.59,35.14c-0.11,0-0.24-0.06-0.31-0.13c-0.09-0.09-0.15-0.2-0.15-0.33c0-0.13,0.06-0.24,0.15-0.33
		c0.13-0.15,0.48-0.16,0.64,0.02c0.09,0.07,0.13,0.2,0.13,0.31c0,0.11-0.04,0.24-0.13,0.33C104.83,35.08,104.72,35.14,104.59,35.14z
		"/>
	<path class="st0" d="M69.33,36.97c-0.13,0-0.24-0.06-0.33-0.15c-0.07-0.07-0.13-0.18-0.13-0.31c0-0.13,0.06-0.26,0.15-0.33
		c0.16-0.16,0.48-0.16,0.64,0c0.09,0.09,0.13,0.2,0.13,0.33c0,0.11-0.04,0.24-0.13,0.33C69.57,36.92,69.46,36.97,69.33,36.97z"/>
	<path class="st0" d="M57.42,32.39c-0.11,0-0.22-0.04-0.31-0.13c-0.09-0.09-0.15-0.2-0.15-0.33c0-0.13,0.06-0.24,0.13-0.31
		c0.2-0.2,0.48-0.18,0.66-0.02c0.09,0.09,0.13,0.22,0.13,0.33c0,0.13-0.04,0.24-0.13,0.33C57.66,32.36,57.55,32.39,57.42,32.39z"/>
	<path class="st0" d="M30.4,42.92c-0.11,0-0.24-0.06-0.31-0.13c-0.09-0.09-0.15-0.2-0.15-0.33c0-0.11,0.06-0.22,0.13-0.31
		c0.18-0.18,0.48-0.18,0.66-0.02c0.09,0.09,0.13,0.22,0.13,0.33c0,0.13-0.04,0.24-0.13,0.33C30.64,42.89,30.53,42.92,30.4,42.92z"/>
	<path class="st0" d="M43.23,56.2c-0.11,0-0.22-0.04-0.31-0.13c-0.09-0.09-0.15-0.2-0.15-0.33c0-0.11,0.06-0.22,0.13-0.31
		c0.2-0.2,0.48-0.18,0.66-0.02c0.09,0.09,0.13,0.22,0.13,0.33c0,0.13-0.04,0.24-0.13,0.33C43.46,56.17,43.34,56.2,43.23,56.2z"/>
	<path class="st0" d="M97.72,15.91c-0.11,0-0.24-0.06-0.31-0.13c-0.09-0.07-0.15-0.2-0.15-0.33s0.06-0.26,0.15-0.33
		c0.15-0.15,0.46-0.16,0.64,0c0.09,0.09,0.13,0.22,0.13,0.33s-0.04,0.24-0.13,0.33C97.96,15.85,97.85,15.91,97.72,15.91z"/>
	<path class="st0" d="M28.57,10.87c-0.11,0-0.22-0.04-0.31-0.13c-0.09-0.09-0.15-0.2-0.15-0.33c0-0.11,0.06-0.24,0.13-0.33
		c0.18-0.16,0.49-0.16,0.66,0c0.09,0.09,0.13,0.22,0.13,0.33s-0.04,0.24-0.13,0.33C28.81,10.83,28.7,10.87,28.57,10.87z"/>
	<path class="st0" d="M108.25,14.53c-0.11,0-0.24-0.06-0.31-0.13c-0.09-0.09-0.15-0.2-0.15-0.33s0.06-0.24,0.15-0.33
		c0.15-0.16,0.46-0.16,0.64,0c0.09,0.09,0.13,0.22,0.13,0.33s-0.04,0.24-0.13,0.33C108.49,14.48,108.38,14.53,108.25,14.53z"/>
	<path class="st0" d="M115.12,45.67c-0.11,0-0.24-0.06-0.31-0.13c-0.09-0.09-0.15-0.2-0.15-0.33s0.06-0.24,0.15-0.33
		c0.15-0.16,0.46-0.16,0.64,0c0.09,0.11,0.13,0.22,0.13,0.33s-0.04,0.22-0.13,0.31C115.36,45.64,115.25,45.67,115.12,45.67z"/>
	<path class="st0" d="M130.69,112.53c-0.11,0-0.24-0.06-0.31-0.13c-0.09-0.09-0.15-0.22-0.15-0.33c0-0.13,0.06-0.24,0.15-0.33
		c0.16-0.16,0.46-0.16,0.64,0c0.09,0.09,0.13,0.22,0.13,0.33c0,0.11-0.04,0.22-0.13,0.31C130.93,112.48,130.82,112.53,130.69,112.53
		z"/>
	<path class="st0" d="M93.6,135.43c-0.11,0-0.24-0.06-0.31-0.13c-0.09-0.07-0.15-0.2-0.15-0.33c0-0.13,0.06-0.26,0.15-0.33
		c0.15-0.15,0.46-0.16,0.64,0c0.07,0.09,0.13,0.2,0.13,0.33c0,0.13-0.05,0.24-0.13,0.33C93.84,135.39,93.73,135.43,93.6,135.43z"/>
	<path class="st0" d="M16.67,135.43c-0.11,0-0.24-0.06-0.31-0.13c-0.09-0.09-0.15-0.2-0.15-0.33c0-0.11,0.06-0.22,0.13-0.31
		c0.18-0.18,0.48-0.18,0.66-0.02c0.09,0.09,0.13,0.22,0.13,0.33c0,0.13-0.04,0.24-0.13,0.33C16.9,135.39,16.78,135.43,16.67,135.43z
		"/>
	<path class="st0" d="M15.75,81.39c-0.11,0-0.24-0.06-0.33-0.13c-0.07-0.09-0.13-0.2-0.13-0.33c0-0.13,0.06-0.24,0.13-0.33
		c0.16-0.16,0.48-0.16,0.66,0c0.09,0.09,0.13,0.22,0.13,0.33s-0.04,0.24-0.13,0.33C15.99,81.34,15.88,81.39,15.75,81.39z"/>
	<path class="st0" d="M134.81,31.02c-0.13,0-0.24-0.06-0.31-0.13c-0.09-0.09-0.15-0.2-0.15-0.33s0.06-0.24,0.15-0.33
		c0.16-0.16,0.46-0.16,0.64,0c0.09,0.09,0.13,0.22,0.13,0.33s-0.04,0.24-0.13,0.33C135.05,30.96,134.94,31.02,134.81,31.02z"/>
	<path class="st0" d="M49.64,33.31c-0.11,0-0.22-0.04-0.31-0.13c-0.09-0.09-0.15-0.2-0.15-0.33c0-0.13,0.06-0.24,0.13-0.31
		c0.2-0.2,0.48-0.18,0.66-0.02c0.09,0.11,0.13,0.22,0.13,0.33c0,0.11-0.04,0.24-0.13,0.33C49.88,33.27,49.77,33.31,49.64,33.31z"/>
	<path class="st0" d="M44.6,39.26c-0.11,0-0.24-0.06-0.31-0.13c-0.09-0.07-0.15-0.2-0.15-0.33c0-0.13,0.06-0.26,0.15-0.33
		c0.13-0.15,0.48-0.16,0.64,0.02c0.09,0.07,0.13,0.2,0.13,0.31c0,0.11-0.04,0.24-0.13,0.33C44.84,39.2,44.73,39.26,44.6,39.26z"/>
	<path class="st0" d="M34.07,39.26c-0.11,0-0.22-0.04-0.31-0.13c-0.09-0.09-0.15-0.2-0.15-0.33c0-0.11,0.06-0.24,0.13-0.33
		c0.2-0.16,0.48-0.16,0.66,0c0.09,0.09,0.13,0.22,0.13,0.33c0,0.11-0.04,0.24-0.13,0.33C34.31,39.22,34.2,39.26,34.07,39.26z"/>
	<path class="st0" d="M12.09,31.93c-0.13,0-0.24-0.06-0.31-0.13c-0.09-0.09-0.15-0.22-0.15-0.33c0-0.13,0.06-0.24,0.15-0.33
		c0.16-0.16,0.46-0.16,0.64,0c0.07,0.09,0.13,0.2,0.13,0.33s-0.04,0.24-0.13,0.33C12.32,31.88,12.21,31.93,12.09,31.93z"/>
	<path class="st0" d="M18.04,29.19c-0.11,0-0.22-0.04-0.31-0.13c-0.09-0.09-0.15-0.22-0.15-0.33c0-0.13,0.06-0.24,0.13-0.33
		c0.22-0.18,0.48-0.16,0.66,0c0.09,0.09,0.13,0.2,0.13,0.33c0,0.11-0.04,0.22-0.13,0.31C18.28,29.15,18.17,29.19,18.04,29.19z"/>
	<path class="st0" d="M19.87,12.7c-0.11,0-0.22-0.04-0.31-0.13c-0.09-0.09-0.15-0.22-0.15-0.33c0-0.13,0.06-0.24,0.13-0.33
		c0.2-0.16,0.48-0.16,0.66,0c0.09,0.09,0.13,0.22,0.13,0.33s-0.04,0.22-0.13,0.31C20.11,12.66,20,12.7,19.87,12.7z"/>
	<path class="st0" d="M25.37,22.77c-0.13,0-0.24-0.06-0.33-0.13c-0.07-0.09-0.13-0.22-0.13-0.33c0-0.13,0.06-0.24,0.13-0.33
		c0.16-0.16,0.48-0.16,0.66,0c0.09,0.09,0.13,0.2,0.13,0.33c0,0.11-0.04,0.24-0.13,0.31C25.6,22.74,25.5,22.77,25.37,22.77z"/>
	<path class="st0" d="M36.36,22.77c-0.11,0-0.24-0.06-0.33-0.13c-0.07-0.09-0.13-0.2-0.13-0.33s0.06-0.24,0.15-0.33
		c0.18-0.16,0.46-0.16,0.64,0c0.09,0.09,0.13,0.22,0.13,0.33s-0.04,0.24-0.13,0.33C36.59,22.72,36.49,22.77,36.36,22.77z"/>
	<path class="st0" d="M37.27,13.62c-0.11,0-0.22-0.04-0.31-0.13c-0.09-0.09-0.15-0.2-0.15-0.33s0.06-0.24,0.13-0.33
		c0.2-0.18,0.48-0.16,0.66,0c0.09,0.09,0.13,0.2,0.13,0.33s-0.04,0.24-0.13,0.33C37.51,13.58,37.38,13.62,37.27,13.62z"/>
	<path class="st0" d="M54.22,20.48c-0.11,0-0.22-0.04-0.31-0.13c-0.09-0.09-0.15-0.2-0.15-0.33c0-0.13,0.06-0.24,0.15-0.33
		c0.18-0.16,0.46-0.16,0.64,0c0.09,0.09,0.13,0.22,0.13,0.33c0,0.11-0.04,0.24-0.13,0.33C54.45,20.45,54.35,20.48,54.22,20.48z"/>
	<path class="st0" d="M74.82,21.4c-0.11,0-0.22-0.04-0.31-0.13c-0.09-0.09-0.15-0.2-0.15-0.33c0-0.13,0.06-0.24,0.15-0.33
		c0.16-0.16,0.48-0.16,0.64,0c0.09,0.09,0.13,0.2,0.13,0.33c0,0.13-0.04,0.24-0.13,0.33C75.06,21.36,74.94,21.4,74.82,21.4z"/>
	<path class="st0" d="M81.24,15.91c-0.11,0-0.24-0.06-0.31-0.13c-0.09-0.07-0.15-0.2-0.15-0.33s0.06-0.24,0.15-0.33
		c0.16-0.16,0.46-0.16,0.64,0c0.09,0.11,0.13,0.22,0.13,0.33c0,0.13-0.04,0.24-0.13,0.33C81.47,15.85,81.36,15.91,81.24,15.91z"/>
	<path class="st0" d="M75.74,15.45c-0.11,0-0.24-0.06-0.31-0.13c-0.09-0.07-0.15-0.2-0.15-0.33s0.06-0.24,0.15-0.33
		c0.15-0.16,0.46-0.16,0.64,0c0.09,0.11,0.13,0.22,0.13,0.33s-0.04,0.24-0.13,0.33C75.98,15.41,75.87,15.45,75.74,15.45z"/>
	<path class="st0" d="M86.27,11.78c-0.13,0-0.24-0.06-0.33-0.15c-0.07-0.07-0.13-0.18-0.13-0.31s0.06-0.24,0.15-0.33
		c0.16-0.16,0.46-0.16,0.64,0c0.09,0.09,0.13,0.22,0.13,0.33s-0.04,0.24-0.13,0.33C86.51,11.73,86.4,11.78,86.27,11.78z"/>
	<path class="st0" d="M97.72,22.77c-0.11,0-0.24-0.06-0.31-0.13c-0.09-0.07-0.15-0.2-0.15-0.33s0.06-0.26,0.15-0.33
		c0.15-0.16,0.46-0.16,0.64,0c0.09,0.09,0.13,0.22,0.13,0.33s-0.04,0.24-0.13,0.33C97.96,22.72,97.85,22.77,97.72,22.77z"/>
	<path class="st0" d="M91.31,24.61c-0.11,0-0.24-0.06-0.31-0.13c-0.09-0.09-0.15-0.2-0.15-0.33s0.06-0.24,0.15-0.33
		c0.15-0.15,0.46-0.16,0.64,0c0.09,0.09,0.13,0.22,0.13,0.33s-0.04,0.24-0.13,0.33C91.55,24.55,91.44,24.61,91.31,24.61z"/>
	<path class="st0" d="M72.53,27.81c-0.11,0-0.24-0.06-0.31-0.13c-0.09-0.09-0.15-0.2-0.15-0.33c0-0.13,0.06-0.24,0.15-0.33
		c0.16-0.16,0.46-0.16,0.64,0c0.09,0.09,0.13,0.22,0.13,0.33c0,0.11-0.04,0.24-0.13,0.33C72.77,27.76,72.66,27.81,72.53,27.81z"/>
	<path class="st0" d="M78.95,35.14c-0.11,0-0.22-0.04-0.31-0.13c-0.09-0.09-0.15-0.2-0.15-0.33c0-0.13,0.06-0.24,0.15-0.33
		c0.16-0.16,0.46-0.16,0.64,0c0.09,0.11,0.13,0.22,0.13,0.33c0,0.11-0.04,0.24-0.13,0.33C79.18,35.1,79.07,35.14,78.95,35.14z"/>
	<path class="st0" d="M52.39,40.63c-0.11,0-0.22-0.04-0.31-0.13c-0.09-0.09-0.15-0.2-0.15-0.33c0-0.13,0.06-0.24,0.13-0.33
		c0.18-0.16,0.49-0.16,0.66,0c0.09,0.09,0.13,0.2,0.13,0.33c0,0.13-0.04,0.24-0.13,0.33C52.62,40.6,52.51,40.63,52.39,40.63z"/>
	<path class="st0" d="M22.16,57.58c-0.11,0-0.22-0.04-0.31-0.13c-0.09-0.09-0.15-0.2-0.15-0.33c0-0.13,0.06-0.24,0.13-0.33
		c0.22-0.18,0.48-0.16,0.66,0c0.09,0.09,0.13,0.22,0.13,0.33c0,0.13-0.04,0.24-0.13,0.33C22.4,57.52,22.29,57.58,22.16,57.58z"/>
	<path class="st0" d="M36.36,65.82c-0.11,0-0.24-0.06-0.33-0.13c-0.07-0.09-0.13-0.2-0.13-0.33s0.06-0.24,0.15-0.33
		c0.18-0.16,0.46-0.16,0.64,0c0.09,0.09,0.13,0.22,0.13,0.33s-0.04,0.24-0.13,0.33C36.59,65.77,36.49,65.82,36.36,65.82z"/>
	<path class="st0" d="M26.28,69.03c-0.11,0-0.22-0.04-0.31-0.13c-0.09-0.09-0.15-0.22-0.15-0.33c0-0.13,0.06-0.24,0.13-0.33
		c0.2-0.18,0.48-0.16,0.66,0c0.09,0.09,0.13,0.22,0.13,0.33c0,0.11-0.04,0.22-0.13,0.31C26.52,68.99,26.41,69.03,26.28,69.03z"/>
	<path class="st0" d="M16.67,75.44c-0.11,0-0.24-0.06-0.31-0.13c-0.09-0.09-0.15-0.2-0.15-0.33c0-0.11,0.06-0.22,0.13-0.31
		c0.18-0.18,0.48-0.18,0.66-0.02c0.09,0.09,0.13,0.22,0.13,0.33c0,0.13-0.04,0.24-0.13,0.33C16.9,75.4,16.78,75.44,16.67,75.44z"/>
	<path class="st0" d="M12.09,66.28c-0.11,0-0.24-0.06-0.31-0.13c-0.09-0.09-0.15-0.22-0.15-0.33c0-0.13,0.06-0.24,0.15-0.33
		c0.16-0.16,0.46-0.16,0.64,0c0.07,0.09,0.13,0.2,0.13,0.33c0,0.13-0.04,0.24-0.13,0.33C12.32,66.22,12.21,66.28,12.09,66.28z"/>
	<path class="st0" d="M20.79,53.46c-0.13,0-0.24-0.06-0.33-0.13c-0.07-0.09-0.13-0.2-0.13-0.33c0-0.13,0.06-0.24,0.13-0.33
		c0.2-0.16,0.46-0.16,0.64,0c0.11,0.09,0.15,0.22,0.15,0.33c0,0.11-0.04,0.24-0.13,0.33C21.02,53.4,20.92,53.46,20.79,53.46z"/>
	<path class="st0" d="M13,45.21c-0.11,0-0.24-0.06-0.31-0.13c-0.09-0.09-0.15-0.2-0.15-0.33c0-0.11,0.06-0.24,0.13-0.31
		c0.18-0.18,0.48-0.18,0.66-0.02c0.09,0.09,0.13,0.22,0.13,0.33c0,0.13-0.04,0.24-0.13,0.33C13.24,45.18,13.11,45.21,13,45.21z"/>
	<path class="st0" d="M44.6,63.99c-0.11,0-0.24-0.06-0.31-0.13c-0.09-0.09-0.15-0.2-0.15-0.33s0.06-0.24,0.15-0.33
		c0.16-0.16,0.46-0.16,0.64,0c0.09,0.11,0.13,0.22,0.13,0.33s-0.04,0.22-0.13,0.31C44.84,63.93,44.73,63.99,44.6,63.99z"/>
	<path class="st0" d="M39.1,72.69c-0.11,0-0.22-0.06-0.31-0.13c-0.09-0.11-0.15-0.22-0.15-0.33c0-0.13,0.06-0.24,0.13-0.33
		c0.2-0.16,0.48-0.16,0.66,0c0.09,0.09,0.13,0.2,0.13,0.33c0,0.11-0.04,0.24-0.13,0.31C39.34,72.63,39.23,72.69,39.1,72.69z"/>
	<path class="st0" d="M36.36,79.1c-0.11,0-0.22-0.04-0.31-0.13c-0.09-0.09-0.15-0.2-0.15-0.33s0.06-0.24,0.15-0.33
		c0.16-0.16,0.46-0.16,0.64,0c0.09,0.09,0.13,0.22,0.13,0.33s-0.04,0.24-0.13,0.33C36.59,79.07,36.47,79.1,36.36,79.1z"/>
	<path class="st0" d="M30.4,83.22c-0.11,0-0.24-0.06-0.31-0.13c-0.09-0.09-0.15-0.2-0.15-0.33c0-0.11,0.06-0.24,0.13-0.33
		c0.18-0.16,0.48-0.16,0.66,0c0.09,0.09,0.13,0.2,0.13,0.33c0,0.13-0.04,0.24-0.13,0.33C30.64,83.17,30.53,83.22,30.4,83.22z"/>
	<path class="st0" d="M30.4,92.84c-0.13,0-0.24-0.06-0.31-0.13c-0.09-0.09-0.15-0.22-0.15-0.33c0-0.13,0.06-0.24,0.13-0.33
		c0.18-0.16,0.48-0.16,0.66,0c0.09,0.09,0.13,0.2,0.13,0.33c0,0.13-0.04,0.24-0.13,0.33C30.64,92.8,30.53,92.84,30.4,92.84z"/>
	<path class="st0" d="M14.38,93.3c-0.11,0-0.24-0.06-0.31-0.13c-0.09-0.09-0.15-0.2-0.15-0.33c0-0.11,0.06-0.24,0.13-0.33
		c0.18-0.16,0.48-0.16,0.64,0c0.11,0.09,0.15,0.22,0.15,0.33c0,0.13-0.04,0.24-0.13,0.33C14.61,93.26,14.49,93.3,14.38,93.3z"/>
	<path class="st0" d="M17.58,96.5c-0.13,0-0.24-0.06-0.33-0.15c-0.07-0.07-0.13-0.18-0.13-0.31c0-0.13,0.06-0.24,0.13-0.33
		c0.18-0.16,0.48-0.16,0.66,0c0.09,0.09,0.13,0.2,0.13,0.33c0,0.13-0.04,0.24-0.13,0.33C17.82,96.45,17.71,96.5,17.58,96.5z"/>
	<path class="st0" d="M27.2,100.17c-0.11,0-0.22-0.04-0.31-0.13c-0.09-0.09-0.15-0.2-0.15-0.33c0-0.11,0.06-0.24,0.13-0.31
		c0.2-0.2,0.48-0.18,0.66-0.02c0.09,0.11,0.13,0.22,0.13,0.33s-0.04,0.24-0.13,0.33C27.44,100.13,27.31,100.17,27.2,100.17z"/>
	<path class="st0" d="M27.2,107.49c-0.11,0-0.24-0.06-0.33-0.13c-0.07-0.09-0.13-0.2-0.13-0.33c0-0.13,0.06-0.24,0.13-0.33
		c0.2-0.16,0.48-0.16,0.66,0c0.09,0.09,0.13,0.22,0.13,0.33s-0.04,0.24-0.13,0.33C27.44,107.44,27.33,107.49,27.2,107.49z"/>
	<path class="st0" d="M35.44,114.82c-0.11,0-0.22-0.06-0.31-0.13c-0.09-0.09-0.15-0.2-0.15-0.33c0-0.13,0.06-0.24,0.13-0.33
		c0.2-0.16,0.48-0.16,0.66,0c0.09,0.09,0.13,0.22,0.13,0.33s-0.04,0.24-0.13,0.33C35.68,114.77,35.57,114.82,35.44,114.82z"/>
	<path class="st0" d="M25.37,117.11c-0.13,0-0.24-0.06-0.33-0.13c-0.07-0.09-0.13-0.22-0.13-0.33c0-0.13,0.06-0.24,0.13-0.33
		c0.18-0.16,0.46-0.16,0.66,0c0.09,0.09,0.13,0.2,0.13,0.33c0,0.11-0.04,0.24-0.13,0.33C25.6,117.08,25.5,117.11,25.37,117.11z"/>
	<path class="st0" d="M18.04,123.98c-0.11,0-0.22-0.04-0.31-0.13c-0.09-0.09-0.15-0.22-0.15-0.33c0-0.13,0.06-0.24,0.13-0.33
		c0.22-0.18,0.48-0.16,0.66,0c0.09,0.09,0.13,0.2,0.13,0.33c0,0.11-0.04,0.22-0.13,0.31C18.28,123.94,18.17,123.98,18.04,123.98z"/>
	<path class="st0" d="M11.17,121.23c-0.11,0-0.22-0.04-0.31-0.13c-0.09-0.09-0.15-0.2-0.15-0.33c0-0.13,0.06-0.24,0.13-0.33
		c0.2-0.16,0.46-0.16,0.64,0c0.11,0.09,0.15,0.22,0.15,0.33c0,0.11-0.04,0.24-0.13,0.33C11.39,121.2,11.28,121.23,11.17,121.23z"/>
	<path class="st0" d="M20.33,131.76c-0.11,0-0.24-0.06-0.31-0.13c-0.09-0.09-0.15-0.22-0.15-0.33c0-0.13,0.06-0.24,0.13-0.33
		c0.18-0.16,0.48-0.16,0.66,0c0.07,0.09,0.13,0.2,0.13,0.33c0,0.13-0.04,0.24-0.13,0.31C20.57,131.73,20.46,131.76,20.33,131.76z"/>
	<path class="st0" d="M31.78,134.97c-0.11,0-0.22-0.04-0.31-0.13c-0.09-0.09-0.15-0.22-0.15-0.33c0-0.13,0.06-0.24,0.13-0.33
		c0.2-0.16,0.48-0.16,0.66,0c0.09,0.09,0.13,0.22,0.13,0.33s-0.04,0.22-0.13,0.31C32.02,134.93,31.91,134.97,31.78,134.97z"/>
	<path class="st0" d="M31.78,128.1c-0.11,0-0.22-0.04-0.31-0.13c-0.09-0.09-0.15-0.2-0.15-0.33c0-0.11,0.06-0.24,0.13-0.31
		c0.2-0.2,0.48-0.18,0.66-0.02c0.09,0.11,0.13,0.22,0.13,0.33s-0.04,0.24-0.13,0.33C32.02,128.07,31.91,128.1,31.78,128.1z"/>
	<path class="st0" d="M46.43,133.14c-0.11,0-0.22-0.04-0.31-0.13c-0.09-0.09-0.15-0.2-0.15-0.33c0-0.13,0.06-0.24,0.15-0.33
		c0.16-0.16,0.46-0.16,0.64,0c0.09,0.09,0.13,0.22,0.13,0.33s-0.04,0.22-0.13,0.31C46.67,133.1,46.56,133.14,46.43,133.14z"/>
	<path class="st0" d="M49.18,128.1c-0.11,0-0.22-0.04-0.31-0.13c-0.09-0.09-0.15-0.2-0.15-0.33c0-0.11,0.06-0.22,0.13-0.31
		c0.2-0.2,0.48-0.18,0.66-0.02c0.09,0.09,0.13,0.22,0.13,0.33c0,0.13-0.04,0.24-0.13,0.33C49.42,128.07,49.31,128.1,49.18,128.1z"/>
	<path class="st0" d="M47.81,117.57c-0.11,0-0.22-0.04-0.31-0.13c-0.09-0.09-0.15-0.2-0.15-0.33c0-0.11,0.06-0.22,0.13-0.31
		c0.2-0.2,0.48-0.18,0.66-0.02c0.09,0.09,0.13,0.22,0.13,0.33c0,0.13-0.04,0.24-0.13,0.33C48.04,117.53,47.92,117.57,47.81,117.57z"
		/>
	<path class="st0" d="M51.47,112.99c-0.11,0-0.22-0.04-0.31-0.13c-0.09-0.09-0.15-0.2-0.15-0.33c0-0.13,0.06-0.24,0.15-0.33
		c0.18-0.16,0.46-0.16,0.64,0c0.09,0.09,0.13,0.22,0.13,0.33c0,0.11-0.04,0.24-0.13,0.33C51.71,112.95,51.6,112.99,51.47,112.99z"/>
	<path class="st0" d="M47.35,105.2c-0.11,0-0.22-0.04-0.31-0.13c-0.09-0.09-0.15-0.2-0.15-0.33c0-0.13,0.06-0.24,0.13-0.31
		c0.2-0.2,0.48-0.18,0.66-0.02c0.09,0.11,0.13,0.22,0.13,0.33c0,0.11-0.04,0.24-0.13,0.33C47.59,105.17,47.48,105.2,47.35,105.2z"/>
	<path class="st0" d="M55.13,95.13c-0.11,0-0.22-0.04-0.31-0.13c-0.09-0.09-0.15-0.2-0.15-0.33s0.06-0.24,0.15-0.33
		c0.16-0.16,0.46-0.16,0.64,0c0.09,0.09,0.13,0.22,0.13,0.33s-0.04,0.24-0.13,0.33C55.37,95.09,55.26,95.13,55.13,95.13z"/>
	<path class="st0" d="M54.22,87.34c-0.11,0-0.22-0.04-0.31-0.13c-0.09-0.09-0.15-0.2-0.15-0.33c0-0.13,0.06-0.24,0.13-0.33
		c0.2-0.16,0.48-0.16,0.66,0c0.09,0.11,0.13,0.22,0.13,0.33c0,0.13-0.04,0.24-0.13,0.33C54.45,87.31,54.35,87.34,54.22,87.34z"/>
	<path class="st0" d="M64.29,76.35c-0.11,0-0.22-0.06-0.31-0.13c-0.09-0.09-0.15-0.22-0.15-0.33c0-0.11,0.06-0.24,0.13-0.31
		c0.2-0.2,0.48-0.18,0.66-0.02c0.09,0.11,0.13,0.22,0.13,0.33c0,0.11-0.04,0.22-0.13,0.31C64.53,76.3,64.42,76.35,64.29,76.35z"/>
	<path class="st0" d="M66.12,64.45c-0.11,0-0.22-0.04-0.31-0.13c-0.09-0.09-0.15-0.2-0.15-0.33c0-0.11,0.06-0.22,0.13-0.31
		c0.2-0.2,0.48-0.18,0.66-0.02c0.09,0.09,0.13,0.22,0.13,0.33c0,0.13-0.05,0.24-0.13,0.33C66.36,64.41,66.25,64.45,66.12,64.45z"/>
	<path class="st0" d="M54.67,69.94c-0.11,0-0.22-0.04-0.31-0.13c-0.09-0.09-0.15-0.2-0.15-0.33c0-0.13,0.06-0.24,0.15-0.33
		c0.18-0.16,0.46-0.16,0.64,0c0.09,0.09,0.13,0.22,0.13,0.33c0,0.11-0.04,0.24-0.13,0.33C54.91,69.91,54.8,69.94,54.67,69.94z"/>
	<path class="st0" d="M69.79,58.49c-0.11,0-0.24-0.06-0.31-0.13c-0.09-0.09-0.15-0.2-0.15-0.33s0.06-0.24,0.15-0.33
		c0.16-0.16,0.46-0.16,0.64,0c0.09,0.11,0.13,0.22,0.13,0.33s-0.04,0.24-0.13,0.33C70.02,58.44,69.92,58.49,69.79,58.49z"/>
	<path class="st0" d="M75.28,59.87c-0.11,0-0.24-0.06-0.31-0.13c-0.09-0.09-0.15-0.2-0.15-0.33c0-0.13,0.06-0.24,0.15-0.33
		c0.16-0.16,0.46-0.16,0.62,0c0.11,0.09,0.15,0.22,0.15,0.33c0,0.11-0.04,0.22-0.13,0.31C75.52,59.83,75.41,59.87,75.28,59.87z"/>
	<path class="st0" d="M83.53,54.83c-0.11,0-0.22-0.06-0.31-0.13c-0.09-0.09-0.15-0.2-0.15-0.33s0.06-0.24,0.15-0.33
		c0.16-0.16,0.48-0.16,0.64,0c0.09,0.11,0.13,0.22,0.13,0.33s-0.04,0.22-0.13,0.31C83.76,54.77,83.65,54.83,83.53,54.83z"/>
	<path class="st0" d="M85.81,45.67c-0.11,0-0.22-0.04-0.31-0.13c-0.09-0.09-0.15-0.2-0.15-0.33s0.06-0.24,0.15-0.33
		c0.16-0.16,0.46-0.16,0.64,0c0.09,0.09,0.13,0.22,0.13,0.33s-0.04,0.24-0.13,0.33C86.05,45.64,85.93,45.67,85.81,45.67z"/>
	<path class="st0" d="M73.91,42.92c-0.11,0-0.24-0.06-0.31-0.13c-0.09-0.07-0.15-0.2-0.15-0.33c0-0.13,0.06-0.26,0.15-0.33
		c0.15-0.15,0.46-0.16,0.64,0c0.09,0.09,0.13,0.22,0.13,0.33c0,0.11-0.04,0.24-0.13,0.33C74.15,42.89,74.04,42.92,73.91,42.92z"/>
	<path class="st0" d="M57.88,48.42c-0.11,0-0.22-0.06-0.31-0.13c-0.09-0.09-0.15-0.22-0.15-0.33c0-0.11,0.06-0.24,0.13-0.31
		c0.2-0.2,0.48-0.18,0.66-0.02c0.09,0.09,0.13,0.2,0.13,0.33c0,0.13-0.04,0.24-0.13,0.33C58.12,48.36,58.01,48.42,57.88,48.42z"/>
	<path class="st0" d="M102.3,47.96c-0.11,0-0.24-0.06-0.31-0.13c-0.09-0.09-0.15-0.2-0.15-0.33c0-0.13,0.06-0.24,0.15-0.33
		c0.16-0.16,0.46-0.16,0.64,0c0.09,0.11,0.13,0.22,0.13,0.33c0,0.11-0.04,0.22-0.13,0.31C102.54,47.91,102.43,47.96,102.3,47.96z"/>
	<path class="st0" d="M86.27,40.18c-0.11,0-0.24-0.06-0.31-0.13c-0.09-0.09-0.15-0.2-0.15-0.33c0-0.11,0.06-0.24,0.13-0.33
		c0.2-0.16,0.48-0.16,0.66,0c0.09,0.11,0.13,0.22,0.13,0.33s-0.04,0.22-0.13,0.31C86.51,40.14,86.4,40.18,86.27,40.18z"/>
	<path class="st0" d="M99.55,40.63c-0.11,0-0.24-0.06-0.31-0.13c-0.09-0.09-0.15-0.2-0.15-0.33c0-0.13,0.06-0.24,0.15-0.33
		c0.15-0.16,0.46-0.16,0.64,0c0.09,0.11,0.13,0.22,0.13,0.33c0,0.11-0.04,0.22-0.13,0.31C99.79,40.58,99.68,40.63,99.55,40.63z"/>
	<path class="st0" d="M116.04,39.26c-0.11,0-0.24-0.06-0.31-0.13c-0.09-0.09-0.15-0.2-0.15-0.33c0-0.13,0.06-0.24,0.15-0.33
		c0.15-0.16,0.46-0.16,0.64,0c0.09,0.09,0.13,0.22,0.13,0.33c0,0.11-0.04,0.24-0.13,0.33C116.28,39.2,116.17,39.26,116.04,39.26z"/>
	<path class="st0" d="M113.75,33.31c-0.11,0-0.24-0.06-0.31-0.13c-0.09-0.09-0.15-0.2-0.15-0.33c0-0.13,0.06-0.24,0.15-0.33
		c0.15-0.16,0.48-0.16,0.64,0c0.09,0.09,0.13,0.2,0.13,0.33c0,0.11-0.04,0.24-0.13,0.33C113.99,33.25,113.88,33.31,113.75,33.31z"/>
	<path class="st0" d="M119.7,27.81c-0.11,0-0.22-0.04-0.31-0.13c-0.09-0.09-0.15-0.2-0.15-0.33c0-0.13,0.06-0.26,0.15-0.33
		c0.16-0.16,0.46-0.16,0.64,0c0.07,0.09,0.13,0.2,0.13,0.33c0,0.13-0.05,0.24-0.13,0.33C119.94,27.78,119.83,27.81,119.7,27.81z"/>
	<path class="st0" d="M114.67,21.4c-0.11,0-0.22-0.04-0.31-0.13c-0.09-0.09-0.15-0.2-0.15-0.33c0-0.13,0.06-0.24,0.15-0.33
		c0.16-0.16,0.46-0.16,0.64,0c0.09,0.09,0.13,0.2,0.13,0.33c0,0.13-0.04,0.24-0.13,0.33C114.9,21.36,114.79,21.4,114.67,21.4z"/>
	<path class="st0" d="M116.96,16.36c-0.11,0-0.24-0.06-0.31-0.13c-0.09-0.09-0.15-0.2-0.15-0.33c0-0.13,0.06-0.24,0.13-0.33
		c0.2-0.16,0.48-0.16,0.66,0c0.09,0.09,0.13,0.2,0.13,0.33c0,0.13-0.04,0.24-0.13,0.31C117.19,16.33,117.08,16.36,116.96,16.36z"/>
	<path class="st0" d="M130.69,18.65c-0.11,0-0.24-0.06-0.31-0.13c-0.09-0.09-0.15-0.22-0.15-0.33c0-0.11,0.06-0.24,0.13-0.31
		c0.18-0.18,0.48-0.18,0.66-0.02c0.09,0.11,0.13,0.22,0.13,0.33c0,0.11-0.04,0.22-0.13,0.31C130.93,18.6,130.82,18.65,130.69,18.65z
		"/>
	<path class="st0" d="M134.36,22.32c-0.11,0-0.22-0.06-0.31-0.13c-0.09-0.09-0.15-0.2-0.15-0.33c0-0.11,0.06-0.24,0.13-0.33
		c0.2-0.16,0.48-0.16,0.66,0c0.09,0.09,0.13,0.22,0.13,0.33c0,0.13-0.04,0.24-0.13,0.33C134.59,22.28,134.49,22.32,134.36,22.32z"/>
	<path class="st0" d="M127.49,25.52c-0.11,0-0.24-0.06-0.31-0.13c-0.09-0.09-0.15-0.2-0.15-0.33s0.06-0.24,0.15-0.33
		c0.15-0.16,0.48-0.16,0.64,0c0.09,0.09,0.13,0.22,0.13,0.33s-0.04,0.24-0.13,0.33C127.73,25.47,127.62,25.52,127.49,25.52z"/>
	<path class="st0" d="M120.16,37.89c-0.11,0-0.24-0.06-0.31-0.13c-0.09-0.09-0.15-0.2-0.15-0.33c0-0.13,0.06-0.24,0.15-0.33
		c0.16-0.16,0.46-0.16,0.64,0c0.09,0.09,0.13,0.22,0.13,0.33c0,0.11-0.04,0.24-0.13,0.31C120.4,37.85,120.29,37.89,120.16,37.89z"/>
	<path class="st0" d="M117.41,51.17c-0.11,0-0.22-0.06-0.31-0.13c-0.09-0.09-0.15-0.2-0.15-0.33s0.06-0.24,0.15-0.33
		c0.16-0.16,0.46-0.16,0.64,0c0.07,0.09,0.13,0.2,0.13,0.33s-0.04,0.24-0.13,0.33C117.65,51.13,117.54,51.17,117.41,51.17z"/>
	<path class="st0" d="M108.71,51.17c-0.11,0-0.24-0.06-0.31-0.13c-0.09-0.09-0.15-0.22-0.15-0.33s0.06-0.24,0.15-0.33
		c0.16-0.16,0.46-0.16,0.64,0c0.09,0.09,0.13,0.22,0.13,0.33s-0.04,0.24-0.13,0.33C108.95,51.11,108.84,51.17,108.71,51.17z"/>
	<path class="st0" d="M108.71,42.01c-0.11,0-0.24-0.06-0.31-0.13c-0.09-0.09-0.15-0.22-0.15-0.33s0.06-0.24,0.15-0.33
		c0.16-0.16,0.46-0.16,0.64,0c0.09,0.09,0.13,0.22,0.13,0.33s-0.04,0.24-0.13,0.33C108.95,41.95,108.84,42.01,108.71,42.01z"/>
	<path class="st0" d="M126.11,54.83c-0.11,0-0.22-0.06-0.31-0.13c-0.09-0.09-0.15-0.2-0.15-0.33s0.06-0.24,0.15-0.33
		c0.16-0.16,0.46-0.16,0.64,0c0.09,0.09,0.13,0.22,0.13,0.33c0,0.13-0.04,0.24-0.13,0.33C126.35,54.79,126.24,54.83,126.11,54.83z"
		/>
	<path class="st0" d="M119.24,57.12c-0.11,0-0.24-0.06-0.31-0.13c-0.09-0.09-0.15-0.2-0.15-0.33c0-0.13,0.06-0.24,0.15-0.33
		c0.16-0.16,0.46-0.16,0.64,0c0.09,0.09,0.13,0.2,0.13,0.33c0,0.13-0.05,0.24-0.13,0.33C119.48,57.06,119.37,57.12,119.24,57.12z"/>
	<path class="st0" d="M112.83,63.99c-0.11,0-0.22-0.04-0.31-0.13c-0.09-0.09-0.15-0.2-0.15-0.33s0.06-0.24,0.15-0.33
		c0.16-0.16,0.46-0.16,0.64,0c0.09,0.09,0.13,0.2,0.13,0.33s-0.04,0.24-0.13,0.31C113.07,63.95,112.96,63.99,112.83,63.99z"/>
	<path class="st0" d="M103.67,67.65c-0.11,0-0.24-0.06-0.31-0.13c-0.09-0.09-0.15-0.2-0.15-0.33c0-0.13,0.06-0.24,0.15-0.33
		c0.16-0.16,0.46-0.16,0.64,0c0.09,0.09,0.13,0.22,0.13,0.33c0,0.11-0.04,0.24-0.13,0.31C103.91,67.62,103.8,67.65,103.67,67.65z"/>
	<path class="st0" d="M94.06,69.48c-0.11,0-0.22-0.06-0.31-0.13c-0.09-0.09-0.15-0.2-0.15-0.33s0.06-0.24,0.15-0.33
		c0.16-0.16,0.46-0.16,0.62,0c0.11,0.11,0.15,0.22,0.15,0.33s-0.04,0.22-0.13,0.31C94.28,69.45,94.19,69.48,94.06,69.48z"/>
	<path class="st0" d="M88.1,79.56c-0.11,0-0.22-0.06-0.31-0.13c-0.09-0.09-0.15-0.2-0.15-0.33c0-0.13,0.06-0.24,0.15-0.33
		c0.16-0.16,0.46-0.16,0.64,0c0.09,0.09,0.13,0.2,0.13,0.33c0,0.13-0.04,0.24-0.13,0.33C88.34,79.52,88.22,79.56,88.1,79.56z"/>
	<path class="st0" d="M69.33,83.68c-0.11,0-0.22-0.04-0.31-0.13c-0.09-0.09-0.15-0.2-0.15-0.33c0-0.13,0.06-0.24,0.15-0.33
		c0.16-0.16,0.46-0.16,0.64,0c0.09,0.09,0.13,0.22,0.13,0.33c0,0.11-0.04,0.24-0.13,0.33C69.57,83.63,69.46,83.68,69.33,83.68z"/>
	<path class="st0" d="M81.69,95.59c-0.11,0-0.22-0.04-0.31-0.13c-0.09-0.09-0.15-0.2-0.15-0.33c0-0.13,0.06-0.24,0.15-0.33
		c0.18-0.16,0.46-0.16,0.64,0c0.07,0.09,0.13,0.2,0.13,0.33c0,0.13-0.05,0.24-0.13,0.33C81.93,95.55,81.82,95.59,81.69,95.59z"/>
	<path class="st0" d="M90.85,103.37c-0.11,0-0.22-0.04-0.31-0.13c-0.09-0.09-0.15-0.2-0.15-0.33c0-0.13,0.06-0.24,0.15-0.33
		c0.16-0.16,0.46-0.16,0.64,0c0.09,0.09,0.13,0.2,0.13,0.33c0,0.13-0.05,0.24-0.13,0.33C91.09,103.34,90.98,103.37,90.85,103.37z"/>
	<path class="st0" d="M92.23,111.62c-0.11,0-0.22-0.06-0.31-0.13c-0.09-0.09-0.15-0.2-0.15-0.33c0-0.13,0.06-0.24,0.15-0.33
		c0.16-0.16,0.46-0.16,0.64,0c0.09,0.09,0.13,0.22,0.13,0.33c0,0.11-0.04,0.24-0.13,0.31C92.46,111.58,92.35,111.62,92.23,111.62z"
		/>
	<path class="st0" d="M83.98,116.65c-0.11,0-0.22-0.04-0.31-0.13c-0.09-0.09-0.15-0.2-0.15-0.33c0-0.13,0.06-0.24,0.15-0.33
		c0.18-0.16,0.46-0.16,0.64,0c0.07,0.09,0.13,0.2,0.13,0.33c0,0.13-0.04,0.24-0.13,0.33C84.22,116.62,84.09,116.65,83.98,116.65z"/>
	<path class="st0" d="M80.32,122.61c-0.11,0-0.22-0.06-0.31-0.13c-0.09-0.09-0.15-0.2-0.15-0.33s0.06-0.26,0.15-0.33
		c0.16-0.16,0.48-0.16,0.64,0c0.09,0.09,0.13,0.2,0.13,0.33c0,0.11-0.04,0.24-0.13,0.33C80.56,122.55,80.45,122.61,80.32,122.61z"/>
	<path class="st0" d="M72.99,122.61c-0.11,0-0.22-0.04-0.31-0.13c-0.09-0.09-0.15-0.2-0.15-0.33s0.06-0.24,0.15-0.33
		c0.18-0.16,0.48-0.16,0.64,0c0.09,0.11,0.13,0.22,0.13,0.33c0,0.11-0.04,0.24-0.13,0.33C73.23,122.55,73.12,122.61,72.99,122.61z"
		/>
	<path class="st0" d="M73.91,104.29c-0.13,0-0.24-0.06-0.31-0.13c-0.09-0.09-0.15-0.2-0.15-0.33c0-0.13,0.06-0.24,0.15-0.33
		c0.16-0.16,0.46-0.16,0.64,0c0.09,0.11,0.13,0.22,0.13,0.33c0,0.11-0.04,0.22-0.13,0.31C74.15,104.23,74.04,104.29,73.91,104.29z"
		/>
	<path class="st0" d="M62,123.98c-0.11,0-0.24-0.06-0.31-0.13c-0.09-0.09-0.15-0.2-0.15-0.33s0.06-0.24,0.15-0.33
		c0.16-0.16,0.46-0.16,0.64,0c0.09,0.09,0.13,0.22,0.13,0.33c0,0.11-0.04,0.24-0.13,0.31C62.24,123.92,62.13,123.98,62,123.98z"/>
	<path class="st0" d="M64.75,133.14c-0.13,0-0.24-0.06-0.33-0.15c-0.07-0.07-0.13-0.18-0.13-0.31c0-0.13,0.06-0.26,0.15-0.33
		c0.16-0.15,0.46-0.16,0.62,0c0.11,0.09,0.15,0.2,0.15,0.33c0,0.11-0.04,0.24-0.13,0.33C64.99,133.08,64.88,133.14,64.75,133.14z"/>
	<path class="st0" d="M74.82,137.72c-0.11,0-0.22-0.04-0.31-0.13c-0.09-0.09-0.15-0.2-0.15-0.33s0.06-0.24,0.15-0.33
		c0.18-0.16,0.46-0.16,0.64,0c0.09,0.09,0.13,0.2,0.13,0.33s-0.04,0.24-0.13,0.33C75.06,137.68,74.95,137.72,74.82,137.72z"/>
	<path class="st0" d="M114.67,112.07c-0.11,0-0.22-0.04-0.31-0.13c-0.09-0.09-0.15-0.2-0.15-0.33s0.06-0.24,0.15-0.33
		c0.16-0.16,0.46-0.16,0.64,0c0.09,0.09,0.13,0.2,0.13,0.33s-0.04,0.24-0.13,0.33C114.9,112.04,114.79,112.07,114.67,112.07z"/>
	<path class="st0" d="M122.45,112.07c-0.11,0-0.22-0.06-0.31-0.13c-0.09-0.09-0.15-0.2-0.15-0.33s0.06-0.24,0.15-0.33
		c0.16-0.16,0.46-0.16,0.64,0c0.09,0.09,0.13,0.2,0.13,0.33s-0.04,0.24-0.13,0.31C122.69,112.04,122.58,112.07,122.45,112.07z"/>
	<path class="st0" d="M116.96,100.62c-0.11,0-0.22-0.06-0.31-0.13c-0.09-0.09-0.15-0.2-0.15-0.33c0-0.13,0.06-0.26,0.15-0.33
		c0.16-0.16,0.46-0.16,0.64,0c0.07,0.09,0.13,0.2,0.13,0.33c0,0.13-0.04,0.24-0.13,0.33C117.19,100.57,117.08,100.62,116.96,100.62z
		"/>
	<path class="st0" d="M106.88,100.17c-0.13,0-0.24-0.06-0.31-0.13c-0.09-0.09-0.15-0.22-0.15-0.33s0.06-0.24,0.13-0.31
		c0.18-0.18,0.48-0.18,0.66-0.02c0.09,0.11,0.13,0.22,0.13,0.33s-0.04,0.22-0.13,0.31C107.12,100.11,107.01,100.17,106.88,100.17z"
		/>
	<path class="st0" d="M115.58,88.72c-0.11,0-0.24-0.06-0.31-0.13c-0.09-0.09-0.15-0.22-0.15-0.33s0.06-0.24,0.13-0.31
		c0.18-0.18,0.49-0.18,0.66-0.02c0.09,0.11,0.13,0.22,0.13,0.33s-0.04,0.22-0.13,0.31C115.84,88.66,115.71,88.72,115.58,88.72z"/>
	<path class="st0" d="M107.34,84.14c-0.11,0-0.24-0.06-0.31-0.13c-0.09-0.09-0.15-0.22-0.15-0.33s0.06-0.24,0.15-0.33
		c0.15-0.16,0.46-0.16,0.64,0c0.09,0.09,0.13,0.22,0.13,0.33s-0.04,0.24-0.13,0.33C107.58,84.08,107.47,84.14,107.34,84.14z"/>
	<path class="st0" d="M109.17,72.69c-0.11,0-0.22-0.04-0.31-0.13c-0.09-0.09-0.15-0.2-0.15-0.33c0-0.13,0.06-0.24,0.15-0.33
		c0.16-0.16,0.46-0.16,0.64,0c0.09,0.09,0.13,0.2,0.13,0.33c0,0.13-0.04,0.24-0.13,0.33C109.41,72.65,109.3,72.69,109.17,72.69z"/>
	<path class="st0" d="M121.53,85.05c-0.11,0-0.24-0.06-0.31-0.13c-0.09-0.09-0.15-0.2-0.15-0.33c0-0.13,0.06-0.24,0.15-0.33
		c0.15-0.15,0.44-0.16,0.62,0c0.11,0.09,0.15,0.22,0.15,0.33s-0.04,0.24-0.13,0.33C121.77,85.02,121.65,85.05,121.53,85.05z"/>
	<path class="st0" d="M129.78,94.67c-0.11,0-0.24-0.06-0.31-0.13c-0.09-0.09-0.15-0.2-0.15-0.33c0-0.13,0.06-0.24,0.15-0.33
		c0.15-0.15,0.46-0.16,0.64,0c0.09,0.09,0.13,0.2,0.13,0.33c0,0.13-0.05,0.24-0.13,0.33C130.02,94.64,129.91,94.67,129.78,94.67z"/>
	<path class="st0" d="M134.36,107.04c-0.11,0-0.24-0.06-0.31-0.13c-0.09-0.09-0.15-0.2-0.15-0.33c0-0.13,0.06-0.24,0.15-0.33
		c0.16-0.16,0.46-0.16,0.64,0c0.09,0.09,0.13,0.2,0.13,0.33c0,0.13-0.04,0.24-0.13,0.33C134.59,106.98,134.49,107.04,134.36,107.04z
		"/>
	<path class="st0" d="M123.37,120.77c-0.11,0-0.24-0.06-0.31-0.13c-0.09-0.09-0.15-0.22-0.15-0.33c0-0.13,0.06-0.24,0.15-0.33
		c0.13-0.15,0.46-0.18,0.64,0c0.09,0.09,0.13,0.22,0.13,0.33s-0.04,0.22-0.13,0.31C123.6,120.74,123.5,120.77,123.37,120.77z"/>
	<path class="st0" d="M133.9,123.98c-0.11,0-0.22-0.04-0.31-0.13c-0.09-0.09-0.15-0.2-0.15-0.33s0.06-0.24,0.15-0.33
		c0.16-0.16,0.46-0.16,0.64,0c0.09,0.09,0.13,0.22,0.13,0.33c0,0.11-0.04,0.24-0.13,0.31C134.14,123.94,134.03,123.98,133.9,123.98z
		"/>
	<path class="st0" d="M125.66,127.64c-0.13,0-0.24-0.06-0.31-0.13c-0.09-0.09-0.15-0.22-0.15-0.33c0-0.11,0.06-0.22,0.13-0.31
		c0.18-0.18,0.49-0.18,0.66-0.02c0.09,0.11,0.13,0.22,0.13,0.33c0,0.11-0.04,0.22-0.13,0.31
		C125.91,127.59,125.78,127.64,125.66,127.64z"/>
	<path class="st0" d="M127.49,132.68c-0.11,0-0.24-0.06-0.31-0.13c-0.09-0.09-0.15-0.2-0.15-0.33c0-0.13,0.06-0.24,0.15-0.33
		c0.15-0.16,0.48-0.16,0.64,0c0.09,0.09,0.13,0.22,0.13,0.33c0,0.13-0.04,0.24-0.13,0.33C127.73,132.63,127.62,132.68,127.49,132.68
		z"/>
	<path class="st0" d="M133.9,136.8c-0.11,0-0.24-0.06-0.31-0.13c-0.09-0.09-0.15-0.22-0.15-0.33c0-0.13,0.06-0.24,0.15-0.33
		c0.16-0.16,0.46-0.16,0.64,0c0.09,0.09,0.13,0.2,0.13,0.33c0,0.11-0.04,0.24-0.13,0.31C134.14,136.77,134.03,136.8,133.9,136.8z"/>
	<path class="st0" d="M121.53,136.34c-0.11,0-0.24-0.06-0.31-0.13c-0.09-0.09-0.15-0.2-0.15-0.33c0-0.13,0.06-0.24,0.15-0.33
		c0.15-0.15,0.44-0.18,0.62,0c0.11,0.09,0.15,0.22,0.15,0.33c0,0.11-0.04,0.24-0.13,0.33C121.75,136.31,121.65,136.34,121.53,136.34
		z"/>
	<path class="st0" d="M118.33,128.1c-0.11,0-0.24-0.06-0.31-0.13c-0.09-0.09-0.15-0.2-0.15-0.33s0.06-0.24,0.15-0.33
		c0.16-0.16,0.46-0.16,0.64,0c0.09,0.09,0.13,0.22,0.13,0.33s-0.04,0.24-0.13,0.31C118.57,128.07,118.46,128.1,118.33,128.1z"/>
	<path class="st0" d="M103.67,135.43c-0.11,0-0.24-0.06-0.31-0.13c-0.09-0.09-0.15-0.2-0.15-0.33c0-0.13,0.06-0.24,0.15-0.33
		c0.16-0.16,0.46-0.16,0.64,0c0.09,0.09,0.13,0.22,0.13,0.33s-0.04,0.24-0.13,0.31C103.91,135.39,103.8,135.43,103.67,135.43z"/>
	<path class="st0" d="M89.02,129.48c-0.13,0-0.24-0.06-0.31-0.13c-0.09-0.09-0.15-0.2-0.15-0.33c0-0.13,0.06-0.24,0.15-0.33
		c0.16-0.16,0.46-0.16,0.64,0c0.09,0.09,0.13,0.2,0.13,0.33c0,0.11-0.04,0.24-0.13,0.31C89.26,129.42,89.15,129.48,89.02,129.48z"/>
	<path class="st0" d="M88.56,138.18c-0.11,0-0.22-0.06-0.31-0.13c-0.09-0.09-0.15-0.2-0.15-0.33s0.06-0.24,0.15-0.33
		c0.16-0.16,0.46-0.16,0.64,0c0.09,0.09,0.13,0.2,0.13,0.33s-0.04,0.24-0.13,0.33C88.8,138.14,88.67,138.18,88.56,138.18z"/>
	<path class="st0" d="M59.25,138.18c-0.13,0-0.24-0.06-0.33-0.15c-0.07-0.07-0.13-0.18-0.13-0.31s0.06-0.24,0.15-0.33
		c0.16-0.16,0.46-0.16,0.64,0c0.09,0.09,0.13,0.22,0.13,0.33c0,0.11-0.04,0.24-0.13,0.33C59.51,138.12,59.38,138.18,59.25,138.18z"
		/>
	<path class="st0" d="M8.42,61.7c-0.11,0-0.24-0.06-0.31-0.13c-0.09-0.09-0.15-0.22-0.15-0.33c0-0.13,0.06-0.24,0.15-0.33
		c0.15-0.16,0.44-0.16,0.64,0c0.07,0.09,0.13,0.2,0.13,0.33c0,0.13-0.04,0.24-0.13,0.33C8.66,61.66,8.55,61.7,8.42,61.7z"/>
	<path class="st0" d="M51.93,9.49c-0.11,0-0.22-0.04-0.31-0.13c-0.09-0.09-0.15-0.22-0.15-0.33c0-0.13,0.06-0.24,0.13-0.33
		c0.2-0.16,0.48-0.16,0.66,0c0.07,0.09,0.13,0.2,0.13,0.33s-0.04,0.24-0.13,0.31C52.17,9.46,52.06,9.49,51.93,9.49z"/>
	<path class="st0" d="M31.32,16.82c-0.13,0-0.24-0.06-0.33-0.13c-0.07-0.09-0.13-0.22-0.13-0.33c0-0.13,0.06-0.24,0.13-0.33
		c0.16-0.16,0.48-0.16,0.66,0c0.09,0.09,0.13,0.2,0.13,0.33c0,0.11-0.04,0.24-0.13,0.31C31.56,16.79,31.45,16.82,31.32,16.82z"/>
	<path class="st0" d="M137.1,72.23c-0.11,0-0.24-0.06-0.31-0.13c-0.09-0.09-0.15-0.2-0.15-0.33c0-0.13,0.06-0.24,0.15-0.33
		c0.15-0.15,0.46-0.16,0.64,0c0.09,0.09,0.13,0.2,0.13,0.33c0,0.13-0.04,0.24-0.13,0.33C137.34,72.2,137.23,72.23,137.1,72.23z"/>
</g>
</svg>
