<?xml version="1.0" encoding="UTF-8"?>
<svg id="Layer_1" data-name="Layer 1" xmlns="http://www.w3.org/2000/svg" xmlns:xlink="http://www.w3.org/1999/xlink" viewBox="0 0 144 144">
  <defs>
    <style>
      .cls-1 {
        stroke-width: 2px;
      }

      .cls-1, .cls-2, .cls-3, .cls-4, .cls-5, .cls-6, .cls-7 {
        fill: #e0e43f;
      }

      .cls-1, .cls-2, .cls-4, .cls-5, .cls-6, .cls-7 {
        stroke-linecap: round;
      }

      .cls-1, .cls-7 {
        stroke: #be1e2d;
      }

      .cls-2 {
        stroke: #ef4136;
      }

      .cls-2, .cls-4, .cls-6 {
        stroke-width: 2.5px;
      }

      .cls-8 {
        fill: url(#Lotus_Squares);
      }

      .cls-9 {
        fill: none;
      }

      .cls-4, .cls-5 {
        stroke: #231f20;
      }

      .cls-5, .cls-7 {
        stroke-width: 2.7px;
      }

      .cls-6 {
        stroke: #f15a29;
      }
    </style>
    <pattern id="Lotus_Squares" data-name="Lotus Squares" x="0" y="0" width="42.5" height="42.5" patternUnits="userSpaceOnUse" viewBox="0 0 42.5 42.5">
      <g>
        <rect class="cls-9" width="42.5" height="42.5"/>
        <line class="cls-4" x1="42.39" y1="42.46" x2="42.39" y2="42.46"/>
        <g>
          <path class="cls-3" d="m5.95,42.51c0-1.5-.66-1.64-1.7-2.75,1.93-2.19,6.3.33,7.38,2.75-1.08,2.42-5.45,4.94-7.38,2.75,1.04-1.11,1.7-1.25,1.7-2.75Z"/>
          <path class="cls-3" d="m36.33,42.52c0-1.5.66-1.64,1.7-2.75-1.93-2.19-6.3.33-7.38,2.75,1.08,2.42,5.46,4.94,7.38,2.75-1.04-1.11-1.7-1.25-1.7-2.75Z"/>
          <line class="cls-4" x1="-.11" y1="42.46" x2="-.11" y2="42.46"/>
          <line class="cls-4" x1="42.39" y1="42.46" x2="42.39" y2="42.46"/>
          <line class="cls-5" x1="21.14" y1="42.4" x2="21.14" y2="42.4"/>
        </g>
        <line class="cls-4" x1="-.11" y1="42.46" x2="-.11" y2="42.46"/>
        <g>
          <path class="cls-3" d="m42.49,36.41c1.5,0,1.64.66,2.75,1.7,2.19-1.93-.33-6.3-2.75-7.38-2.42,1.08-4.94,5.45-2.75,7.38,1.11-1.04,1.25-1.7,2.75-1.7Z"/>
          <path class="cls-3" d="m42.49,6.02c1.5,0,1.64-.66,2.75-1.7,2.19,1.93-.33,6.3-2.75,7.38-2.42-1.09-4.94-5.45-2.75-7.38,1.11,1.04,1.25,1.7,2.75,1.7Z"/>
          <line class="cls-4" x1="42.39" y1="-.04" x2="42.39" y2="-.04"/>
          <line class="cls-4" x1="42.39" y1="42.46" x2="42.39" y2="42.46"/>
          <line class="cls-5" x1="42.39" y1="21.15" x2="42.39" y2="21.15"/>
        </g>
        <g>
          <line class="cls-1" x1="3.27" y1="24.57" x2="17.42" y2="38.72"/>
          <line class="cls-1" x1="38.84" y1="24.79" x2="24.7" y2="38.93"/>
          <line class="cls-1" x1="17.56" y1="3.5" x2="3.41" y2="17.64"/>
          <line class="cls-1" x1="24.52" y1="3.32" x2="38.67" y2="17.47"/>
          <path class="cls-3" d="m21.14,14.91c1.5,0,1.64.66,2.75,1.7,2.19-1.93-.33-6.3-2.75-7.38-2.42,1.08-4.94,5.45-2.75,7.38,1.11-1.04,1.25-1.7,2.75-1.7Z"/>
          <path class="cls-3" d="m14.83,21.21c0-1.5.66-1.64,1.7-2.75-1.93-2.19-6.3.33-7.38,2.75,1.08,2.42,5.45,4.94,7.38,2.75-1.04-1.11-1.7-1.25-1.7-2.75Z"/>
          <path class="cls-3" d="m21.14,27.52c-1.5,0-1.64-.66-2.75-1.7-2.19,1.93.33,6.3,2.75,7.38,2.42-1.08,4.94-5.46,2.75-7.38-1.11,1.04-1.25,1.7-2.75,1.7Z"/>
          <path class="cls-3" d="m27.45,21.21c0,1.5-.66,1.64-1.7,2.75,1.93,2.19,6.3-.32,7.38-2.75-1.08-2.42-5.46-4.94-7.38-2.75,1.04,1.11,1.7,1.25,1.7,2.75Z"/>
          <path class="cls-3" d="m-.01,36.41c1.5,0,1.64.66,2.75,1.7,2.19-1.93-.33-6.3-2.75-7.38-2.42,1.08-4.94,5.45-2.75,7.38,1.11-1.04,1.25-1.7,2.75-1.7Z"/>
          <path class="cls-3" d="m5.95,42.48c0,1.5-.66,1.64-1.7,2.75,1.93,2.19,6.3-.32,7.38-2.75-1.08-2.42-5.45-4.94-7.38-2.75,1.04,1.11,1.7,1.25,1.7,2.75Z"/>
          <path class="cls-3" d="m-.01,6.02c1.5,0,1.64-.66,2.75-1.7,2.19,1.93-.33,6.3-2.75,7.38-2.42-1.09-4.94-5.45-2.75-7.38C-1.65,5.36-1.51,6.02-.01,6.02Z"/>
          <path class="cls-3" d="m5.95.01c0-1.5-.66-1.64-1.7-2.75,1.93-2.19,6.3.33,7.38,2.75-1.08,2.42-5.45,4.94-7.38,2.75C5.28,1.65,5.95,1.51,5.95.01Z"/>
          <path class="cls-3" d="m42.51,36.41c-1.5,0-1.64.66-2.75,1.7-2.19-1.93.32-6.3,2.75-7.38,2.42,1.08,4.94,5.45,2.75,7.38-1.11-1.04-1.25-1.7-2.75-1.7Z"/>
          <path class="cls-3" d="m36.33,42.48c0,1.5.66,1.64,1.7,2.75-1.93,2.19-6.3-.32-7.38-2.75,1.08-2.42,5.46-4.94,7.38-2.75-1.04,1.11-1.7,1.25-1.7,2.75Z"/>
          <path class="cls-3" d="m42.51,6.02c-1.5,0-1.64-.66-2.75-1.7-2.19,1.93.32,6.3,2.75,7.38,2.42-1.09,4.94-5.45,2.75-7.38-1.11,1.04-1.25,1.7-2.75,1.7Z"/>
          <path class="cls-3" d="m36.33.02c0-1.5.66-1.64,1.7-2.75-1.93-2.19-6.3.33-7.38,2.75,1.08,2.42,5.46,4.94,7.38,2.75-1.04-1.11-1.7-1.25-1.7-2.75Z"/>
          <line class="cls-6" x1="21.14" y1="21.21" x2="21.14" y2="21.21"/>
          <line class="cls-4" x1="-.11" y1="-.04" x2="-.11" y2="-.04"/>
          <line class="cls-4" x1="42.39" y1="-.04" x2="42.39" y2="-.04"/>
          <line class="cls-4" x1="-.11" y1="42.46" x2="-.11" y2="42.46"/>
          <line class="cls-2" x1="42.39" y1="42.46" x2="42.39" y2="42.46"/>
          <line class="cls-7" x1="21.14" y1="42.4" x2="21.14" y2="42.4"/>
          <line class="cls-5" x1="21.14" y1="-.1" x2="21.14" y2="-.1"/>
          <line class="cls-5" x1="-.11" y1="21.15" x2="-.11" y2="21.15"/>
          <line class="cls-7" x1="42.39" y1="21.15" x2="42.39" y2="21.15"/>
        </g>
        <g>
          <path class="cls-3" d="m.01,36.41c-1.5,0-1.64.66-2.75,1.7-2.19-1.93.32-6.3,2.75-7.38,2.42,1.08,4.94,5.45,2.75,7.38-1.11-1.04-1.25-1.7-2.75-1.7Z"/>
          <path class="cls-3" d="m.01,6.02c-1.5,0-1.64-.66-2.75-1.7-2.19,1.93.32,6.3,2.75,7.38,2.42-1.09,4.94-5.45,2.75-7.38C1.65,5.36,1.51,6.02.01,6.02Z"/>
          <line class="cls-4" x1="-.11" y1="-.04" x2="-.11" y2="-.04"/>
          <line class="cls-2" x1="-.11" y1="42.46" x2="-.11" y2="42.46"/>
          <line class="cls-7" x1="-.11" y1="21.15" x2="-.11" y2="21.15"/>
        </g>
        <line class="cls-4" x1="42.39" y1="-.04" x2="42.39" y2="-.04"/>
        <g>
          <path class="cls-3" d="m5.95-.02c0,1.5-.66,1.64-1.7,2.75,1.93,2.19,6.3-.32,7.38-2.75-1.08-2.42-5.45-4.94-7.38-2.75C5.28-1.66,5.95-1.52,5.95-.02Z"/>
          <path class="cls-3" d="m36.33-.02c0,1.5.66,1.64,1.7,2.75-1.93,2.19-6.3-.32-7.38-2.75,1.08-2.42,5.46-4.94,7.38-2.75-1.04,1.11-1.7,1.25-1.7,2.75Z"/>
          <line class="cls-4" x1="-.11" y1="-.04" x2="-.11" y2="-.04"/>
          <line class="cls-2" x1="42.39" y1="-.04" x2="42.39" y2="-.04"/>
          <line class="cls-7" x1="21.14" y1="-.1" x2="21.14" y2="-.1"/>
        </g>
        <line class="cls-2" x1="-.11" y1="-.04" x2="-.11" y2="-.04"/>
      </g>
    </pattern>
  </defs>
  <rect class="cls-8" width="144" height="144"/>
</svg>