<?xml version="1.0" encoding="UTF-8"?>
<svg id="Layer_1" data-name="Layer 1" xmlns="http://www.w3.org/2000/svg" xmlns:xlink="http://www.w3.org/1999/xlink" viewBox="0 0 144 144">
  <defs>
    <style>
      .cls-1 {
        fill: #d42557;
        stroke: #de697c;
        stroke-miterlimit: 10;
      }

      .cls-2 {
        fill: none;
      }

      .cls-3 {
        fill: url(#pink_dots);
      }
    </style>
    <pattern id="pink_dots" data-name="pink dots" x="0" y="0" width="72" height="72" patternUnits="userSpaceOnUse" viewBox="0 0 72 72">
      <g>
        <rect class="cls-2" width="72" height="72"/>
        <path class="cls-1" d="m21,3.25c-.06,0-.12-.02-.17-.07-.05-.05-.08-.11-.08-.18s.03-.13.08-.18c.09-.09.25-.09.35,0,.05.05.07.11.07.18,0,.06-.02.12-.07.17-.05.06-.11.08-.18.08Z"/>
        <path class="cls-1" d="m20,8.5c-.06,0-.13-.03-.18-.07-.04-.05-.07-.11-.07-.18s.03-.13.07-.18c.1-.09.26-.09.36,0,.04.05.07.11.07.18s-.03.13-.07.18c-.05.05-.11.07-.18.07Z"/>
        <path class="cls-1" d="m20.25,10.75c-.06,0-.13-.03-.17-.07-.05-.05-.08-.11-.08-.18s.03-.13.07-.18c.1-.09.27-.09.36,0,.04.05.07.11.07.18s-.03.14-.08.18c-.04.04-.1.07-.17.07Z"/>
        <path class="cls-1" d="m18,13c-.06,0-.12-.03-.17-.07-.05-.05-.08-.11-.08-.18s.03-.13.07-.18c.11-.09.26-.09.36,0,.05.05.07.11.07.18s-.02.13-.07.18c-.05.04-.11.07-.18.07Z"/>
        <path class="cls-1" d="m15.25,10.75c-.06,0-.12-.02-.17-.07-.05-.05-.08-.12-.08-.18,0-.07.03-.13.07-.18.12-.1.26-.09.36,0,.05.05.07.11.07.18,0,.06-.02.13-.07.17-.05.06-.11.08-.18.08Z"/>
        <path class="cls-1" d="m22.75,20.25c-.06,0-.12-.02-.17-.07-.05-.05-.08-.11-.08-.18,0-.06.03-.13.07-.17.11-.11.27-.1.36,0,.05.06.07.12.07.18s-.02.13-.07.18c-.05.04-.11.07-.18.07Z"/>
        <path class="cls-1" d="m15.25,23.25c-.06,0-.12-.02-.17-.07-.05-.05-.08-.11-.08-.18,0-.06.03-.12.07-.17.12-.11.26-.1.36,0,.05.05.07.12.07.18,0,.07-.02.13-.07.18-.05.05-.11.07-.18.07Z"/>
        <path class="cls-1" d="m14,24.25c-.07,0-.13-.03-.18-.08-.04-.04-.07-.1-.07-.17s.03-.13.07-.18c.11-.1.26-.09.36,0,.05.05.07.12.07.18,0,.07-.02.13-.07.18-.05.04-.11.07-.18.07Z"/>
        <path class="cls-1" d="m24,27.25c-.06,0-.12-.02-.17-.07-.05-.05-.08-.11-.08-.18s.03-.13.07-.17c.11-.11.26-.1.36,0,.05.06.07.12.07.18,0,.07-.02.13-.07.18-.05.05-.11.07-.18.07Z"/>
        <path class="cls-1" d="m30.75,26c-.06,0-.12-.02-.17-.07-.05-.05-.08-.11-.08-.18s.03-.13.08-.18c.1-.09.25-.09.35,0,.05.05.07.12.07.18s-.02.13-.07.18c-.05.05-.11.07-.18.07Z"/>
        <path class="cls-1" d="m31.25,23.5c-.06,0-.12-.03-.17-.07-.05-.05-.08-.11-.08-.18,0-.06.03-.13.07-.17.11-.11.26-.1.36,0,.05.06.07.12.07.18,0,.07-.02.13-.07.18-.05.04-.11.07-.18.07Z"/>
        <path class="cls-1" d="m29.25,18.5c-.06,0-.12-.02-.17-.07-.05-.05-.08-.11-.08-.18s.03-.13.08-.18c.1-.09.25-.09.35,0,.05.05.07.11.07.18s-.03.13-.07.18c-.05.05-.12.07-.18.07Z"/>
        <path class="cls-1" d="m32.25,18.5c-.06,0-.12-.02-.17-.07-.05-.05-.08-.11-.08-.18s.03-.13.07-.18c.11-.09.26-.09.36,0,.04.05.07.11.07.18s-.03.13-.07.18c-.05.05-.11.07-.18.07Z"/>
        <path class="cls-1" d="m32.5,14c-.06,0-.13-.03-.17-.07-.05-.05-.08-.11-.08-.18s.03-.13.08-.18c.09-.09.26-.09.35,0,.05.05.07.12.07.18s-.02.12-.07.17c-.05.05-.11.08-.18.08Z"/>
        <path class="cls-1" d="m31.75,12c-.06,0-.12-.02-.17-.07-.05-.05-.08-.11-.08-.18s.03-.13.08-.18c.1-.09.25-.09.35,0,.05.05.07.11.07.18s-.03.13-.07.18c-.05.05-.11.07-.18.07Z"/>
        <path class="cls-1" d="m29.25,11c-.07,0-.13-.03-.18-.07-.04-.05-.07-.11-.07-.18s.03-.13.08-.18c.1-.09.25-.09.35,0,.05.05.07.11.07.18s-.02.13-.07.18c-.05.04-.11.07-.18.07Z"/>
        <path class="cls-1" d="m32.25,7.25c-.06,0-.12-.02-.17-.07-.05-.05-.08-.11-.08-.18s.03-.13.07-.18c.11-.09.26-.09.36,0,.05.05.07.11.07.18s-.03.13-.07.18c-.05.05-.11.07-.18.07Z"/>
        <path class="cls-1" d="m32,3.25c-.06,0-.12-.03-.17-.07-.05-.05-.08-.11-.08-.18s.03-.13.08-.18c.1-.09.25-.09.35,0,.05.05.07.12.07.18s-.02.13-.07.18c-.05.04-.11.07-.18.07Z"/>
        <path class="cls-1" d="m29.25,3.5c-.06,0-.12-.02-.17-.07-.05-.05-.08-.11-.08-.18s.03-.13.08-.18c.09-.09.25-.09.35,0,.05.05.07.11.07.18,0,.06-.02.13-.07.17-.05.06-.11.08-.18.08Z"/>
        <path class="cls-1" d="m34,1.5c-.06,0-.13-.03-.17-.07-.05-.05-.08-.11-.08-.18s.03-.14.08-.18c.09-.09.26-.09.35,0,.05.05.07.11.07.18,0,.06-.02.12-.07.17-.05.05-.11.08-.18.08Z"/>
        <path class="cls-1" d="m41.5,7.25c-.06,0-.13-.03-.17-.07-.05-.05-.08-.11-.08-.18s.03-.13.08-.18c.09-.09.24-.09.34,0,.06.06.08.12.08.18s-.02.12-.07.17c-.05.06-.11.08-.18.08Z"/>
        <path class="cls-1" d="m45.5,7c-.06,0-.12-.02-.17-.07-.05-.05-.08-.11-.08-.18s.03-.13.08-.18c.09-.09.25-.09.35,0,.05.05.07.12.07.18s-.02.13-.07.18c-.05.05-.12.07-.18.07Z"/>
        <path class="cls-1" d="m40.25,10.5c-.06,0-.12-.02-.17-.07-.05-.05-.08-.12-.08-.18,0-.07.03-.13.07-.18.11-.09.26-.09.36,0,.05.05.07.11.07.18,0,.06-.02.13-.07.17-.05.06-.11.08-.18.08Z"/>
        <path class="cls-1" d="m45,12c-.06,0-.12-.02-.17-.07-.05-.05-.08-.11-.08-.18s.03-.13.08-.18c.1-.09.25-.09.35,0,.04.05.07.11.07.18s-.02.13-.07.18c-.05.05-.11.07-.18.07Z"/>
        <path class="cls-1" d="m45,13.75c-.06,0-.12-.02-.17-.07-.05-.05-.08-.11-.08-.18s.03-.13.08-.18c.08-.09.26-.09.35,0,.05.04.07.1.07.17s-.02.13-.07.18c-.05.05-.11.07-.18.07Z"/>
        <path class="cls-1" d="m47,14.5c-.06,0-.12-.02-.17-.07-.05-.05-.08-.11-.08-.18s.03-.13.08-.18c.09-.09.25-.09.35,0,.05.05.07.12.07.18s-.02.13-.07.18c-.05.05-.11.07-.18.07Z"/>
        <path class="cls-1" d="m47,16.5c-.06,0-.13-.03-.17-.07-.05-.05-.08-.11-.08-.18s.03-.13.08-.18c.08-.08.26-.09.35,0,.05.04.07.11.07.17s-.02.13-.07.18c-.05.04-.11.07-.18.07Z"/>
        <path class="cls-1" d="m47.25,23c-.06,0-.13-.03-.17-.07-.05-.04-.08-.11-.08-.18s.03-.13.08-.18c.08-.08.25-.09.35,0,.05.05.07.11.07.18s-.03.13-.07.18c-.05.05-.11.07-.18.07Z"/>
        <path class="cls-1" d="m39,21c-.06,0-.12-.02-.17-.07-.05-.05-.08-.11-.08-.18s.03-.13.08-.18c.1-.09.25-.09.35,0,.04.05.07.11.07.18s-.03.13-.07.18c-.05.05-.11.07-.18.07Z"/>
        <path class="cls-1" d="m50.25,13.75c-.06,0-.13-.03-.17-.07-.05-.05-.08-.11-.08-.18s.03-.13.08-.18c.1-.09.26-.09.35,0,.05.05.07.12.07.18s-.02.13-.07.18c-.05.04-.11.07-.18.07Z"/>
        <path class="cls-1" d="m52.25,12.25c-.06,0-.12-.02-.17-.07-.05-.05-.08-.11-.08-.18s.03-.13.08-.18c.09-.09.25-.09.35,0,.05.05.07.12.07.18s-.02.13-.07.18c-.05.05-.11.07-.18.07Z"/>
        <path class="cls-1" d="m54.75,11.25c-.06,0-.13-.03-.17-.07-.05-.05-.08-.12-.08-.18,0-.07.03-.13.08-.18.09-.09.25-.09.35,0,.05.05.07.11.07.18,0,.06-.02.13-.07.18-.05.04-.11.07-.18.07Z"/>
        <path class="cls-1" d="m54.75,7c-.07,0-.13-.03-.17-.07-.05-.06-.08-.12-.08-.18s.03-.12.07-.17c.1-.1.26-.1.36,0,.05.06.07.12.07.18s-.02.12-.07.17c-.05.05-.11.08-.18.08Z"/>
        <path class="cls-1" d="m56.5,1c-.06,0-.13-.03-.17-.07-.05-.05-.08-.12-.08-.18s.03-.13.07-.18c.1-.09.26-.09.36,0,.05.06.07.12.07.18s-.02.12-.07.17c-.05.05-.11.08-.18.08Z"/>
        <path class="cls-1" d="m64,6.75c-.06,0-.13-.03-.17-.07-.05-.05-.08-.12-.08-.18s.03-.13.07-.17c.1-.1.26-.1.36,0,.05.06.07.12.07.18s-.02.12-.07.17c-.05.05-.11.08-.18.08Z"/>
        <path class="cls-1" d="m65,2.75c-.06,0-.13-.03-.17-.07-.05-.05-.08-.11-.08-.18s.03-.13.08-.18c.09-.09.25-.09.35,0,.05.05.07.11.07.18s-.02.13-.07.17c-.05.06-.11.08-.18.08Z"/>
        <path class="cls-1" d="m68,3.25c-.06,0-.13-.03-.17-.07-.05-.05-.08-.11-.08-.18s.03-.13.07-.18c.1-.09.27-.09.36,0,.05.05.07.12.07.18s-.02.13-.07.18c-.05.04-.11.07-.18.07Z"/>
        <path class="cls-1" d="m68,10.5c-.06,0-.13-.03-.17-.07-.05-.05-.08-.11-.08-.18s.03-.13.07-.18c.1-.09.26-.09.36,0,.05.05.07.12.07.18s-.02.13-.07.18c-.05.04-.11.07-.18.07Z"/>
        <path class="cls-1" d="m64.25,12.5c-.06,0-.13-.03-.17-.07-.05-.05-.08-.12-.08-.18s.03-.13.07-.17c.09-.1.25-.1.35,0,.06.05.08.12.08.18s-.02.13-.07.17c-.05.06-.11.08-.18.08Z"/>
        <path class="cls-1" d="m65.25,16c-.07,0-.13-.03-.17-.07-.05-.05-.08-.11-.08-.18s.03-.13.08-.18c.07-.08.26-.09.35,0,.05.04.07.11.07.17s-.02.12-.07.17c-.04.05-.11.08-.18.08Z"/>
        <path class="cls-1" d="m64,20c-.06,0-.13-.03-.17-.07-.05-.05-.08-.11-.08-.18s.03-.13.08-.18c.08-.09.25-.09.35,0,.05.05.07.12.07.18s-.02.13-.07.18c-.05.04-.11.07-.18.07Z"/>
        <path class="cls-1" d="m66.25,20c-.07,0-.13-.03-.18-.08-.04-.04-.07-.1-.07-.17,0-.06.03-.13.07-.17.09-.1.26-.1.36,0,.05.05.07.12.07.18,0,.07-.02.13-.07.18-.05.04-.11.07-.18.07Z"/>
        <path class="cls-1" d="m68,21.5c-.06,0-.13-.03-.17-.07-.05-.05-.08-.12-.08-.18s.03-.12.07-.17c.1-.1.27-.1.36,0,.05.06.07.12.07.18s-.02.12-.07.17c-.05.05-.11.08-.18.08Z"/>
        <path class="cls-1" d="m69.25,20.5c-.06,0-.12-.02-.17-.07-.05-.05-.08-.11-.08-.18s.03-.13.08-.18c.09-.09.25-.09.35,0,.05.05.07.11.07.18s-.02.13-.07.18c-.05.05-.11.07-.18.07Z"/>
        <path class="cls-1" d="m69.5,18.25c-.06,0-.12-.02-.17-.07-.05-.05-.08-.11-.08-.18s.03-.13.08-.18c.09-.09.25-.09.35,0,.05.05.07.11.07.18s-.02.13-.07.18c-.05.05-.11.07-.18.07Z"/>
        <path class="cls-1" d="m71.25,17.75c-.06,0-.13-.03-.17-.07-.05-.05-.08-.12-.08-.18s.03-.12.07-.17c.11-.1.26-.1.36,0,.05.06.07.12.07.18s-.02.12-.07.17c-.05.05-.11.08-.18.08Z"/>
        <path class="cls-1" d="m8,47.25c-.06,0-.13-.03-.18-.07-.04-.06-.07-.12-.07-.18,0-.07.03-.13.07-.18.09-.09.26-.09.36,0,.05.05.07.11.07.18,0,.06-.02.13-.07.17-.05.06-.11.08-.18.08Z"/>
        <path class="cls-1" d="m7,52.5c-.06,0-.12-.02-.17-.07-.05-.05-.08-.11-.08-.18s.03-.13.07-.18c.11-.09.26-.09.36,0,.05.05.07.12.07.18,0,.07-.02.13-.07.18-.05.05-.11.07-.18.07Z"/>
        <path class="cls-1" d="m7.25,54.75c-.06,0-.13-.03-.17-.07-.05-.05-.08-.11-.08-.18,0-.06.03-.13.07-.18.1-.09.26-.09.36,0,.04.05.07.11.07.18s-.03.13-.07.18c-.05.04-.11.07-.18.07Z"/>
        <path class="cls-1" d="m5,57c-.06,0-.13-.03-.17-.07-.05-.05-.08-.11-.08-.18s.03-.13.07-.17c.1-.1.26-.1.36,0,.05.05.07.11.07.18s-.03.13-.07.18c-.05.05-.12.07-.18.07Z"/>
        <path class="cls-1" d="m2.25,54.75c-.06,0-.12-.02-.17-.07-.05-.05-.08-.11-.08-.18,0-.06.03-.13.07-.17.11-.11.26-.1.35,0,.06.06.08.12.08.18s-.02.13-.07.18c-.06.05-.12.07-.18.07Z"/>
        <path class="cls-1" d="m9.75,64.25c-.06,0-.12-.02-.17-.07-.05-.05-.08-.11-.08-.18s.03-.13.07-.18c.11-.09.26-.09.36,0,.05.05.07.11.07.18s-.02.13-.07.18-.11.07-.18.07Z"/>
        <path class="cls-1" d="m2.25,67.25c-.06,0-.12-.03-.17-.07-.05-.05-.08-.11-.08-.18s.03-.13.07-.18c.1-.09.26-.09.36,0,.05.05.07.11.07.18,0,.06-.02.13-.07.18-.06.05-.12.07-.18.07Z"/>
        <path class="cls-1" d="m1,68.25c-.06,0-.13-.03-.18-.07-.04-.05-.07-.11-.07-.18,0-.06.03-.13.07-.18.1-.09.27-.09.36,0,.05.05.07.12.07.18s-.02.13-.07.18c-.05.04-.11.07-.18.07Z"/>
        <path class="cls-1" d="m11,71.25c-.06,0-.12-.02-.17-.07-.05-.05-.08-.11-.08-.18s.03-.13.07-.18c.11-.09.26-.09.36,0,.05.05.07.12.07.18s-.02.13-.07.18c-.05.05-.12.07-.18.07Z"/>
        <path class="cls-1" d="m17.75,70c-.06,0-.12-.02-.17-.07-.05-.05-.08-.11-.08-.18s.03-.13.07-.18c.11-.09.26-.09.36,0,.05.05.07.11.07.18s-.03.13-.07.18c-.05.05-.12.07-.18.07Z"/>
        <path class="cls-1" d="m18.25,67.5c-.06,0-.12-.03-.17-.07-.05-.06-.08-.12-.08-.18,0-.07.03-.13.07-.18.11-.09.26-.09.36,0,.05.05.07.11.07.18,0,.06-.02.13-.07.17-.05.05-.11.08-.18.08Z"/>
        <path class="cls-1" d="m16.25,62.5c-.07,0-.13-.03-.18-.08-.04-.04-.07-.1-.07-.17s.03-.13.07-.18c.1-.09.26-.09.36,0,.05.05.07.11.07.18s-.02.13-.07.18c-.05.04-.11.07-.18.07Z"/>
        <path class="cls-1" d="m19.25,62.5c-.06,0-.13-.03-.17-.07-.05-.05-.08-.11-.08-.18s.03-.13.07-.18c.1-.09.27-.09.36,0,.04.04.07.11.07.18s-.03.14-.08.18c-.04.04-.1.07-.17.07Z"/>
        <path class="cls-1" d="m19.5,58c-.06,0-.12-.02-.17-.07-.05-.05-.08-.11-.08-.18,0-.06.03-.13.07-.17.11-.11.26-.1.36,0,.05.06.07.12.07.18s-.02.13-.07.18c-.05.05-.11.07-.18.07Z"/>
        <path class="cls-1" d="m18.75,56c-.06,0-.12-.02-.17-.07-.05-.05-.08-.11-.08-.18s.03-.13.08-.18c.1-.09.26-.09.35,0,.05.05.07.12.07.18s-.02.12-.07.17c-.05.05-.11.08-.18.08Z"/>
        <path class="cls-1" d="m16.25,55c-.06,0-.13-.03-.18-.07-.04-.05-.07-.11-.07-.18,0-.06.03-.12.07-.17.1-.1.26-.1.36,0,.05.05.07.12.07.18,0,.07-.02.13-.07.18-.05.05-.11.07-.18.07Z"/>
        <path class="cls-1" d="m19.25,51.25c-.06,0-.13-.03-.17-.07-.05-.05-.08-.12-.08-.18,0-.07.03-.13.07-.18.1-.09.27-.09.36,0,.04.04.07.11.07.18s-.02.13-.07.18c-.05.04-.11.07-.18.07Z"/>
        <path class="cls-1" d="m19,47.25c-.06,0-.13-.03-.17-.07-.05-.05-.08-.12-.08-.18,0-.07.03-.13.07-.18.1-.09.26-.09.36,0,.04.05.07.11.07.18,0,.06-.02.13-.07.17-.05.06-.11.08-.18.08Z"/>
        <path class="cls-1" d="m16.25,47.5c-.07,0-.13-.03-.18-.07-.04-.05-.07-.12-.07-.18,0-.07.03-.13.07-.18.09-.09.26-.09.36,0,.05.05.07.11.07.18,0,.06-.02.13-.07.18-.05.05-.11.07-.18.07Z"/>
        <path class="cls-1" d="m21,45.5c-.06,0-.12-.02-.17-.07-.05-.05-.08-.11-.08-.18s.03-.13.08-.18c.1-.09.25-.09.35,0,.05.05.07.12.07.18s-.02.12-.07.17c-.05.06-.11.08-.18.08Z"/>
        <path class="cls-1" d="m28.5,51.25c-.06,0-.13-.03-.17-.07-.05-.05-.08-.11-.08-.18s.03-.13.08-.18c.09-.09.26-.09.35,0,.05.06.07.12.07.18s-.02.13-.07.18c-.05.04-.11.07-.18.07Z"/>
        <path class="cls-1" d="m32.5,51c-.06,0-.13-.03-.17-.07-.05-.05-.08-.11-.08-.18s.03-.13.08-.18c.09-.09.25-.09.35,0,.05.05.07.12.07.18s-.02.13-.07.18c-.05.04-.11.07-.18.07Z"/>
        <path class="cls-1" d="m27.25,54.5c-.07,0-.13-.03-.18-.08-.04-.04-.07-.1-.07-.17s.03-.14.08-.18c.09-.09.26-.09.35,0,.05.05.07.11.07.18,0,.06-.02.13-.07.18-.04.04-.11.07-.18.07Z"/>
        <path class="cls-1" d="m32,56c-.06,0-.12-.03-.17-.07-.05-.05-.08-.11-.08-.18,0-.06.03-.13.07-.17.11-.11.26-.1.36,0,.05.06.07.12.07.18,0,.07-.02.13-.07.18-.05.04-.11.07-.18.07Z"/>
        <path class="cls-1" d="m32,57.75c-.06,0-.12-.02-.17-.07-.05-.05-.08-.11-.08-.18,0-.06.03-.13.07-.17.11-.11.26-.1.36,0,.05.06.07.12.07.18s-.02.13-.07.18c-.05.05-.11.07-.18.07Z"/>
        <path class="cls-1" d="m34,58.5c-.07,0-.13-.03-.18-.08-.04-.04-.07-.1-.07-.17s.03-.14.08-.18c.09-.09.26-.09.35,0,.05.05.07.11.07.18,0,.06-.02.13-.07.18-.04.04-.11.07-.18.07Z"/>
        <path class="cls-1" d="m34,60.5c-.06,0-.12-.02-.17-.07-.05-.05-.08-.11-.08-.18s.03-.13.08-.18c.09-.09.26-.09.35,0,.05.06.07.12.07.18s-.02.13-.07.18c-.05.04-.11.07-.18.07Z"/>
        <path class="cls-1" d="m34.25,67c-.06,0-.13-.03-.17-.07-.05-.05-.08-.11-.08-.18s.03-.13.08-.18c.09-.09.25-.09.35,0,.05.05.07.12.07.18s-.02.13-.07.18c-.05.04-.11.07-.18.07Z"/>
        <path class="cls-1" d="m26,65c-.06,0-.12-.02-.17-.07-.05-.05-.08-.11-.08-.18s.03-.13.08-.18c.09-.09.26-.09.35,0,.05.04.07.11.07.17,0,.07-.02.13-.07.18-.05.05-.11.07-.18.07Z"/>
        <path class="cls-1" d="m37.25,57.75c-.06,0-.13-.03-.17-.07-.05-.05-.08-.11-.08-.18s.03-.13.08-.18c.09-.09.25-.09.34,0,.06.05.08.12.08.18s-.02.12-.07.17c-.05.06-.11.08-.18.08Z"/>
        <path class="cls-1" d="m39.25,56.25c-.06,0-.13-.03-.17-.07-.05-.05-.08-.11-.08-.18s.03-.13.08-.18c.09-.09.25-.09.35,0,.05.05.07.12.07.18s-.02.12-.07.17c-.05.06-.11.08-.18.08Z"/>
        <path class="cls-1" d="m41.75,55.25c-.06,0-.13-.03-.17-.07-.05-.05-.08-.11-.08-.18s.03-.14.08-.18c.09-.09.26-.09.35,0,.05.05.07.11.07.18,0,.06-.02.12-.07.17-.05.05-.11.08-.18.08Z"/>
        <path class="cls-1" d="m41.75,51c-.06,0-.12-.02-.17-.07-.05-.05-.08-.11-.08-.18s.03-.13.08-.18c.09-.09.26-.09.35,0,.05.05.07.11.07.18,0,.06-.02.13-.07.18-.05.04-.11.07-.18.07Z"/>
        <path class="cls-1" d="m43.5,45c-.06,0-.12-.03-.17-.07-.05-.05-.08-.11-.08-.18s.03-.13.08-.18c.09-.09.25-.09.35,0,.05.05.07.12.07.18s-.02.13-.07.18c-.05.05-.12.07-.18.07Z"/>
        <path class="cls-1" d="m51,50.75c-.06,0-.12-.03-.17-.07-.05-.05-.08-.11-.08-.18s.03-.13.08-.18c.09-.09.25-.09.35,0,.05.05.07.11.07.18s-.02.13-.07.18c-.05.05-.11.07-.18.07Z"/>
        <path class="cls-1" d="m52,46.75c-.06,0-.13-.03-.17-.07-.05-.05-.08-.11-.08-.18s.03-.13.08-.18c.09-.09.25-.09.35,0,.05.06.07.12.07.18s-.02.12-.07.17c-.05.06-.11.08-.18.08Z"/>
        <path class="cls-1" d="m55,47.25c-.06,0-.12-.02-.17-.07-.05-.05-.08-.11-.08-.18s.03-.13.08-.18c.09-.09.25-.09.35,0,.05.05.07.12.07.18s-.02.13-.07.18c-.05.05-.11.07-.18.07Z"/>
        <path class="cls-1" d="m55,54.5c-.06,0-.12-.03-.17-.07-.05-.05-.08-.11-.08-.18s.03-.13.08-.18c.09-.09.25-.09.35,0,.05.05.07.12.07.18s-.02.13-.07.18c-.05.05-.11.07-.18.07Z"/>
        <path class="cls-1" d="m51.25,56.5c-.06,0-.13-.03-.17-.07-.05-.05-.08-.11-.08-.18s.03-.13.08-.18c.09-.09.25-.09.35,0,.05.05.07.11.07.18s-.02.13-.07.18c-.05.04-.11.07-.18.07Z"/>
        <path class="cls-1" d="m52.25,60c-.06,0-.12-.02-.17-.07-.05-.05-.08-.11-.08-.18s.03-.13.08-.18c.09-.09.25-.09.35,0,.05.06.07.12.07.18s-.02.12-.07.17c-.05.06-.11.08-.18.08Z"/>
        <path class="cls-1" d="m51,64c-.06,0-.13-.03-.17-.07-.05-.05-.08-.11-.08-.18s.03-.13.08-.18c.09-.09.25-.09.35,0,.05.05.07.12.07.18s-.02.13-.07.17c-.05.06-.11.08-.18.08Z"/>
        <path class="cls-1" d="m53.25,64c-.06,0-.13-.03-.17-.07-.05-.05-.08-.12-.08-.18s.03-.13.07-.17c.1-.1.26-.1.36,0,.05.06.07.12.07.18s-.02.12-.07.17c-.05.05-.11.08-.18.08Z"/>
        <path class="cls-1" d="m55,65.5c-.06,0-.12-.03-.17-.07-.05-.05-.08-.11-.08-.18s.03-.13.08-.18c.09-.09.25-.09.35,0,.05.05.07.12.07.18s-.02.13-.07.18c-.05.05-.11.07-.18.07Z"/>
        <path class="cls-1" d="m56.25,64.5c-.06,0-.12-.03-.17-.07-.05-.05-.08-.11-.08-.18s.03-.13.08-.18c.09-.09.25-.09.35,0,.05.05.07.12.07.18,0,.07-.02.13-.07.18-.05.05-.11.07-.18.07Z"/>
        <path class="cls-1" d="m56.5,62.25c-.06,0-.13-.03-.17-.07-.05-.06-.08-.12-.08-.18,0-.07.03-.13.08-.18.07-.08.26-.09.35,0,.05.04.07.11.07.17s-.02.12-.07.17c-.05.05-.11.08-.18.08Z"/>
        <path class="cls-1" d="m58.25,61.75c-.06,0-.13-.03-.17-.07-.05-.05-.08-.12-.08-.18s.03-.13.07-.17c.1-.1.27-.1.36,0,.05.06.07.12.07.18s-.02.12-.07.17c-.04.05-.11.08-.18.08Z"/>
        <path class="cls-1" d="m21,27.25c-.06,0-.12-.02-.17-.07-.05-.05-.08-.11-.08-.18s.03-.13.08-.18c.1-.09.25-.09.35,0,.05.05.07.12.07.18s-.02.13-.07.18c-.05.05-.12.07-.18.07Z"/>
        <path class="cls-1" d="m22.75,24.25c-.07,0-.13-.03-.18-.07-.04-.05-.07-.11-.07-.18s.03-.13.08-.18c.1-.09.26-.09.35,0,.05.05.07.12.07.18s-.02.13-.07.18c-.04.04-.11.07-.18.07Z"/>
        <path class="cls-1" d="m25.25,24.75c-.06,0-.12-.03-.17-.07-.05-.05-.08-.11-.08-.18s.03-.13.08-.18c.1-.09.25-.09.35,0,.05.05.07.12.07.18s-.02.13-.07.18c-.05.04-.11.07-.18.07Z"/>
        <path class="cls-1" d="m35.25,23.5c-.06,0-.12-.02-.17-.07-.05-.05-.08-.11-.08-.18s.03-.13.08-.18c.1-.09.25-.09.35,0,.05.05.07.11.07.18s-.03.13-.07.18c-.05.05-.11.07-.18.07Z"/>
        <path class="cls-1" d="m39,25c-.06,0-.12-.02-.17-.07-.05-.05-.08-.11-.08-.18s.03-.13.08-.18c.1-.09.25-.09.35,0,.05.05.07.11.07.18s-.03.13-.07.18c-.05.05-.12.07-.18.07Z"/>
        <path class="cls-1" d="m45,29.75c-.06,0-.12-.02-.17-.07-.05-.05-.08-.11-.08-.18s.03-.13.08-.18c.1-.09.25-.09.35,0,.05.05.07.11.07.18s-.02.13-.07.18c-.05.05-.12.07-.18.07Z"/>
        <path class="cls-1" d="m46.25,29.25c-.06,0-.13-.03-.17-.07-.05-.05-.08-.11-.08-.18s.03-.13.08-.18c.09-.09.25-.09.34,0,.06.06.08.12.08.18s-.02.12-.07.17c-.05.06-.11.08-.18.08Z"/>
        <path class="cls-1" d="m55.25,28.25c-.06,0-.13-.03-.17-.07-.05-.05-.08-.11-.08-.18s.03-.13.08-.18c.09-.09.25-.09.35,0,.05.05.07.12.07.18s-.02.13-.07.18c-.05.04-.11.07-.18.07Z"/>
        <path class="cls-1" d="m51.25,25.5c-.06,0-.12-.02-.17-.07-.05-.05-.08-.11-.08-.18s.03-.13.08-.18c.09-.09.25-.09.35,0,.05.05.07.11.07.18s-.03.13-.07.18c-.05.05-.11.07-.18.07Z"/>
        <path class="cls-1" d="m52,29.75c-.06,0-.13-.03-.17-.07-.05-.05-.08-.11-.08-.18s.03-.13.08-.18c.09-.09.25-.09.35,0,.05.06.07.12.07.18s-.02.12-.07.17c-.05.06-.11.08-.18.08Z"/>
        <path class="cls-1" d="m62.5,35.75c-.06,0-.13-.03-.17-.07-.05-.05-.08-.11-.08-.18s.03-.13.08-.18c.08-.08.24-.09.34,0,.06.05.08.12.08.18s-.02.13-.07.18c-.05.05-.12.07-.18.07Z"/>
        <path class="cls-1" d="m58.25,38.5c-.07,0-.13-.03-.17-.07-.05-.05-.08-.12-.08-.18s.03-.13.07-.17c.1-.1.27-.1.36,0,.05.06.07.12.07.18s-.02.12-.07.17c-.04.05-.11.08-.18.08Z"/>
        <path class="cls-1" d="m49,39.25c-.07,0-.13-.03-.17-.07-.05-.05-.08-.12-.08-.18s.03-.13.07-.17c.1-.1.26-.1.36,0,.05.06.07.12.07.18s-.02.12-.07.17c-.05.05-.11.08-.18.08Z"/>
        <path class="cls-1" d="m48,41.5c-.06,0-.12-.02-.17-.07-.05-.05-.08-.11-.08-.18s.03-.13.08-.18c.09-.09.24-.09.34,0,.06.05.08.12.08.18s-.02.12-.07.17c-.06.06-.11.08-.18.08Z"/>
        <path class="cls-1" d="m52,43.25c-.07,0-.13-.03-.18-.08-.04-.04-.07-.1-.07-.17s.03-.13.08-.18c.09-.09.25-.09.35,0,.05.05.07.12.07.18s-.02.13-.07.18c-.05.04-.11.07-.18.07Z"/>
        <path class="cls-1" d="m53.5,45.25c-.06,0-.13-.03-.17-.07-.05-.05-.08-.11-.08-.18s.03-.13.08-.18c.08-.09.25-.09.35,0,.05.05.07.12.07.18s-.02.13-.07.18c-.05.04-.11.07-.18.07Z"/>
        <path class="cls-1" d="m62.25,48.25c-.06,0-.13-.03-.17-.07-.05-.05-.08-.12-.08-.18s.03-.13.07-.17c.1-.1.26-.1.36,0,.05.06.07.12.07.18s-.02.12-.07.17c-.05.05-.11.08-.18.08Z"/>
        <path class="cls-1" d="m65,52c-.06,0-.12-.03-.17-.07-.05-.05-.08-.11-.08-.18s.03-.14.08-.18c.09-.08.25-.09.35,0,.04.05.07.11.07.18s-.02.13-.07.18c-.05.05-.11.07-.18.07Z"/>
        <path class="cls-1" d="m67,52c-.06,0-.13-.03-.17-.07-.05-.05-.08-.11-.08-.18s.03-.13.08-.18c.08-.08.25-.09.35,0,.05.05.07.11.07.18s-.02.13-.07.18c-.05.05-.11.07-.18.07Z"/>
        <path class="cls-1" d="m69.5,45.25c-.06,0-.12-.03-.17-.07-.05-.05-.08-.11-.08-.18s.03-.13.08-.18c.09-.09.25-.09.35,0,.05.05.07.11.07.18s-.02.13-.07.18c-.05.05-.11.07-.18.07Z"/>
        <path class="cls-1" d="m60,39.25c-.06,0-.12-.02-.17-.07-.05-.05-.08-.11-.08-.18s.03-.13.08-.18c.09-.09.25-.09.35,0,.04.05.07.11.07.18s-.03.13-.07.18c-.05.05-.11.07-.18.07Z"/>
        <path class="cls-1" d="m47.25,48c-.06,0-.13-.03-.17-.07-.05-.05-.08-.11-.08-.18s.03-.14.08-.18c.08-.08.25-.09.35,0,.04.05.07.11.07.18s-.02.13-.07.18c-.05.05-.11.07-.18.07Z"/>
        <path class="cls-1" d="m32.5,47.25c-.06,0-.12-.03-.17-.07-.05-.05-.08-.11-.08-.18s.03-.13.08-.18c.09-.09.26-.09.35,0,.05.05.07.12.07.18s-.02.13-.07.18c-.05.04-.11.07-.18.07Z"/>
        <path class="cls-1" d="m37,44.75c-.06,0-.12-.03-.17-.07-.05-.05-.08-.12-.08-.18,0-.07.03-.13.07-.17.11-.11.26-.1.36,0,.05.05.07.12.07.18s-.02.13-.07.17c-.05.05-.11.08-.18.08Z"/>
        <path class="cls-1" d="m26.25,38c-.06,0-.12-.03-.17-.07-.05-.05-.08-.11-.08-.18s.03-.13.08-.18c.1-.09.25-.09.35,0,.05.05.07.12.07.18s-.02.13-.07.18c-.05.04-.11.07-.18.07Z"/>
        <path class="cls-1" d="m29.75,35.75c-.06,0-.12-.02-.17-.07-.05-.05-.08-.11-.08-.18s.03-.13.08-.18c.1-.09.25-.09.35,0,.05.05.07.12.07.18s-.02.12-.07.17c-.05.06-.11.08-.18.08Z"/>
        <path class="cls-1" d="m17,28.75c-.06,0-.12-.02-.17-.07-.05-.05-.08-.11-.08-.18,0-.06.03-.12.07-.17.11-.11.26-.1.36,0,.05.05.07.12.07.18,0,.07-.02.13-.07.18-.05.05-.11.07-.18.07Z"/>
        <path class="cls-1" d="m10.5,29.75c-.06,0-.12-.02-.17-.07-.05-.05-.08-.11-.08-.18,0-.06.03-.12.07-.17.11-.11.26-.1.36,0,.05.06.07.12.07.18s-.02.13-.07.18c-.05.05-.11.07-.18.07Z"/>
        <path class="cls-1" d="m6,31.75c-.06,0-.12-.02-.17-.07-.05-.05-.08-.11-.08-.18,0-.06.03-.12.07-.17.12-.11.26-.1.36,0,.05.06.07.12.07.18,0,.07-.02.13-.07.18-.05.05-.11.07-.18.07Z"/>
        <path class="cls-1" d="m2.5,35.5c-.07,0-.13-.03-.17-.07-.05-.05-.08-.12-.08-.18,0-.07.03-.13.08-.18.08-.09.24-.09.34,0,.06.05.08.11.08.18,0,.06-.02.13-.07.17-.05.06-.11.08-.18.08Z"/>
        <path class="cls-1" d="m11.25,37c-.07,0-.13-.03-.18-.07-.04-.05-.07-.12-.07-.18,0-.07.03-.13.07-.18.1-.09.25-.09.36,0,.05.05.07.11.07.18s-.02.13-.07.18c-.05.05-.11.07-.18.07Z"/>
        <path class="cls-1" d="m17,42.25c-.06,0-.12-.02-.17-.07-.05-.05-.08-.11-.08-.18,0-.06.03-.13.07-.18.11-.09.26-.09.36,0,.05.05.07.11.07.18s-.03.13-.07.18c-.05.05-.11.07-.18.07Z"/>
        <path class="cls-1" d="m12.75,36.25c-.06,0-.13-.03-.17-.07-.05-.05-.08-.11-.08-.18,0-.06.03-.13.07-.17.1-.1.26-.1.36,0,.05.05.07.11.07.18s-.02.13-.07.18c-.05.05-.12.07-.18.07Z"/>
        <path class="cls-1" d="m26.5,30.5c-.06,0-.12-.02-.17-.07-.05-.05-.08-.11-.08-.18s.03-.13.08-.18c.1-.09.25-.09.35,0,.05.05.07.12.07.18s-.02.13-.07.18c-.05.05-.11.07-.18.07Z"/>
        <path class="cls-1" d="m37.75,31.25c-.06,0-.12-.02-.17-.07-.05-.05-.08-.11-.08-.18s.03-.13.08-.18c.1-.09.25-.09.35,0,.05.05.07.11.07.18s-.02.13-.07.18c-.05.05-.12.07-.18.07Z"/>
        <path class="cls-1" d="m39.5,32.75c-.06,0-.12-.02-.17-.07-.05-.05-.08-.11-.08-.18s.03-.13.08-.18c.08-.09.26-.09.35,0,.05.04.07.11.07.17s-.02.13-.07.18c-.05.04-.11.07-.18.07Z"/>
        <path class="cls-1" d="m28,42.25c-.06,0-.12-.03-.17-.07-.05-.05-.08-.12-.08-.18s.03-.12.07-.17c.11-.1.26-.1.35,0,.06.06.08.12.08.18s-.02.13-.07.17c-.05.06-.11.08-.18.08Z"/>
        <path class="cls-1" d="m6.5,20.75c-.06,0-.13-.03-.17-.07-.05-.05-.08-.12-.08-.18,0-.07.03-.13.07-.18.1-.09.26-.09.36,0,.05.05.07.11.07.18,0,.06-.02.13-.07.17-.05.06-.11.08-.18.08Z"/>
        <path class="cls-1" d="m10.25,20.5c-.06,0-.13-.03-.17-.07-.05-.05-.08-.11-.08-.18s.03-.13.07-.18c.1-.09.26-.09.36,0,.05.05.07.11.07.18s-.02.13-.07.18c-.05.05-.11.07-.18.07Z"/>
        <path class="cls-1" d="m11.75,23.75c-.06,0-.12-.02-.17-.07-.05-.05-.08-.11-.08-.18,0-.06.03-.12.07-.17.11-.11.26-.1.36,0,.05.06.07.12.07.18s-.02.13-.07.18c-.05.05-.12.07-.18.07Z"/>
        <path class="cls-1" d="m3,26c-.06,0-.13-.03-.17-.07-.05-.05-.08-.11-.08-.18s.03-.13.07-.18c.1-.09.26-.09.36,0,.05.05.07.11.07.18s-.02.13-.07.18c-.05.05-.12.07-.18.07Z"/>
        <path class="cls-1" d="m64.25,29.75c-.06,0-.13-.03-.17-.07-.05-.05-.08-.12-.08-.18s.03-.13.07-.17c.1-.1.25-.1.35,0,.06.05.08.12.08.18s-.02.13-.07.17c-.05.06-.11.08-.18.08Z"/>
        <path class="cls-1" d="m67.5,31c-.06,0-.13-.03-.17-.07-.05-.05-.08-.11-.08-.18,0-.06.03-.13.07-.17.1-.1.26-.1.36,0,.05.06.07.12.07.18s-.02.13-.07.18c-.05.04-.11.07-.18.07Z"/>
        <path class="cls-1" d="m69.5,30c-.06,0-.13-.03-.17-.07-.05-.05-.08-.11-.08-.18s.03-.13.08-.18c.09-.09.25-.09.35,0,.05.05.07.11.07.18s-.02.13-.07.18c-.05.04-.11.07-.18.07Z"/>
        <path class="cls-1" d="m7.25,16c-.07,0-.13-.03-.18-.08-.04-.04-.07-.1-.07-.17s.03-.13.07-.18c.1-.09.26-.09.36,0,.04.05.07.11.07.18s-.03.13-.07.18c-.05.04-.11.07-.18.07Z"/>
        <path class="cls-1" d="m1.5,9.25c-.06,0-.13-.03-.18-.07-.04-.05-.07-.11-.07-.18s.03-.13.07-.18c.09-.09.26-.09.36,0,.05.05.07.12.07.18s-.02.13-.07.18c-.05.04-.11.07-.18.07Z"/>
        <path class="cls-1" d="m14.5,6.75c-.06,0-.12-.02-.17-.07-.05-.05-.08-.11-.08-.18,0-.06.03-.13.07-.17.11-.11.26-.1.36,0,.05.05.07.11.07.18s-.02.13-.07.18c-.05.05-.11.07-.18.07Z"/>
        <path class="cls-1" d="m8.5,5.5c-.06,0-.12-.02-.17-.07-.05-.05-.08-.11-.08-.18s.03-.13.07-.18c.1-.09.27-.09.36,0,.05.04.07.1.07.17,0,.06-.02.13-.07.18-.05.05-.11.07-.18.07Z"/>
        <path class="cls-1" d="m3.5,2.75c-.07,0-.13-.03-.18-.08-.04-.04-.07-.1-.07-.17s.03-.13.08-.18c.08-.09.25-.09.35,0,.04.05.07.11.07.18s-.03.13-.07.18c-.05.04-.11.07-.18.07Z"/>
        <path class="cls-1" d="m3.75,6.25c-.06,0-.13-.03-.17-.07-.05-.05-.08-.11-.08-.18,0-.06.03-.13.07-.18.09-.09.26-.09.36,0,.05.05.07.11.07.18s-.02.13-.07.18c-.05.05-.12.07-.18.07Z"/>
        <path class="cls-1" d="m12.75,14.5c-.06,0-.13-.03-.17-.07-.05-.05-.08-.12-.08-.18,0-.07.03-.13.07-.18.1-.09.26-.09.36,0,.05.05.07.11.07.18,0,.06-.02.13-.07.17-.05.06-.11.08-.18.08Z"/>
        <path class="cls-1" d="m18.5,19.5c-.06,0-.12-.02-.17-.07-.05-.05-.08-.11-.08-.18,0-.06.03-.13.07-.17.11-.11.27-.1.36,0,.05.06.07.12.07.18,0,.07-.02.13-.07.18-.05.04-.11.07-.18.07Z"/>
        <path class="cls-1" d="m21.25,37.25c-.06,0-.12-.02-.17-.07-.05-.05-.08-.12-.08-.18,0-.07.03-.13.07-.18.11-.09.26-.09.36,0,.05.05.07.11.07.18,0,.06-.02.13-.07.17-.05.06-.11.08-.18.08Z"/>
        <path class="cls-1" d="m.75,44.5c-.06,0-.13-.03-.17-.07-.05-.05-.08-.11-.08-.18s.03-.13.08-.18c.07-.08.25-.09.35,0,.04.04.07.1.07.17s-.03.13-.07.18c-.05.04-.11.07-.18.07Z"/>
        <path class="cls-1" d="m66.5,37.5c-.06,0-.13-.03-.17-.07-.05-.05-.08-.11-.08-.18s.03-.13.08-.18c.09-.09.25-.09.35,0,.05.05.07.12.07.18s-.02.13-.07.18c-.05.04-.11.07-.18.07Z"/>
        <path class="cls-1" d="m68,66.25c-.06,0-.13-.03-.17-.07-.05-.05-.08-.12-.08-.18,0-.07.03-.13.07-.18.1-.09.26-.09.36,0,.05.05.07.12.07.18s-.02.12-.07.17c-.05.05-.11.08-.18.08Z"/>
        <path class="cls-1" d="m59.75,70c-.07,0-.13-.03-.18-.08-.04-.04-.07-.1-.07-.17s.03-.13.08-.18c.09-.09.25-.09.35,0,.05.05.07.12.07.18,0,.07-.02.13-.07.18-.05.04-.11.07-.18.07Z"/>
        <path class="cls-1" d="m40.5,68.25c-.06,0-.12-.02-.17-.07-.05-.05-.08-.11-.08-.18s.03-.13.08-.18c.09-.09.25-.09.35,0,.05.05.07.12.07.18s-.02.13-.07.18c-.05.05-.12.07-.18.07Z"/>
        <path class="cls-1" d="m44,63.25c-.06,0-.12-.02-.17-.07-.05-.04-.08-.11-.08-.18s.03-.13.08-.18c.09-.09.25-.09.35,0,.05.05.07.12.07.18,0,.07-.02.13-.07.18-.05.05-.11.07-.18.07Z"/>
        <path class="cls-1" d="m25.75,70.25c-.06,0-.12-.02-.17-.07-.05-.05-.08-.11-.08-.18s.03-.13.08-.18c.09-.09.25-.09.35,0,.05.05.07.11.07.18,0,.06-.02.12-.07.17-.05.06-.11.08-.18.08Z"/>
        <path class="cls-1" d="m4.5,60.25c-.06,0-.12-.02-.17-.07-.05-.05-.08-.11-.08-.18,0-.06.03-.13.07-.17.11-.11.26-.1.36,0,.05.06.07.12.07.18s-.02.13-.07.18c-.05.05-.12.07-.18.07Z"/>
        <path class="cls-1" d="m26.5,59.75c-.06,0-.12-.02-.17-.07-.05-.05-.08-.11-.08-.18s.03-.13.08-.18c.1-.09.25-.09.35,0,.05.05.07.11.07.18,0,.06-.02.13-.07.18-.05.05-.11.07-.18.07Z"/>
        <path class="cls-1" d="m37.25,48.75c-.06,0-.12-.03-.17-.07-.05-.05-.08-.11-.08-.18s.03-.13.08-.18c.09-.09.24-.09.34,0,.06.05.08.12.08.18s-.02.13-.07.18c-.06.05-.12.07-.18.07Z"/>
        <path class="cls-1" d="m22,42c-.06,0-.12-.02-.17-.07-.05-.05-.08-.11-.08-.18s.03-.13.08-.18c.1-.09.25-.09.35,0,.05.05.07.12.07.18s-.02.13-.07.18c-.05.05-.12.07-.18.07Z"/>
        <path class="cls-1" d="m8.75,40.5c-.06,0-.13-.03-.17-.07-.05-.05-.08-.12-.08-.18,0-.07.03-.13.08-.18.09-.09.25-.09.35,0,.04.05.07.11.07.18s-.02.13-.07.18c-.05.05-.11.07-.18.07Z"/>
        <path class="cls-1" d="m24,29.25c-.06,0-.12-.02-.17-.07-.05-.05-.08-.11-.08-.18s.03-.13.08-.18c.1-.09.25-.09.35,0,.05.05.07.12.07.18s-.02.12-.07.17c-.05.06-.11.08-.18.08Z"/>
        <path class="cls-1" d="m41.5,34.75c-.06,0-.13-.03-.17-.07-.05-.05-.08-.11-.08-.18s.03-.13.08-.18c.09-.09.25-.09.34,0,.06.06.08.12.08.18s-.02.12-.07.17c-.05.06-.11.08-.18.08Z"/>
        <path class="cls-1" d="m51.5,37.75c-.06,0-.13-.03-.17-.07-.05-.05-.08-.11-.08-.18s.03-.13.08-.18c.09-.09.25-.09.35,0,.05.05.07.12.07.18s-.02.13-.07.17c-.05.06-.11.08-.18.08Z"/>
        <path class="cls-1" d="m60.75,46.25c-.06,0-.12-.03-.17-.07-.05-.05-.08-.11-.08-.18s.03-.14.08-.18c.09-.09.25-.09.35,0,.05.05.07.11.07.18s-.02.13-.07.18c-.05.04-.11.07-.18.07Z"/>
        <path class="cls-1" d="m67.5,44c-.06,0-.13-.03-.17-.07-.05-.05-.08-.11-.08-.18s.03-.13.08-.18c.08-.08.25-.09.35,0,.05.05.07.12.07.18s-.02.13-.07.18c-.05.04-.11.07-.18.07Z"/>
        <path class="cls-1" d="m51.25,66.5c-.06,0-.12-.02-.17-.07-.05-.05-.08-.11-.08-.18s.03-.13.08-.18c.09-.09.25-.09.35,0,.05.05.07.11.07.18s-.03.13-.07.18c-.05.05-.11.07-.18.07Z"/>
        <path class="cls-1" d="m40,38c-.06,0-.13-.03-.17-.07-.05-.05-.08-.11-.08-.18s.03-.13.08-.18c.09-.09.26-.09.35,0,.05.05.07.12.07.18s-.02.12-.07.17c-.05.05-.11.08-.18.08Z"/>
        <path class="cls-1" d="m53.25,15.25c-.06,0-.13-.03-.17-.07-.05-.05-.08-.11-.08-.18s.03-.13.08-.18c.07-.08.26-.09.35,0,.05.04.07.11.07.17s-.02.13-.07.18c-.05.04-.11.07-.18.07Z"/>
        <path class="cls-1" d="m34,16.25c-.07,0-.13-.03-.18-.08-.04-.04-.07-.1-.07-.17s.03-.14.08-.18c.09-.09.26-.09.35,0,.05.05.07.11.07.18,0,.06-.02.13-.07.18-.05.04-.11.07-.18.07Z"/>
        <path class="cls-1" d="m27.5,13.75c-.06,0-.12-.02-.17-.07-.05-.05-.08-.11-.08-.18s.03-.13.07-.17c.11-.11.26-.1.36,0,.05.05.07.12.07.18,0,.07-.02.13-.07.18-.05.05-.11.07-.18.07Z"/>
        <path class="cls-1" d="m12.75,19.5c-.06,0-.13-.03-.17-.07-.05-.05-.08-.11-.08-.18,0-.06.03-.12.07-.17.1-.1.26-.1.36,0,.05.05.07.12.07.18,0,.07-.02.13-.07.18-.05.05-.11.07-.18.07Z"/>
        <path class="cls-1" d="m19.75,26.75c-.06,0-.12-.02-.17-.07-.05-.05-.08-.11-.08-.18,0-.06.03-.12.07-.17.11-.11.26-.1.36,0,.05.05.07.12.07.18,0,.07-.02.13-.07.18-.05.05-.12.07-.18.07Z"/>
        <path class="cls-1" d="m49.5,4.75c-.06,0-.13-.03-.17-.07-.05-.04-.08-.11-.08-.18s.03-.14.08-.18c.08-.08.25-.09.35,0,.05.05.07.12.07.18s-.02.13-.07.18c-.05.04-.11.07-.18.07Z"/>
        <path class="cls-1" d="m11.75,2c-.06,0-.12-.02-.17-.07-.05-.05-.08-.11-.08-.18,0-.06.03-.13.07-.18.1-.09.27-.09.36,0,.05.05.07.12.07.18s-.02.13-.07.18c-.05.05-.11.07-.18.07Z"/>
        <path class="cls-1" d="m55.25,4c-.06,0-.13-.03-.17-.07-.05-.05-.08-.11-.08-.18s.03-.13.08-.18c.08-.09.25-.09.35,0,.05.05.07.12.07.18s-.02.13-.07.18c-.05.04-.11.07-.18.07Z"/>
        <path class="cls-1" d="m59,21c-.06,0-.13-.03-.17-.07-.05-.05-.08-.11-.08-.18s.03-.13.08-.18c.08-.09.25-.09.35,0,.05.06.07.12.07.18s-.02.12-.07.17c-.05.06-.11.08-.18.08Z"/>
        <path class="cls-1" d="m67.5,57.5c-.06,0-.13-.03-.17-.07-.05-.05-.08-.12-.08-.18,0-.07.03-.13.08-.18.09-.09.25-.09.35,0,.05.05.07.12.07.18s-.02.12-.07.17c-.05.05-.11.08-.18.08Z"/>
        <path class="cls-1" d="m47.25,70c-.06,0-.13-.03-.17-.07-.05-.04-.08-.11-.08-.18s.03-.14.08-.18c.08-.08.25-.09.35,0,.04.05.07.11.07.18s-.03.13-.07.18c-.05.05-.11.07-.18.07Z"/>
        <path class="cls-1" d="m5.25,70c-.06,0-.13-.03-.17-.07-.05-.05-.08-.11-.08-.18,0-.06.03-.12.07-.17.1-.1.26-.1.36,0,.05.05.07.12.07.18,0,.07-.02.13-.07.18s-.12.07-.18.07Z"/>
        <path class="cls-1" d="m4.75,40.5c-.06,0-.13-.03-.18-.07-.04-.05-.07-.11-.07-.18s.03-.13.07-.18c.09-.09.26-.09.36,0,.05.05.07.12.07.18s-.02.13-.07.18c-.05.04-.11.07-.18.07Z"/>
        <path class="cls-1" d="m69.75,13c-.07,0-.13-.03-.17-.07-.05-.05-.08-.11-.08-.18s.03-.13.08-.18c.09-.09.25-.09.35,0,.05.05.07.12.07.18s-.02.13-.07.18c-.05.04-.11.07-.18.07Z"/>
        <path class="cls-1" d="m23.25,14.25c-.06,0-.12-.02-.17-.07-.05-.05-.08-.11-.08-.18s.03-.13.07-.17c.11-.11.26-.1.36,0,.05.06.07.12.07.18s-.02.13-.07.18c-.05.05-.11.07-.18.07Z"/>
        <path class="cls-1" d="m20.5,17.5c-.06,0-.13-.03-.17-.07-.05-.04-.08-.11-.08-.18s.03-.14.08-.18c.07-.08.26-.09.35,0,.05.04.07.11.07.17s-.02.13-.07.18c-.05.04-.11.07-.18.07Z"/>
        <path class="cls-1" d="m14.75,17.5c-.06,0-.12-.02-.17-.07-.05-.05-.08-.11-.08-.18,0-.06.03-.13.07-.18.11-.09.26-.09.36,0,.05.05.07.12.07.18s-.02.13-.07.18c-.05.05-.11.07-.18.07Z"/>
        <path class="cls-1" d="m2.75,13.5c-.07,0-.13-.03-.17-.07-.05-.05-.08-.12-.08-.18,0-.07.03-.13.08-.18.09-.09.25-.09.35,0,.04.05.07.11.07.18s-.02.13-.07.18c-.05.04-.11.07-.18.07Z"/>
        <path class="cls-1" d="m6,12c-.06,0-.12-.02-.17-.07-.05-.05-.08-.12-.08-.18,0-.07.03-.13.07-.18.12-.1.26-.09.36,0,.05.05.07.11.07.18,0,.06-.02.12-.07.17-.05.06-.11.08-.18.08Z"/>
        <path class="cls-1" d="m7,3c-.06,0-.12-.02-.17-.07-.05-.05-.08-.12-.08-.18,0-.07.03-.13.07-.18.11-.09.26-.09.36,0,.05.05.07.12.07.18s-.02.12-.07.17c-.05.06-.11.08-.18.08Z"/>
        <path class="cls-1" d="m10,8.5c-.07,0-.13-.03-.18-.07-.04-.05-.07-.12-.07-.18,0-.07.03-.13.07-.18.09-.09.26-.09.36,0,.05.05.07.11.07.18,0,.06-.02.13-.07.17-.05.06-.11.08-.18.08Z"/>
        <path class="cls-1" d="m16,8.5c-.06,0-.13-.03-.18-.07-.04-.05-.07-.11-.07-.18s.03-.13.08-.18c.1-.09.25-.09.35,0,.05.05.07.12.07.18s-.02.13-.07.18c-.05.04-.11.07-.18.07Z"/>
        <path class="cls-1" d="m16.5,3.5c-.06,0-.12-.02-.17-.07-.05-.05-.08-.11-.08-.18s.03-.13.07-.18c.11-.1.26-.09.36,0,.05.05.07.11.07.18s-.02.13-.07.18c-.05.05-.12.07-.18.07Z"/>
        <path class="cls-1" d="m25.75,7.25c-.06,0-.12-.02-.17-.07-.05-.05-.08-.11-.08-.18s.03-.13.08-.18c.1-.09.25-.09.35,0,.05.05.07.12.07.18s-.02.13-.07.18c-.05.05-.11.07-.18.07Z"/>
        <path class="cls-1" d="m37,7.75c-.06,0-.12-.02-.17-.07-.05-.05-.08-.11-.08-.18s.03-.13.08-.18c.09-.09.26-.09.35,0,.05.05.07.11.07.18s-.02.13-.07.18c-.05.05-.12.07-.18.07Z"/>
        <path class="cls-1" d="m40.5,4.75c-.06,0-.13-.03-.17-.07-.05-.04-.08-.11-.08-.18s.03-.13.08-.18c.09-.09.25-.09.35,0,.05.06.07.12.07.18,0,.07-.02.13-.07.18-.05.04-.11.07-.18.07Z"/>
        <path class="cls-1" d="m37.5,4.5c-.06,0-.13-.03-.17-.07-.05-.04-.08-.11-.08-.18s.03-.13.08-.18c.08-.09.25-.09.35,0,.05.06.07.12.07.18s-.02.13-.07.18c-.05.05-.11.07-.18.07Z"/>
        <path class="cls-1" d="m43.25,2.5c-.07,0-.13-.03-.18-.08-.04-.04-.07-.1-.07-.17s.03-.13.08-.18c.09-.09.25-.09.35,0,.05.05.07.12.07.18s-.02.13-.07.18c-.05.04-.11.07-.18.07Z"/>
        <path class="cls-1" d="m49.5,8.5c-.06,0-.13-.03-.17-.07-.05-.04-.08-.11-.08-.18s.03-.14.08-.18c.08-.09.25-.09.35,0,.05.05.07.12.07.18s-.02.13-.07.18c-.05.04-.11.07-.18.07Z"/>
        <path class="cls-1" d="m46,9.5c-.06,0-.13-.03-.17-.07-.05-.05-.08-.11-.08-.18s.03-.13.08-.18c.08-.08.25-.09.35,0,.05.05.07.12.07.18s-.02.13-.07.18c-.05.04-.11.07-.18.07Z"/>
        <path class="cls-1" d="m35.75,11.25c-.06,0-.13-.03-.17-.07-.05-.05-.08-.11-.08-.18s.03-.13.08-.18c.09-.09.25-.09.35,0,.05.05.07.12.07.18s-.02.13-.07.18c-.05.04-.11.07-.18.07Z"/>
        <path class="cls-1" d="m39.25,15.25c-.06,0-.12-.02-.17-.07-.05-.05-.08-.11-.08-.18s.03-.13.08-.18c.09-.09.25-.09.35,0,.05.06.07.12.07.18s-.02.13-.07.18c-.05.05-.11.07-.18.07Z"/>
        <path class="cls-1" d="m24.75,18.25c-.06,0-.12-.02-.17-.07-.05-.05-.08-.11-.08-.18s.03-.13.07-.18c.1-.09.27-.09.36,0,.05.05.07.11.07.18s-.02.13-.07.18c-.05.05-.11.07-.18.07Z"/>
        <path class="cls-1" d="m8.25,27.5c-.06,0-.12-.02-.17-.07-.05-.05-.08-.11-.08-.18s.03-.13.07-.18c.12-.1.26-.09.36,0,.05.05.07.12.07.18,0,.07-.02.13-.07.18-.05.04-.11.07-.18.07Z"/>
        <path class="cls-1" d="m16,32c-.06,0-.13-.03-.18-.07-.04-.05-.07-.11-.07-.18s.03-.13.08-.18c.1-.09.25-.09.35,0,.05.05.07.12.07.18s-.02.13-.07.18c-.05.04-.11.07-.18.07Z"/>
        <path class="cls-1" d="m10.5,33.75c-.06,0-.12-.02-.17-.07-.05-.05-.08-.12-.08-.18,0-.07.03-.13.07-.18.11-.1.26-.09.36,0,.05.05.07.12.07.18s-.02.12-.07.17c-.05.06-.11.08-.18.08Z"/>
        <path class="cls-1" d="m5.25,37.25c-.06,0-.13-.03-.17-.07-.05-.05-.08-.11-.08-.18,0-.06.03-.12.07-.17.1-.1.26-.1.36,0,.05.05.07.12.07.18,0,.07-.02.13-.07.18-.05.05-.12.07-.18.07Z"/>
        <path class="cls-1" d="m2.75,32.25c-.06,0-.13-.03-.17-.07-.05-.05-.08-.12-.08-.18,0-.07.03-.13.08-.18.09-.09.25-.09.35,0,.04.05.07.11.07.18s-.02.13-.07.18c-.05.04-.11.07-.18.07Z"/>
        <path class="cls-1" d="m7.5,25.25c-.07,0-.13-.03-.18-.07-.04-.05-.07-.11-.07-.18s.03-.13.07-.18c.11-.09.25-.09.35,0,.06.05.08.12.08.18s-.02.13-.07.18c-.05.04-.11.07-.18.07Z"/>
        <path class="cls-1" d="m3.25,20.75c-.06,0-.13-.03-.17-.07-.05-.05-.08-.11-.08-.18,0-.06.03-.13.07-.17.1-.1.26-.1.36,0,.05.05.07.12.07.18,0,.07-.02.13-.07.18-.05.05-.12.07-.18.07Z"/>
        <path class="cls-1" d="m20.5,31c-.06,0-.13-.03-.17-.07-.05-.05-.08-.11-.08-.18s.03-.13.08-.18c.09-.09.25-.09.35,0,.05.06.07.12.07.18s-.02.12-.07.17c-.05.05-.11.08-.18.08Z"/>
        <path class="cls-1" d="m17.5,35.75c-.06,0-.12-.03-.17-.07-.05-.06-.08-.12-.08-.18,0-.07.03-.13.07-.18.11-.09.26-.09.36,0,.05.05.07.11.07.18,0,.06-.02.13-.07.17-.05.05-.11.08-.18.08Z"/>
        <path class="cls-1" d="m16,39.25c-.06,0-.12-.02-.17-.07-.05-.05-.08-.11-.08-.18s.03-.13.08-.18c.09-.09.25-.09.35,0,.05.05.07.12.07.18s-.02.13-.07.18c-.05.05-.12.07-.18.07Z"/>
        <path class="cls-1" d="m12.75,41.5c-.06,0-.13-.03-.17-.07-.05-.05-.08-.11-.08-.18,0-.06.03-.13.07-.18.1-.09.26-.09.36,0,.05.05.07.11.07.18s-.02.13-.07.18c-.05.04-.11.07-.18.07Z"/>
        <path class="cls-1" d="m12.75,46.75c-.07,0-.13-.03-.17-.07-.05-.05-.08-.12-.08-.18,0-.07.03-.13.07-.18.1-.09.26-.09.36,0,.05.05.07.11.07.18s-.02.13-.07.18c-.05.05-.11.07-.18.07Z"/>
        <path class="cls-1" d="m4,47c-.06,0-.13-.03-.17-.07-.05-.05-.08-.11-.08-.18,0-.06.03-.13.07-.18.1-.09.26-.09.35,0,.06.05.08.12.08.18,0,.07-.02.13-.07.18-.05.05-.12.07-.18.07Z"/>
        <path class="cls-1" d="m5.75,48.75c-.07,0-.13-.03-.18-.08-.04-.04-.07-.1-.07-.17s.03-.13.07-.18c.1-.09.26-.09.36,0,.05.05.07.11.07.18s-.02.13-.07.18c-.05.04-.11.07-.18.07Z"/>
        <path class="cls-1" d="m11,50.75c-.06,0-.12-.02-.17-.07-.05-.05-.08-.11-.08-.18,0-.06.03-.13.07-.17.11-.11.26-.1.36,0,.05.06.07.12.07.18s-.02.13-.07.18c-.05.05-.12.07-.18.07Z"/>
        <path class="cls-1" d="m11,54.75c-.06,0-.13-.03-.18-.07-.04-.05-.07-.11-.07-.18s.03-.13.07-.18c.11-.09.26-.09.36,0,.05.05.07.12.07.18s-.02.13-.07.18c-.05.04-.11.07-.18.07Z"/>
        <path class="cls-1" d="m15.5,58.75c-.06,0-.12-.03-.17-.07-.05-.05-.08-.11-.08-.18s.03-.13.07-.18c.11-.09.26-.09.36,0,.05.05.07.12.07.18s-.02.13-.07.18c-.05.04-.11.07-.18.07Z"/>
        <path class="cls-1" d="m10,60c-.07,0-.13-.03-.18-.07-.04-.05-.07-.12-.07-.18,0-.07.03-.13.07-.18.1-.09.25-.09.36,0,.05.05.07.11.07.18,0,.06-.02.13-.07.18-.05.05-.11.07-.18.07Z"/>
        <path class="cls-1" d="m6,63.75c-.06,0-.12-.02-.17-.07-.05-.05-.08-.12-.08-.18,0-.07.03-.13.07-.18.12-.1.26-.09.36,0,.05.05.07.11.07.18,0,.06-.02.12-.07.17-.05.06-.11.08-.18.08Z"/>
        <path class="cls-1" d="m2.25,62.25c-.06,0-.12-.02-.17-.07-.05-.05-.08-.11-.08-.18s.03-.13.07-.18c.11-.09.25-.09.35,0,.06.05.08.12.08.18s-.02.13-.07.18c-.06.05-.12.07-.18.07Z"/>
        <path class="cls-1" d="m7.25,68c-.06,0-.13-.03-.17-.07-.05-.05-.08-.12-.08-.18,0-.07.03-.13.07-.18.1-.09.26-.09.36,0,.04.05.07.11.07.18s-.02.13-.07.17c-.05.06-.11.08-.18.08Z"/>
        <path class="cls-1" d="m13.5,69.75c-.06,0-.12-.02-.17-.07-.05-.05-.08-.12-.08-.18,0-.07.03-.13.07-.18.11-.09.26-.09.36,0,.05.05.07.12.07.18s-.02.12-.07.17c-.05.06-.11.08-.18.08Z"/>
        <path class="cls-1" d="m13.5,66c-.06,0-.12-.02-.17-.07-.05-.05-.08-.11-.08-.18,0-.06.03-.13.07-.17.11-.11.26-.1.36,0,.05.06.07.12.07.18s-.02.13-.07.18c-.05.05-.11.07-.18.07Z"/>
        <path class="cls-1" d="m21.5,68.75c-.06,0-.12-.02-.17-.07-.05-.05-.08-.11-.08-.18s.03-.13.08-.18c.09-.09.25-.09.35,0,.05.05.07.12.07.18s-.02.12-.07.17c-.05.06-.11.08-.18.08Z"/>
        <path class="cls-1" d="m23,66c-.06,0-.12-.02-.17-.07-.05-.05-.08-.11-.08-.18,0-.06.03-.12.07-.17.11-.11.26-.1.36,0,.05.05.07.12.07.18,0,.07-.02.13-.07.18-.05.05-.11.07-.18.07Z"/>
        <path class="cls-1" d="m22.25,60.25c-.06,0-.12-.02-.17-.07-.05-.05-.08-.11-.08-.18,0-.06.03-.12.07-.17.11-.11.26-.1.36,0,.05.05.07.12.07.18,0,.07-.02.13-.07.18-.05.05-.12.07-.18.07Z"/>
        <path class="cls-1" d="m24.25,57.75c-.06,0-.12-.02-.17-.07-.05-.05-.08-.11-.08-.18s.03-.13.08-.18c.1-.09.25-.09.35,0,.05.05.07.12.07.18s-.02.13-.07.18c-.05.05-.11.07-.18.07Z"/>
        <path class="cls-1" d="m22,53.5c-.06,0-.12-.02-.17-.07-.05-.05-.08-.11-.08-.18s.03-.13.07-.17c.11-.11.26-.1.36,0,.05.06.07.12.07.18s-.02.13-.07.18c-.05.05-.11.07-.18.07Z"/>
        <path class="cls-1" d="m26.25,48c-.06,0-.12-.02-.17-.07-.05-.05-.08-.11-.08-.18s.03-.13.08-.18c.09-.09.25-.09.35,0,.05.05.07.12.07.18s-.02.13-.07.18c-.05.05-.11.07-.18.07Z"/>
        <path class="cls-1" d="m25.75,43.75c-.06,0-.12-.02-.17-.07-.05-.05-.08-.11-.08-.18s.03-.13.07-.18c.11-.09.26-.09.36,0,.05.06.07.12.07.18,0,.07-.02.13-.07.18-.05.05-.11.07-.18.07Z"/>
        <path class="cls-1" d="m31.25,37.75c-.06,0-.12-.03-.17-.07-.05-.05-.08-.12-.08-.18s.03-.13.07-.17c.11-.11.26-.1.36,0,.05.06.07.12.07.18s-.02.12-.07.17c-.05.05-.11.08-.18.08Z"/>
        <path class="cls-1" d="m32.25,31.25c-.06,0-.12-.02-.17-.07-.05-.05-.08-.11-.08-.18,0-.06.03-.12.07-.17.11-.11.26-.1.36,0,.05.05.07.12.07.18,0,.07-.03.13-.07.18-.05.05-.11.07-.18.07Z"/>
        <path class="cls-1" d="m26,34.25c-.06,0-.12-.02-.17-.07-.05-.05-.08-.11-.08-.18s.03-.13.08-.18c.1-.09.25-.09.35,0,.05.05.07.12.07.18s-.02.13-.07.18c-.05.05-.11.07-.18.07Z"/>
        <path class="cls-1" d="m34.25,28c-.06,0-.13-.03-.17-.07-.05-.05-.08-.11-.08-.18s.03-.13.08-.18c.09-.09.25-.09.35,0,.05.06.07.12.07.18s-.02.13-.07.18c-.05.04-.11.07-.18.07Z"/>
        <path class="cls-1" d="m37.25,28.75c-.06,0-.13-.03-.17-.07-.05-.05-.08-.11-.08-.18s.03-.13.08-.18c.09-.09.25-.09.34,0,.06.05.08.12.08.18s-.02.12-.07.17c-.05.06-.11.08-.18.08Z"/>
        <path class="cls-1" d="m41.75,26c-.06,0-.12-.03-.17-.07-.05-.05-.08-.11-.08-.18s.03-.13.08-.18c.09-.09.26-.09.35,0,.05.06.07.12.07.18s-.02.12-.07.17c-.05.05-.11.08-.18.08Z"/>
        <path class="cls-1" d="m43,21c-.06,0-.12-.02-.17-.07-.05-.05-.08-.11-.08-.18s.03-.13.08-.18c.09-.09.25-.09.35,0,.05.05.07.12.07.18s-.02.13-.07.18c-.05.05-.12.07-.18.07Z"/>
        <path class="cls-1" d="m36.5,19.5c-.06,0-.13-.03-.17-.07-.05-.04-.08-.11-.08-.18s.03-.14.08-.18c.08-.08.25-.09.35,0,.05.05.07.12.07.18s-.02.13-.07.18c-.05.05-.11.07-.18.07Z"/>
        <path class="cls-1" d="m27.75,22.5c-.06,0-.12-.03-.17-.07-.05-.05-.08-.12-.08-.18s.03-.13.07-.17c.11-.11.26-.1.36,0,.05.05.07.11.07.18s-.02.13-.07.18c-.05.04-.11.07-.18.07Z"/>
        <path class="cls-1" d="m52,22.25c-.06,0-.13-.03-.17-.07-.05-.05-.08-.11-.08-.18s.03-.13.08-.18c.09-.09.25-.09.35,0,.05.06.07.12.07.18s-.02.12-.07.17c-.05.05-.11.08-.18.08Z"/>
        <path class="cls-1" d="m43.25,18c-.06,0-.13-.03-.17-.07-.05-.05-.08-.11-.08-.18,0-.06.03-.13.07-.18.11-.09.26-.09.36,0,.05.06.07.12.07.18s-.02.12-.07.17c-.05.06-.11.08-.18.08Z"/>
        <path class="cls-1" d="m50.5,18.25c-.06,0-.13-.03-.17-.07-.05-.05-.08-.11-.08-.18s.03-.13.08-.18c.08-.09.25-.09.35,0,.05.06.07.12.07.18s-.02.12-.07.17c-.05.05-.11.08-.18.08Z"/>
        <path class="cls-1" d="m59.5,17.5c-.06,0-.13-.03-.17-.07-.05-.05-.08-.11-.08-.18s.03-.13.08-.18c.08-.09.25-.09.35,0,.05.05.07.12.07.18s-.02.13-.07.18c-.05.04-.11.07-.18.07Z"/>
        <path class="cls-1" d="m58.25,14.25c-.06,0-.13-.03-.17-.07-.05-.05-.08-.11-.08-.18s.03-.13.08-.18c.08-.09.26-.09.35,0,.05.05.07.11.07.18,0,.06-.02.13-.07.18-.05.04-.11.07-.18.07Z"/>
        <path class="cls-1" d="m61.5,11.25c-.06,0-.12-.02-.17-.07-.05-.05-.08-.11-.08-.18s.03-.14.08-.18c.09-.09.25-.09.35,0,.04.05.07.11.07.18s-.03.13-.07.18c-.05.05-.11.07-.18.07Z"/>
        <path class="cls-1" d="m58.75,7.75c-.06,0-.12-.02-.17-.07-.05-.05-.08-.11-.08-.18s.03-.13.08-.18c.09-.09.25-.09.35,0,.05.05.07.11.07.18s-.02.13-.07.18c-.05.05-.11.07-.18.07Z"/>
        <path class="cls-1" d="m60,5c-.06,0-.13-.03-.17-.07-.05-.05-.08-.11-.08-.18s.03-.13.07-.18c.11-.09.26-.09.36,0,.05.05.07.11.07.18s-.02.13-.07.17c-.05.06-.11.08-.18.08Z"/>
        <path class="cls-1" d="m67.5,6.25c-.06,0-.13-.03-.17-.07-.05-.05-.08-.12-.08-.18s.03-.13.07-.17c.1-.1.26-.1.36,0,.05.06.07.12.07.18s-.02.12-.07.17c-.05.05-.11.08-.18.08Z"/>
        <path class="cls-1" d="m69.5,8.25c-.06,0-.12-.03-.17-.07-.05-.05-.08-.11-.08-.18,0-.06.03-.13.07-.18.11-.09.26-.09.36,0,.05.05.07.12.07.18,0,.07-.02.13-.07.18-.05.05-.11.07-.18.07Z"/>
        <path class="cls-1" d="m65.75,10c-.06,0-.13-.03-.17-.07-.05-.05-.08-.11-.08-.18s.03-.13.08-.18c.08-.09.26-.09.35,0,.05.05.07.12.07.18s-.02.13-.07.18c-.05.04-.11.07-.18.07Z"/>
        <path class="cls-1" d="m61.75,16.75c-.06,0-.13-.03-.17-.07-.05-.05-.08-.11-.08-.18s.03-.13.08-.18c.09-.09.25-.09.35,0,.05.05.07.12.07.18s-.02.13-.07.17c-.05.06-.11.08-.18.08Z"/>
        <path class="cls-1" d="m60.25,24c-.06,0-.12-.03-.17-.07-.05-.05-.08-.11-.08-.18s.03-.13.08-.18c.09-.09.25-.09.35,0,.04.05.07.11.07.18s-.02.13-.07.18c-.05.05-.11.07-.18.07Z"/>
        <path class="cls-1" d="m55.5,24c-.06,0-.13-.03-.17-.07-.05-.05-.08-.12-.08-.18s.03-.13.08-.18c.09-.09.25-.09.35,0,.05.05.07.12.07.18s-.02.13-.07.18c-.05.04-.11.07-.18.07Z"/>
        <path class="cls-1" d="m55.5,19c-.06,0-.13-.03-.17-.07-.05-.05-.08-.12-.08-.18s.03-.13.08-.18c.09-.09.25-.09.35,0,.05.05.07.12.07.18s-.02.13-.07.18c-.05.04-.11.07-.18.07Z"/>
        <path class="cls-1" d="m65,26c-.06,0-.12-.03-.17-.07-.05-.05-.08-.11-.08-.18s.03-.13.08-.18c.09-.09.25-.09.35,0,.05.05.07.12.07.18,0,.07-.02.13-.07.18-.05.05-.11.07-.18.07Z"/>
        <path class="cls-1" d="m61.25,27.25c-.06,0-.13-.03-.17-.07-.05-.05-.08-.11-.08-.18s.03-.13.08-.18c.09-.09.25-.09.35,0,.05.05.07.11.07.18s-.03.13-.07.18c-.05.04-.11.07-.18.07Z"/>
        <path class="cls-1" d="m57.75,31c-.06,0-.12-.02-.17-.07-.05-.05-.08-.11-.08-.18s.03-.13.08-.18c.09-.09.25-.09.35,0,.05.05.07.11.07.18s-.02.13-.07.17c-.05.06-.11.08-.18.08Z"/>
        <path class="cls-1" d="m52.75,33c-.06,0-.13-.03-.17-.07-.05-.05-.08-.11-.08-.18s.03-.13.08-.18c.09-.09.25-.09.35,0,.05.05.07.12.07.18s-.02.13-.07.17c-.05.06-.11.08-.18.08Z"/>
        <path class="cls-1" d="m47.5,34c-.06,0-.12-.03-.17-.07-.05-.05-.08-.11-.08-.18s.03-.13.08-.18c.09-.09.25-.09.34,0,.06.06.08.12.08.18s-.02.12-.07.17c-.06.06-.11.08-.18.08Z"/>
        <path class="cls-1" d="m44.25,39.5c-.06,0-.12-.03-.17-.07-.05-.05-.08-.11-.08-.18s.03-.13.08-.18c.09-.09.25-.09.35,0,.05.05.07.11.07.18s-.02.13-.07.18c-.05.05-.12.07-.18.07Z"/>
        <path class="cls-1" d="m34,41.75c-.06,0-.12-.02-.17-.07-.05-.05-.08-.11-.08-.18s.03-.13.08-.18c.09-.09.25-.09.35,0,.05.05.07.12.07.18s-.02.13-.07.18c-.05.04-.11.07-.18.07Z"/>
        <path class="cls-1" d="m40.75,48.25c-.06,0-.12-.02-.17-.07-.05-.05-.08-.11-.08-.18s.03-.13.08-.18c.1-.09.25-.09.35,0,.04.05.07.11.07.18s-.03.13-.07.18c-.05.05-.11.07-.18.07Z"/>
        <path class="cls-1" d="m45.75,52.5c-.06,0-.12-.02-.17-.07-.05-.05-.08-.11-.08-.18s.03-.13.08-.18c.09-.09.25-.09.35,0,.05.05.07.11.07.18s-.03.13-.07.18c-.05.05-.11.07-.18.07Z"/>
        <path class="cls-1" d="m46.5,57c-.06,0-.12-.03-.17-.07-.05-.05-.08-.11-.08-.18s.03-.13.08-.18c.09-.09.25-.09.35,0,.05.05.07.12.07.18s-.02.13-.07.17c-.05.06-.11.08-.18.08Z"/>
        <path class="cls-1" d="m42,59.75c-.06,0-.12-.02-.17-.07-.05-.05-.08-.11-.08-.18s.03-.13.08-.18c.1-.09.25-.09.35,0,.04.05.07.11.07.18s-.02.13-.07.18c-.05.05-.12.07-.18.07Z"/>
        <path class="cls-1" d="m40,63c-.06,0-.12-.03-.17-.07-.05-.05-.08-.11-.08-.18s.03-.14.08-.18c.09-.09.26-.09.35,0,.05.05.07.11.07.18,0,.06-.02.13-.07.18-.05.04-.11.07-.18.07Z"/>
        <path class="cls-1" d="m36,63c-.06,0-.12-.02-.17-.07-.05-.05-.08-.11-.08-.18s.03-.13.08-.18c.1-.09.26-.09.35,0,.05.06.07.12.07.18s-.02.13-.07.18c-.05.04-.11.07-.18.07Z"/>
        <path class="cls-1" d="m36.5,53c-.07,0-.13-.03-.17-.07-.05-.05-.08-.11-.08-.18s.03-.13.08-.18c.09-.09.25-.09.35,0,.05.06.07.12.07.18s-.02.12-.07.17c-.05.05-.11.08-.18.08Z"/>
        <path class="cls-1" d="m30,63.75c-.06,0-.13-.03-.17-.07-.05-.05-.08-.11-.08-.18s.03-.13.08-.18c.09-.09.25-.09.35,0,.05.05.07.12.07.18s-.02.13-.07.17c-.05.05-.11.08-.18.08Z"/>
        <path class="cls-1" d="m31.5,68.75c-.07,0-.13-.03-.18-.08-.04-.04-.07-.1-.07-.17s.03-.14.08-.18c.09-.08.25-.09.34,0,.06.05.08.11.08.18,0,.06-.02.13-.07.18-.05.04-.11.07-.18.07Z"/>
        <path class="cls-1" d="m37,71.25c-.06,0-.12-.02-.17-.07-.05-.05-.08-.11-.08-.18s.03-.13.08-.18c.1-.09.25-.09.35,0,.05.05.07.11.07.18s-.02.13-.07.18c-.05.05-.11.07-.18.07Z"/>
        <path class="cls-1" d="m58.75,57.25c-.06,0-.12-.02-.17-.07-.05-.05-.08-.11-.08-.18s.03-.13.08-.18c.09-.09.25-.09.35,0,.05.05.07.11.07.18s-.02.13-.07.18c-.05.05-.11.07-.18.07Z"/>
        <path class="cls-1" d="m63,57.25c-.06,0-.12-.03-.17-.07-.05-.05-.08-.11-.08-.18s.03-.13.08-.18c.09-.09.25-.09.35,0,.05.05.07.11.07.18s-.02.13-.07.17c-.05.06-.11.08-.18.08Z"/>
        <path class="cls-1" d="m60,51c-.06,0-.12-.03-.17-.07-.05-.05-.08-.11-.08-.18s.03-.14.08-.18c.09-.09.25-.09.35,0,.04.05.07.11.07.18s-.02.13-.07.18c-.05.04-.11.07-.18.07Z"/>
        <path class="cls-1" d="m54.5,50.75c-.07,0-.13-.03-.17-.07-.05-.05-.08-.12-.08-.18s.03-.13.07-.17c.1-.1.26-.1.36,0,.05.06.07.12.07.18s-.02.12-.07.17c-.05.05-.11.08-.18.08Z"/>
        <path class="cls-1" d="m59.25,44.5c-.06,0-.13-.03-.17-.07-.05-.05-.08-.12-.08-.18s.03-.13.07-.17c.1-.1.27-.1.36,0,.05.06.07.12.07.18s-.02.12-.07.17c-.04.05-.11.08-.18.08Z"/>
        <path class="cls-1" d="m54.75,42c-.06,0-.13-.03-.17-.07-.05-.05-.08-.12-.08-.18s.03-.13.08-.18c.08-.09.25-.09.35,0,.05.05.07.12.07.18s-.02.13-.07.18c-.05.04-.11.07-.18.07Z"/>
        <path class="cls-1" d="m55.75,35.75c-.06,0-.12-.02-.17-.07-.05-.05-.08-.11-.08-.18s.03-.13.08-.18c.09-.09.25-.09.35,0,.05.05.07.11.07.18s-.02.13-.07.18c-.05.05-.11.07-.18.07Z"/>
        <path class="cls-1" d="m62.5,42.5c-.06,0-.13-.03-.17-.07-.05-.05-.08-.11-.08-.18s.03-.13.08-.18c.08-.08.24-.09.34,0,.06.05.08.12.08.18s-.02.13-.07.18c-.05.05-.12.07-.18.07Z"/>
        <path class="cls-1" d="m67,47.75c-.06,0-.13-.03-.17-.07-.05-.05-.08-.11-.08-.18s.03-.13.08-.18c.08-.08.25-.09.35,0,.05.05.07.11.07.18s-.03.13-.07.18c-.05.05-.11.07-.18.07Z"/>
        <path class="cls-1" d="m69.5,54.5c-.06,0-.13-.03-.17-.07-.05-.05-.08-.11-.08-.18s.03-.13.08-.18c.09-.09.25-.09.35,0,.05.05.07.11.07.18s-.02.13-.07.18c-.05.04-.11.07-.18.07Z"/>
        <path class="cls-1" d="m63.5,62c-.06,0-.13-.03-.17-.07-.05-.05-.08-.12-.08-.18,0-.07.03-.13.08-.18.07-.08.25-.1.35,0,.05.05.07.12.07.18s-.02.12-.07.17c-.05.06-.11.08-.18.08Z"/>
        <path class="cls-1" d="m69.25,63.75c-.06,0-.12-.02-.17-.07-.05-.05-.08-.11-.08-.18s.03-.13.08-.18c.09-.09.25-.09.35,0,.05.05.07.12.07.18s-.02.13-.07.17c-.05.06-.11.08-.18.08Z"/>
        <path class="cls-1" d="m64.75,65.75c-.07,0-.13-.03-.17-.07-.05-.05-.08-.12-.08-.18s.03-.12.07-.17c.1-.1.27-.1.36,0,.05.06.07.12.07.18s-.02.12-.07.17c-.04.05-.11.08-.18.08Z"/>
        <path class="cls-1" d="m65.75,68.5c-.06,0-.13-.03-.17-.07-.05-.05-.08-.11-.08-.18s.03-.13.08-.18c.08-.09.26-.09.35,0,.05.05.07.12.07.18,0,.07-.02.13-.07.18-.05.04-.11.07-.18.07Z"/>
        <path class="cls-1" d="m69.25,70.75c-.06,0-.13-.03-.17-.07-.05-.05-.08-.12-.08-.18,0-.07.03-.13.08-.18.09-.09.25-.09.35,0,.05.05.07.11.07.18,0,.06-.02.13-.07.17-.05.06-.11.08-.18.08Z"/>
        <path class="cls-1" d="m62.5,70.5c-.06,0-.13-.03-.17-.07-.05-.05-.08-.11-.08-.18s.03-.13.08-.18c.08-.08.24-.1.34,0,.06.05.08.12.08.18s-.02.13-.07.18c-.06.05-.12.07-.18.07Z"/>
        <path class="cls-1" d="m60.75,66c-.06,0-.13-.03-.17-.07-.05-.05-.08-.11-.08-.18s.03-.13.08-.18c.09-.09.25-.09.35,0,.05.05.07.12.07.18s-.02.13-.07.17c-.05.06-.11.08-.18.08Z"/>
        <path class="cls-1" d="m52.75,70c-.06,0-.13-.03-.17-.07-.05-.05-.08-.11-.08-.18s.03-.13.08-.18c.09-.09.25-.09.35,0,.05.05.07.12.07.18s-.02.13-.07.17c-.05.06-.11.08-.18.08Z"/>
        <path class="cls-1" d="m44.75,66.75c-.07,0-.13-.03-.17-.07-.05-.05-.08-.11-.08-.18s.03-.13.08-.18c.09-.09.25-.09.35,0,.05.05.07.11.07.18,0,.06-.02.13-.07.17-.05.05-.11.08-.18.08Z"/>
        <path class="cls-1" d="m44.5,71.5c-.06,0-.12-.03-.17-.07-.05-.05-.08-.11-.08-.18s.03-.13.08-.18c.09-.09.25-.09.35,0,.05.05.07.11.07.18s-.02.13-.07.18c-.05.05-.12.07-.18.07Z"/>
        <path class="cls-1" d="m28.5,71.5c-.07,0-.13-.03-.18-.08-.04-.04-.07-.1-.07-.17s.03-.13.08-.18c.09-.09.25-.09.35,0,.05.05.07.12.07.18s-.02.13-.07.18c-.04.04-.11.07-.18.07Z"/>
        <path class="cls-1" d="m.75,29.75c-.06,0-.13-.03-.17-.07-.05-.05-.08-.12-.08-.18,0-.07.03-.13.08-.18.08-.09.24-.09.35,0,.04.05.07.11.07.18s-.02.13-.07.18c-.05.05-.11.07-.18.07Z"/>
        <path class="cls-1" d="m24.5,1.25c-.06,0-.12-.02-.17-.07-.05-.05-.08-.12-.08-.18,0-.07.03-.13.07-.18.11-.09.26-.09.36,0,.04.05.07.11.07.18s-.02.13-.07.17c-.05.06-.11.08-.18.08Z"/>
        <path class="cls-1" d="m13.25,5.25c-.07,0-.13-.03-.18-.07-.04-.05-.07-.12-.07-.18,0-.07.03-.13.07-.18.09-.09.26-.09.36,0,.05.05.07.11.07.18,0,.06-.02.13-.07.17-.05.06-.11.08-.18.08Z"/>
        <path class="cls-1" d="m71,35.5c-.06,0-.13-.03-.17-.07-.05-.05-.08-.11-.08-.18s.03-.13.08-.18c.08-.08.25-.09.35,0,.05.05.07.11.07.18s-.02.13-.07.18c-.05.05-.11.07-.18.07Z"/>
      </g>
    </pattern>
  </defs>
  <rect class="cls-3" width="144" height="144"/>
</svg>