<?xml version="1.0" encoding="UTF-8"?>
<svg id="Layer_1" data-name="Layer 1" xmlns="http://www.w3.org/2000/svg" xmlns:xlink="http://www.w3.org/1999/xlink" viewBox="0 0 144 144">
  <defs>
    <style>
      .cls-1 {
        stroke-width: 5px;
      }

      .cls-1, .cls-2, .cls-3, .cls-4, .cls-5, .cls-6, .cls-7, .cls-8, .cls-9, .cls-10, .cls-11 {
        fill: #ee2a7b;
        stroke-dasharray: 0 0 0 6.5;
        stroke-linecap: round;
      }

      .cls-1, .cls-11 {
        stroke: #db317e;
      }

      .cls-2 {
        stroke-width: 2.56px;
      }

      .cls-2, .cls-3, .cls-5, .cls-6, .cls-7, .cls-8, .cls-10 {
        stroke: #e69b5c;
      }

      .cls-3 {
        stroke-width: 2.25px;
      }

      .cls-4 {
        stroke-width: 4.39px;
      }

      .cls-4, .cls-9 {
        stroke: #e2615a;
      }

      .cls-5 {
        stroke-width: 2.86px;
      }

      .cls-6 {
        stroke-width: 3.78px;
      }

      .cls-7 {
        stroke-width: 3.47px;
      }

      .cls-8 {
        stroke-width: 3.17px;
      }

      .cls-12 {
        fill: none;
      }

      .cls-9, .cls-10 {
        stroke-width: 4.08px;
      }

      .cls-11 {
        stroke-width: 4.69px;
      }

      .cls-13 {
        fill: url(#Undulating_Coarse_Dots);
      }
    </style>
    <pattern id="Undulating_Coarse_Dots" data-name="Undulating Coarse Dots" x="0" y="0" width="83" height="65" patternUnits="userSpaceOnUse" viewBox="0 0 83 65">
      <g>
        <rect class="cls-12" width="83" height="65"/>
        <line class="cls-1" x1="83" y1="66.3" x2="83" y2="131.8"/>
        <g>
          <line class="cls-1" y1="66.3" y2="131.8"/>
          <line class="cls-11" x1="4.61" y1="63.05" x2="4.61" y2="131.8"/>
          <line class="cls-4" x1="9.22" y1="66.3" x2="9.22" y2="131.8"/>
          <line class="cls-9" x1="13.83" y1="63.05" x2="13.83" y2="131.8"/>
          <line class="cls-6" x1="18.44" y1="66.3" x2="18.44" y2="131.8"/>
          <line class="cls-7" x1="23.06" y1="63.05" x2="23.06" y2="131.8"/>
          <line class="cls-8" x1="27.67" y1="66.3" x2="27.67" y2="131.8"/>
          <line class="cls-5" x1="32.28" y1="63.05" x2="32.28" y2="131.8"/>
          <line class="cls-3" x1="41.5" y1="63.05" x2="41.5" y2="131.8"/>
          <line class="cls-1" x1="83" y1="66.3" x2="83" y2="131.8"/>
          <line class="cls-11" x1="78.39" y1="63.05" x2="78.39" y2="131.8"/>
          <line class="cls-4" x1="73.78" y1="66.3" x2="73.78" y2="131.8"/>
          <line class="cls-10" x1="69.17" y1="63.05" x2="69.17" y2="131.8"/>
          <line class="cls-6" x1="64.56" y1="66.3" x2="64.56" y2="131.8"/>
          <line class="cls-7" x1="59.94" y1="63.05" x2="59.94" y2="131.8"/>
          <line class="cls-8" x1="55.33" y1="66.3" x2="55.33" y2="131.8"/>
          <line class="cls-5" x1="50.72" y1="63.05" x2="50.72" y2="131.8"/>
        </g>
        <line class="cls-1" y1="66.3" y2="131.8"/>
        <line class="cls-1" x1="83" y1="1.3" x2="83" y2="66.8"/>
        <g>
          <line class="cls-1" y1="1.3" y2="66.8"/>
          <line class="cls-11" x1="4.61" y1="-1.95" x2="4.61" y2="66.8"/>
          <line class="cls-4" x1="9.22" y1="1.3" x2="9.22" y2="66.8"/>
          <line class="cls-9" x1="13.83" y1="-1.95" x2="13.83" y2="66.8"/>
          <line class="cls-6" x1="18.44" y1="1.3" x2="18.44" y2="66.8"/>
          <line class="cls-7" x1="23.06" y1="-1.95" x2="23.06" y2="66.8"/>
          <line class="cls-8" x1="27.67" y1="1.3" x2="27.67" y2="66.8"/>
          <line class="cls-5" x1="32.28" y1="-1.95" x2="32.28" y2="66.8"/>
          <line class="cls-2" x1="36.89" y1="1.3" x2="36.89" y2="66.8"/>
          <line class="cls-3" x1="41.5" y1="-1.95" x2="41.5" y2="66.8"/>
          <line class="cls-1" x1="83" y1="1.3" x2="83" y2="66.8"/>
          <line class="cls-11" x1="78.39" y1="-1.95" x2="78.39" y2="66.8"/>
          <line class="cls-4" x1="73.78" y1="1.3" x2="73.78" y2="66.8"/>
          <line class="cls-10" x1="69.17" y1="-1.95" x2="69.17" y2="66.8"/>
          <line class="cls-6" x1="64.56" y1="1.3" x2="64.56" y2="66.8"/>
          <line class="cls-7" x1="59.94" y1="-1.95" x2="59.94" y2="66.8"/>
          <line class="cls-8" x1="55.33" y1="1.3" x2="55.33" y2="66.8"/>
          <line class="cls-5" x1="50.72" y1="-1.95" x2="50.72" y2="66.8"/>
          <line class="cls-2" x1="46.11" y1="1.3" x2="46.11" y2="66.8"/>
        </g>
        <line class="cls-1" y1="1.3" y2="66.8"/>
        <line class="cls-1" x1="83" y1="-63.7" x2="83" y2="1.8"/>
        <g>
          <line class="cls-1" y1="-63.7" y2="1.8"/>
          <line class="cls-11" x1="4.61" y1="-66.95" x2="4.61" y2="1.8"/>
          <line class="cls-4" x1="9.22" y1="-63.7" x2="9.22" y2="1.8"/>
          <line class="cls-9" x1="13.83" y1="-66.95" x2="13.83" y2="1.8"/>
          <line class="cls-6" x1="18.44" y1="-63.7" x2="18.44" y2="1.8"/>
          <line class="cls-7" x1="23.06" y1="-66.95" x2="23.06" y2="1.8"/>
          <line class="cls-8" x1="27.67" y1="-63.7" x2="27.67" y2="1.8"/>
          <line class="cls-5" x1="32.28" y1="-66.95" x2="32.28" y2="1.8"/>
          <line class="cls-2" x1="36.89" y1="-63.7" x2="36.89" y2="1.8"/>
          <line class="cls-3" x1="41.5" y1="-66.95" x2="41.5" y2="1.8"/>
          <line class="cls-1" x1="83" y1="-63.7" x2="83" y2="1.8"/>
          <line class="cls-11" x1="78.39" y1="-66.95" x2="78.39" y2="1.8"/>
          <line class="cls-4" x1="73.78" y1="-63.7" x2="73.78" y2="1.8"/>
          <line class="cls-10" x1="69.17" y1="-66.95" x2="69.17" y2="1.8"/>
          <line class="cls-6" x1="64.56" y1="-63.7" x2="64.56" y2="1.8"/>
          <line class="cls-7" x1="59.94" y1="-66.95" x2="59.94" y2="1.8"/>
          <line class="cls-8" x1="55.33" y1="-63.7" x2="55.33" y2="1.8"/>
          <line class="cls-5" x1="50.72" y1="-66.95" x2="50.72" y2="1.8"/>
          <line class="cls-2" x1="46.11" y1="-63.7" x2="46.11" y2="1.8"/>
        </g>
        <line class="cls-1" y1="-63.7" y2="1.8"/>
      </g>
    </pattern>
  </defs>
  <rect class="cls-13" width="144" height="144"/>
</svg>